<?xml version="1.0" encoding="utf-8"?>
<!-- Generator: Adobe Illustrator 25.1.0, SVG Export Plug-In . SVG Version: 6.00 Build 0)  -->
<svg version="1.1" id="Layer_1" xmlns="http://www.w3.org/2000/svg" xmlns:xlink="http://www.w3.org/1999/xlink" x="0px" y="0px"
	 viewBox="0 0 170 170" style="enable-background:new 0 0 170 170;" xml:space="preserve">
<style type="text/css">
	.st0{fill:#F77F3C;stroke:#F77F3C;stroke-width:2;stroke-miterlimit:10;}
</style>
<path class="st0" d="M1.6,85.4c1.2-1.7,2.8-2.8,4.4-4.1C31.3,59.4,56.7,37.5,82,15.6c0.4-0.3,0.7-0.7,1.1-1c1.4-1.1,2.7-1.2,4.1,0
	c4.1,3.5,8.2,7,12.3,10.5c22.4,19.4,44.9,38.7,67.3,58.1c0.4,0.3,0.7,0.6,1.1,1c1.3,1.3,1.3,2.9,0.3,4.1c-1,1.1-2.7,1.3-4,0.2
	c-3-2.6-6-5.2-9-7.8c-2-1.7-4-3.4-6.1-5.2c-0.4,0.7-0.3,1.3-0.3,1.9c0,17.2,0,34.3,0,51.5c0,8.9-4.2,15.4-12.2,19.2
	c-2.4,1.2-5.1,1.7-7.7,1.7c-29.1,0-58.2,0.1-87.3,0c-11.2,0-20-9.2-20-20.7c0-17.2,0-34.4,0-51.7c0-0.6,0-1.2,0-2.1
	c-0.8,0.6-1.3,1.1-1.8,1.5c-4.2,3.7-8.5,7.3-12.7,11c-2.3,2-3.7,1.9-5.5-0.4C1.6,86.7,1.6,86,1.6,85.4z M85.1,144.1
	c14.2,0,28.4,0,42.7,0c9.2,0,15.4-6.2,15.4-15.4c0-19,0-38,0-57c0-1-0.3-1.7-1.1-2.3c-18.6-16-37.2-32.1-55.8-48.2
	c-0.9-0.7-1.3-0.7-2.1,0C65.7,37.3,47.1,53.3,28.4,69.3c-0.8,0.7-1.1,1.3-1.1,2.3c0,19,0,38,0,57c0,1,0,2,0.2,2.9
	c1.3,7.6,7.2,12.4,15.2,12.4C56.9,144.1,71,144.1,85.1,144.1z"/>
<path class="st0" d="M85.4,116.4c12.2,0,24.4,0,36.6,0c1.4,0,1.8-0.3,1.7-1.7c-0.1-2.3-0.1-4.6,0-6.9c0-2.1,1.1-3.5,2.9-3.5
	c1.7,0,2.9,1.3,2.9,3.5c0,7.6,0,15.3,0,22.9c0,2.2-1.1,3.5-2.8,3.5c-1.8,0.1-2.9-1.3-2.9-3.5c0-2.4-0.1-4.8,0-7.2
	c0-1.2-0.2-1.6-1.5-1.6c-24.6,0-49.1,0-73.7,0c-1.3,0-1.6,0.4-1.6,1.6c0.1,2.4,0,4.8,0,7.2c0,2.1-1.1,3.5-2.9,3.5
	c-1.7,0-2.9-1.3-2.9-3.5c0-12.5,0-25.1,0-37.6c0-2.1,1.1-3.4,2.9-3.4c1.7,0,2.8,1.2,2.8,3.3c0,7.1,0.1,14.2,0,21.2
	c0,1.5,0.3,2,1.9,2C61,116.4,73.2,116.4,85.4,116.4z"/>
<path class="st0" d="M63.7,98.1c2.1,0,4.1,0,6.2,0c4.1,0.1,7.1,3.3,7.1,7.4c0,4.2-3,7.5-7.1,7.6c-4.2,0.1-8.4,0.1-12.6,0
	c-4.1-0.1-7.2-3.3-7.2-7.5c0-4.2,3.1-7.4,7.2-7.5C59.4,98,61.5,98.1,63.7,98.1z M63.4,107.4c1.8,0,3.6,0,5.4,0
	c1.3,0,2.5-0.1,2.5-1.8c0-1.4-0.6-1.9-2.4-1.9c-3.6,0-7.2,0-10.8,0c-1.3,0-2.3,0.3-2.3,1.8c0,1.5,0.9,1.9,2.2,1.9
	C59.8,107.4,61.6,107.4,63.4,107.4z"/>
</svg>
