<?xml version="1.0" encoding="utf-8"?>
<!-- Generator: Adobe Illustrator 22.1.0, SVG Export Plug-In . SVG Version: 6.00 Build 0)  -->
<svg version="1.1" id="Layer_1" xmlns="http://www.w3.org/2000/svg" xmlns:xlink="http://www.w3.org/1999/xlink" x="0px" y="0px"
	 width="170px" height="170px" viewBox="0 0 170 170" style="enable-background:new 0 0 170 170;" xml:space="preserve">
<style type="text/css">
	.st0{fill:#f77f3c;}
</style>
<g>
	<path class="st0" d="M85,7c3.9,8.2,7.6,15.8,11.3,23.5c19.6,41.1,39.2,82.1,58.9,123.2c0.3,0.7,0.6,1.4,1,2c0.8,1.6,0.4,3-1.2,3.8
		c-1.6,0.7-2.9,0.2-3.7-1.4c-0.3-0.7-0.7-1.3-1-2c-18.7-39-37.3-78-56-117c-0.5-1-0.7-2.2-2-3.1c-0.4,3.2-0.9,6.1-2.1,8.8
		c-0.8,1.9-2.1,3-4.1,2.2c-1.9-0.8-1.8-2.6-1.1-4.3c1.2-3,1.9-6,1.3-9.2c-0.2-1.4,0.3-2.7,1.9-3.1c1.5-0.4,1.4-1.1,0.8-2.1
		c-1.3-2.6-2.5-5.2-3.8-7.9c-1.2,0.9-1.5,2.1-2,3.1C62.1,67.6,41,111.7,19.9,155.8c-0.4,0.9-0.9,1.8-1.4,2.7
		c-0.8,1.3-2.1,1.7-3.5,1.1c-1.3-0.6-1.7-1.8-1.4-3.2c0.2-0.7,0.5-1.4,0.8-2.1c23-48.2,46.1-96.4,69.1-144.5C84,9,84.3,8.3,85,7z"/>
	<path class="st0" d="M110.2,19.4c0-3.4,0.1-6.8,0-10.2c0-1.4,0.5-1.9,1.9-1.8c2.8,0.1,5.7-0.1,8.5,0c6.1,0.2,9.3,5.5,6.9,11
		c-0.4,1-0.3,1.6,0.1,2.5c2.4,5.5-0.9,10.6-6.9,10.7c-2.7,0.1-5.5-0.1-8.2,0c-1.8,0.1-2.3-0.6-2.2-2.3
		C110.3,26.1,110.2,22.7,110.2,19.4z M119,26.3c1.5-0.2,3.6,0.4,3.6-1.9c0-2.8-2.4-1.9-4-2c-1.4-0.1-2.8-0.4-2.8,2
		C115.9,26.9,117.7,26.1,119,26.3z M118.8,13.1c-1.1,0.2-2.9-0.8-2.9,1.9c0,2.6,1.8,1.8,3.1,1.9c0.5,0.1,1,0,1.5,0
		c1.3,0,2.3-0.5,2.2-2c-0.1-1.4-1-1.7-2.2-1.7C119.9,13.1,119.4,13.1,118.8,13.1z"/>
	<path class="st0" d="M59.9,127.4c4.1,10.9,7.9,21.1,11.8,31.4c0.6,1.6,0.5,3.2-1.4,3.9c-2,0.8-3.3-0.3-3.6-1.9
		c-0.7-4-3.2-4.7-6.6-4.1c-0.2,0-0.5,0-0.7,0c-3.3-0.7-5.4,0.4-6.1,4c-0.3,1.6-1.6,2.8-3.5,2.1c-1.9-0.7-2.3-2.1-1.6-4
		C52,148.5,55.9,138.2,59.9,127.4z M60.3,144c-0.2,0-0.4,0-0.6-0.1c-0.5,1.2-0.9,2.4-1.4,3.6c-1.4,3.8-1.3,4,2.8,3.6
		c0.2,0,0.3,0,0.5,0c1-0.1,1.3-0.6,0.9-1.5C61.7,147.8,61,145.9,60.3,144z"/>
	<path class="st0" d="M78.7,95.1c-1.2,0.1-2-0.5-2.6-1.3c-2.3-3.1-4.3-6.3-5.6-9.9c-0.6-1.7-0.7-3.4,1.2-4.2c2.1-0.9,3.3,0.4,4,2.2
		c1.2,3.2,3,6.1,5,8.9c0.7,1,1,2.1,0.2,3.2C80.3,94.8,79.6,95.3,78.7,95.1z"/>
	<path class="st0" d="M70.2,66.8c0.3-0.9,0.7-2.2,1.3-3.5c1.2-2.8,2.7-5.5,4.5-8c0.9-1.3,2.2-1.9,3.7-0.9c1.5,0.9,1.9,2.3,1,3.8
		c-2,3.2-3.7,6.4-5,10c-0.5,1.4-1.6,2.2-3.1,1.8C71.1,69.7,70.2,68.8,70.2,66.8z"/>
	<path class="st0" d="M99.6,112.2c0,1.1-0.3,1.9-1.4,2.4c-1.1,0.5-2.1,0.6-3-0.3c-2.9-3-5.8-5.9-8.6-9c-1.1-1.2-0.9-2.7,0.2-3.8
		c1.1-1.1,2.5-1.1,3.6,0c2.9,2.9,5.6,5.9,8.4,8.8C99.4,110.9,99.6,111.6,99.6,112.2z"/>
	<path class="st0" d="M91.7,160.1c-0.1-1,0.5-1.7,1.1-2.4c2.2-2.5,4.2-5.2,6-8c1-1.5,2.3-2.6,4.1-1.4c1.9,1.2,1.4,2.9,0.4,4.5
		c-2,3.1-4.2,6.1-6.7,9c-0.9,1-1.9,1.5-3.3,0.9C92.2,162.1,91.6,161.4,91.7,160.1z"/>
	<path class="st0" d="M109.4,133.6c0,1.1,0.1,2.2,0,3.2c-0.2,1.6-1.3,2.5-3,2.3c-1.6-0.1-2.4-1.1-2.4-2.7c0.2-3.7-0.4-7.3-1.5-10.8
		c-0.5-1.7,0.2-2.8,1.7-3.4c1.6-0.6,3,0.1,3.6,1.7C108.9,127.2,109.7,130.3,109.4,133.6z"/>
</g>
</svg>
