<?xml version="1.0" encoding="utf-8"?>
<!-- Generator: Adobe Illustrator 25.1.0, SVG Export Plug-In . SVG Version: 6.00 Build 0)  -->
<svg version="1.1" id="Layer_1" xmlns="http://www.w3.org/2000/svg" xmlns:xlink="http://www.w3.org/1999/xlink" x="0px" y="0px"
	 viewBox="0 0 500 500" style="enable-background:new 0 0 500 500;" xml:space="preserve">
<style type="text/css">
	.st0{fill:#F77F3C;}
</style>
<path class="st0" d="M249.6,172.9c-70.7,0-141.4,0-212-0.1c-4,0-5,0.9-4.9,4.9c0.1,77.3,0.1,154.6,0.1,231.9
	c0,17.4,9.1,26.6,26.4,26.6c69.9,0,139.7,0,209.6,0c1.6,0,3.3-0.2,4.8,0.1c4.2,0.6,6.6,3.2,6.9,7.4c0.3,4-2.8,7.4-6.9,7.9
	c-1.4,0.2-2.9,0.1-4.4,0.1c-70.2,0-140.4,0-210.6,0c-25.2,0-41.4-16.3-41.4-41.5c0-101.5,0-203,0-304.5c0-25.1,16.3-41.3,41.5-41.3
	c7.9,0,15.8,0.1,23.7,0c4-0.1,9.2,1.8,11.5-0.8c2-2.2,0.6-7.3,0.7-11.2c0.1-3.4,0-6.7,0.8-10.1c3.5-15.4,17.6-25.8,33.2-24.3
	c15.5,1.5,27.6,14.5,28,30.1c0.1,4.5,0.1,9,0,13.6c-0.1,2.1,0.6,2.7,2.7,2.7c18.9-0.1,37.8-0.1,56.6,0c2.7,0,2.7-1.2,2.7-3.2
	c0.2-6.4-0.7-12.9,0.8-19.3c3.5-15,17.5-25.3,33-23.9c15.3,1.4,27.5,14.2,28.1,29.5c0.2,4.5,0.1,9,0,13.6c-0.1,2.3,0.2,3.4,3,3.4
	c18.7-0.1,37.4-0.1,56.2,0c2.5,0,2.8-0.9,2.9-3.1c0.1-6.4-0.7-12.9,0.8-19.3c3.4-15.1,17.4-25.4,32.9-24.1
	c15.5,1.3,27.8,14.3,28.2,29.9c0.1,4.2,0.2,8.4,0,12.6c-0.2,3.1,0.7,4.1,3.9,4c11.1-0.2,22.3-0.1,33.4-0.1
	c23.6,0.1,40.2,16.6,40.2,40.2c0,65.8,0,131.7,0,197.5c0,1,0.1,1.9-0.1,2.9c-0.5,4.2-3.7,7.2-7.7,7.2c-4,0-7.3-3-7.6-7.2
	c-0.2-3.4-0.1-6.8-0.1-10.2c0-39.2-0.1-78.4,0.1-117.6c0-3.6-0.8-4.5-4.5-4.5C391.3,173,320.5,172.9,249.6,172.9z M249.6,157.4
	c70.8,0,141.6,0,212.5,0c2.3,0,4.6,0.9,4.6-3.3c-0.3-17.1,0-34.2-0.2-51.3c-0.1-12.7-10.2-22.6-22.9-22.8c-11.9-0.2-23.9,0-35.8-0.1
	c-2.4,0-3.4,0.5-3.3,3.1c0.2,4.5,0.2,9,0,13.5c-0.5,15.4-12.6,28.2-27.9,29.7c-15.5,1.6-29.8-8.9-33.2-24.2
	c-1.4-6.2-0.6-12.5-0.8-18.8c-0.1-2.1,0-3.5-3-3.4c-18.7,0.2-37.4,0.1-56.1,0c-2.4,0-3,0.7-2.9,3c0.2,4.5,0.1,9,0,13.6
	c-0.5,15.6-12.8,28.6-28.2,29.9c-15.4,1.3-29.4-9-32.9-24.1c-0.7-3-0.7-6.1-0.8-9.1c-0.2-4.3,1.9-10.2-0.8-12.5
	c-2.6-2.2-8.3-0.7-12.6-0.7c-12.6,0-25.2,0-37.8,0c-10.8,0-10.8,0-10.8,10.5c0,1.9,0,3.9,0,5.8c-0.5,15.6-12.6,28.6-28.1,30
	c-15.6,1.4-29.7-9-33.1-24.4c-1.3-6.1-0.7-12.2-0.7-18.3c0-2.9-0.6-3.8-3.7-3.7c-11.3,0.2-22.6,0-33.9,0.1
	c-14.7,0.1-24.4,9.9-24.5,24.7c0,16,0.1,31.9-0.1,47.9c-0.1,4,0.9,5,4.9,5C108.3,157.4,178.9,157.4,249.6,157.4z M141.2,72.2
	c0-7.6,0.1-15.1,0-22.7c-0.1-9.3-6.9-16.2-15.7-16c-8.6,0.1-15.2,6.9-15.2,16c-0.1,15.1-0.1,30.3,0,45.4c0,9.1,6.6,15.9,15.2,16.1
	c8.8,0.1,15.6-6.7,15.7-16C141.3,87.4,141.2,79.8,141.2,72.2z M265.1,72.4c0-7.6,0.1-15.1,0-22.7c-0.1-9.4-6.7-16.2-15.5-16.2
	c-8.8,0-15.4,6.9-15.4,16.3c-0.1,15-0.1,29.9,0,44.9c0,9.3,6.7,16.3,15.5,16.2c8.8,0,15.4-6.9,15.5-16.3
	C265.2,87.2,265.1,79.8,265.1,72.4z M389,72.5c0-7.6,0.1-15.1,0-22.7c-0.1-9.4-6.7-16.3-15.5-16.3c-8.8,0-15.5,6.8-15.5,16.2
	c-0.1,15-0.1,29.9,0,44.9c0,9.4,6.7,16.3,15.4,16.3c8.8,0,15.4-6.9,15.5-16.2C389.1,87.3,389,79.9,389,72.5z"/>
<path class="st0" d="M280.6,381.5c-0.1-54.9,45.2-99.9,100.6-100.1c55.1-0.2,100.5,45,100.7,100c0.2,55.6-44.8,101.2-99.9,101.3
	C325.6,482.8,280.7,438,280.6,381.5z M296.1,382.3c-0.1,46.8,38.3,84.9,85.4,85c46.6,0,85-38.4,85-85c0-46.9-38-85.4-84.5-85.4
	C334.3,296.8,296.2,334.7,296.1,382.3z"/>
<path class="st0" d="M110,265.9c-5,0-10,0.1-15,0c-9-0.2-15.6-6.6-15.8-15.5c-0.1-7.7-0.1-15.5,0-23.2c0.2-9,6.7-15.4,15.7-15.5
	c10.1-0.1,20.3-0.1,30.4,0c9.2,0.1,15.7,6.7,15.8,15.9c0.1,7.4,0.1,14.8,0,22.2c-0.1,9.5-6.6,15.9-16.2,16
	C120,265.9,115,265.9,110,265.9z M110.4,227.1c-4.2,0-8.4,0.2-12.6-0.1c-2.7-0.2-3.2,0.9-3.1,3.3c0.2,5.6,0.2,11.3,0,16.9
	c-0.1,2.7,0.9,3.2,3.3,3.1c8.2-0.1,16.4-0.2,24.7,0c2.7,0.1,3.2-0.9,3.1-3.3c-0.2-5.6-0.2-11.3,0-16.9c0.1-2.7-0.9-3.2-3.3-3.1
	C118.4,227.3,114.4,227.1,110.4,227.1z"/>
<path class="st0" d="M203.4,265.9c-5,0-10,0.1-15,0c-9.6-0.1-16.1-6.5-16.2-16c-0.1-7.4-0.1-14.8,0-22.2c0.1-9.3,6.5-15.8,15.8-15.9
	c10.1-0.1,20.3-0.1,30.4,0c9,0.1,15.6,6.6,15.7,15.5c0.1,7.7,0.1,15.5,0,23.2c-0.2,8.9-6.7,15.3-15.7,15.5
	C213.4,265.9,208.4,265.9,203.4,265.9z M201.9,250.4c5,0,9.2-0.1,13.4,0c2.2,0.1,3.5-0.1,3.4-3c-0.3-5.8-0.2-11.6,0-17.4
	c0.1-2.4-0.8-2.9-3-2.9c-6.6,0.1-13.2,0-19.8,0c-8.2,0-8.2,0-8.1,8.3c0,4.8-1.7,11.3,0.7,14C191.2,252.5,197.8,249.9,201.9,250.4z"
	/>
<path class="st0" d="M296.2,265.9c-5.2,0-10.3,0.1-15.5,0c-8.9-0.2-15.4-6.7-15.6-15.7c-0.1-7.7-0.1-15.5,0-23.2
	c0.2-8.7,6.7-15.2,15.4-15.3c10.3-0.1,20.6-0.1,30.9,0c8.9,0.1,15.4,6.7,15.6,15.6c0.1,7.7,0.2,15.5,0,23.2
	c-0.2,8.7-6.7,15.1-15.4,15.3C306.5,266,301.3,265.9,296.2,265.9z M295.2,250.4c5.1,0,9.3-0.1,13.5,0.1c2.3,0.1,3-0.6,3-3
	c-0.2-5.8-0.2-11.6,0-17.4c0.1-2.3-0.7-3-3-3c-6.8,0.1-13.5,0.1-20.3,0.1c-7.7,0-7.8,0-7.7,7.8c0,5-1.8,11.7,0.7,14.5
	C284.2,252.6,291,250,295.2,250.4z"/>
<path class="st0" d="M389.2,265.9c-5.2,0-10.3,0.1-15.5,0c-9-0.2-15.5-6.7-15.6-15.6c-0.1-7.7-0.1-15.5,0-23.2
	c0.2-8.7,6.6-15.2,15.4-15.3c10.5-0.2,20.9-0.2,31.4,0c8.4,0.1,14.9,6.7,15.1,15.1c0.2,8,0.2,16.1,0,24.2
	c-0.2,8.2-6.7,14.6-14.9,14.9C399.8,266,394.5,265.9,389.2,265.9z M389.4,227.1c-4.2,0-8.4,0.1-12.6,0c-2.3-0.1-3.4,0.4-3.3,3.1
	c0.2,5.6,0.2,11.3,0,16.9c-0.1,2.4,0.4,3.4,3.1,3.3c8.2-0.2,16.4-0.1,24.7,0c2.3,0,3.4-0.4,3.3-3.1c-0.2-5.6-0.2-11.3,0-16.9
	c0.1-3-1.1-3.4-3.6-3.3C397.1,227.3,393.3,227.1,389.4,227.1z"/>
<path class="st0" d="M110.1,335.6c-5.2,0-10.3,0.1-15.5,0c-8.7-0.2-15.2-6.7-15.4-15.4c-0.1-7.9-0.2-15.8,0-23.7
	c0.2-8.4,6.7-15,15.1-15.1c10.6-0.2,21.3-0.2,31.9,0c8.2,0.2,14.6,6.7,14.9,14.8c0.2,8,0.2,16.1,0,24.2c-0.2,8.4-6.7,14.9-15.1,15.1
	C120.7,335.7,115.4,335.6,110.1,335.6z M109.9,320.1c4.2,0,8.4-0.1,12.6,0c2.4,0.1,3.4-0.4,3.3-3.1c-0.2-5.6-0.2-11.3,0-16.9
	c0.1-2.4-0.4-3.4-3.1-3.3c-8.2,0.2-16.4,0.1-24.7,0c-2.3,0-3.4,0.4-3.3,3.1c0.2,5.6,0.2,11.3,0,16.9c-0.1,3,1.1,3.4,3.6,3.3
	C102.1,320,106,320.1,109.9,320.1z"/>
<path class="st0" d="M203,335.6c-5.2,0-10.3,0.1-15.5,0c-8.7-0.2-15.2-6.7-15.4-15.4c-0.1-7.9-0.2-15.8,0-23.7
	c0.2-8.4,6.7-15,15.1-15.1c10.6-0.2,21.3-0.2,31.9,0c8.2,0.2,14.6,6.7,14.9,14.8c0.2,8,0.2,16.1,0,24.2c-0.2,8.4-6.7,14.9-15.1,15.1
	C213.7,335.7,208.3,335.6,203,335.6z M204.4,296.9c-5,0-9.2,0.1-13.4,0c-2.2-0.1-3.5,0.1-3.4,3c0.3,5.8,0.2,11.6,0,17.4
	c-0.1,2.4,0.8,2.9,3,2.9c6.6-0.1,13.2,0,19.8,0c8.2,0,8.2,0,8.2-8.3c0-4.8,1.7-11.3-0.7-14C215.1,294.7,208.5,297.3,204.4,296.9z"/>
<path class="st0" d="M110.2,405.3c-5,0-10,0.1-15,0c-9.3-0.1-15.8-6.6-15.9-15.8c-0.1-7.6-0.1-15.1,0-22.7c0.1-9,6.6-15.6,15.5-15.7
	c10.3-0.1,20.6-0.1,30.9,0c8.7,0.1,15.3,6.6,15.5,15.3c0.2,7.9,0.2,15.8,0,23.7c-0.2,8.6-6.8,15-15.5,15.2
	C120.5,405.4,115.3,405.3,110.2,405.3z M111.1,366.6c-5.1,0-9.3,0.1-13.5-0.1c-2.4-0.1-3,0.7-3,3c0.2,5.8,0.2,11.6,0,17.4
	c-0.1,2.4,0.7,3,3,2.9c6.8-0.1,13.5-0.1,20.3-0.1c7.7,0,7.8,0,7.7-7.8c0-5,1.8-11.7-0.7-14.5C122.1,364.4,115.3,367,111.1,366.6z"/>
<path class="st0" d="M203,351.1c5.2,0,10.3-0.1,15.5,0c8.9,0.2,15.5,6.7,15.6,15.6c0.1,7.7,0.2,15.5,0,23.2
	c-0.2,8.7-6.7,15.2-15.4,15.3c-10.3,0.2-20.6,0.1-30.9,0c-8.9-0.1-15.5-6.7-15.6-15.6c-0.1-7.7-0.1-15.5,0-23.2
	c0.2-8.7,6.7-15.1,15.4-15.3C192.7,351,197.9,351.1,203,351.1z M201.9,389.8c4.9,0,8.9-0.2,12.9,0.1c2.8,0.1,4-0.3,3.9-3.6
	c-0.3-5.5-0.3-11,0-16.4c0.1-2.9-1-3.4-3.6-3.3c-6.4,0.2-12.9,0.1-19.3,0.1c-8.1,0-8.2,0-8.1,8.3c0,4.8-1.7,11.3,0.8,14
	C191.3,392,197.8,389.4,201.9,389.8z"/>
<path class="st0" d="M295.8,281.4c5,0,10-0.1,15,0c5.3,0.1,8.6,3.2,8.6,7.8c0,4.5-3.4,7.6-8.7,7.7c-8.9,0.1-17.7,0.1-26.6,0
	c-2.6,0-3.7,0.5-3.5,3.4c0.3,4,0,8,0.1,12.1c0,3.9-1.2,8,4.6,9.7c2.9,0.9,3.8,4.7,2.7,8c-1.1,3.6-3.7,5.5-7.6,5.6
	c-7.6,0.2-15-6.5-15.2-14.5c-0.3-8.4-0.3-16.7,0-25.1c0.3-8.1,6.8-14.3,15.1-14.6C285.4,281.2,290.6,281.4,295.8,281.4z"/>
<path class="st0" d="M439.3,355c-0.3,2.8-1.5,4.8-3.2,6.6c-21.3,21.3-42.6,42.6-64,63.9c-4.3,4.3-8.2,4.2-12.6-0.1
	c-10.4-10.3-20.8-20.7-31.1-31.1c-3.9-3.9-4.1-8.2-0.9-11.5c3.3-3.5,7.8-3.4,11.9,0.7c7.7,7.6,15.5,15.1,22.8,23
	c3.1,3.4,4.6,2.6,7.4-0.2c18.3-18.6,36.8-37,55.3-55.4c5.2-5.1,11.8-4,13.9,2.2C439,353.7,439.1,354.5,439.3,355z"/>
</svg>
