<?xml version="1.0" encoding="utf-8"?>
<!-- Generator: Adobe Illustrator 22.1.0, SVG Export Plug-In . SVG Version: 6.00 Build 0)  -->
<svg version="1.1" id="Layer_1" xmlns="http://www.w3.org/2000/svg" xmlns:xlink="http://www.w3.org/1999/xlink" x="0px" y="0px"
	 width="170px" height="170px" viewBox="0 0 170 170" style="enable-background:new 0 0 170 170;" xml:space="preserve">
<style type="text/css">
	.st0{fill:#f77f3c;}
</style>
<g>
	<path class="st0" d="M81.7,47.5c0-10.2,0.1-20.3-0.1-30.5c0-2.1,0.7-2.9,2.7-2.8c24.9,1,44.7,11.3,58.4,32.4
		c6.4,9.9,9.6,20.8,10.4,32.6c2.2,34.7-22.6,66-56.9,71.7c-31.8,5.3-62.2-11.3-74.9-40.8c-3.7-8.7-5.2-17.8-5.6-27.2
		c-0.1-2.2,0.9-2.7,2.8-2.7c5,0.1,10,0.2,15,0.2c15.2,0,30.5,0,45.7,0.1c2.1,0,2.6-0.7,2.6-2.7C81.6,67.6,81.7,57.5,81.7,47.5z
		 M87.3,82.3c0,4.1,0.6,3.6-3.6,3.6c-19.8,0-39.7,0-59.5,0c-1.5,0-3.1-0.2-2.9,2.2c0.8,7.9,2.7,15.5,6.3,22.7
		c0.6,1.3,1.2,1.3,2.3,0.6c1.8-1.1,3.6-2.1,5.4-3.1c1.7-1,3.4-1.4,4.6,0.5c1.2,1.9,0,3.3-1.7,4.2c-1.9,1.1-3.7,2.2-5.6,3.2
		c-1.2,0.6-1.2,1.3-0.5,2.3c4.7,6.6,10.1,12.3,16.8,16.9c1.1,0.7,1.7,0.7,2.4-0.5c0.9-1.7,1.9-3.3,2.8-5c1.6-2.7,3-3.5,4.6-2.5
		c1.7,1,1.8,2.6,0.3,5.2c-1,1.7-2,3.5-3,5.2c-0.5,0.9-0.4,1.5,0.6,2c7.3,3.6,15,5.8,23.2,6.3c1.5,0.1,1.9-0.5,1.8-1.9
		c-0.1-2.2-0.1-4.3,0-6.5c0.1-1.7,0.7-3.2,2.7-3.2c2.2-0.1,2.9,1.4,2.9,3.3c0.1,2,0.1,4,0,6c-0.2,1.9,0.5,2.5,2.4,2.3
		c7.9-0.6,15.4-2.7,22.5-6.2c1.2-0.6,1.3-1.3,0.6-2.3c-1.2-1.9-2.2-3.9-3.4-5.8c-1-1.7-1-3.2,0.8-4.3c1.8-1.1,3,0,3.9,1.4
		c1.2,2,2.4,4,3.5,6c0.5,1,1.1,1.3,2.2,0.6c6.8-4.6,12.5-10.5,17.2-17.3c0.6-0.9,0.5-1.4-0.5-2c-1.8-1-3.6-2.1-5.4-3.1
		c-2.5-1.4-3.2-3-2.2-4.5c1.4-2,3.1-1.3,4.8-0.3c1.7,1,3.5,2,5.2,3c1,0.6,1.7,0.7,2.3-0.6c3.5-7.2,5.5-14.8,6.3-22.7
		c0.2-1.8-0.5-2.4-2.2-2.3c-2.1,0.1-4.2,0-6.2,0c-1.9,0.1-3.2-0.9-3.3-2.6c-0.1-1.9,1.3-2.8,3.1-2.8c2.2,0,4.5-0.1,6.7,0
		c1.5,0,2.1-0.7,1.9-2.1c-0.8-7.9-2.7-15.5-6.2-22.7c-0.6-1.2-1.2-1.4-2.3-0.7c-1.9,1.2-3.9,2.2-5.8,3.4c-1.7,1-3.3,1-4.3-0.8
		c-0.9-1.7-0.2-3,1.5-4c1.9-1.1,3.7-2.3,5.6-3.2c1.5-0.7,1.7-1.4,0.7-2.8c-4.5-6.5-10.2-11.9-16.6-16.5c-1.3-0.9-2-0.6-2.7,0.7
		c-1.1,2-2.2,3.9-3.4,5.8c-1,1.6-2.4,2.2-4,1.2c-1.5-0.9-1.6-2.4-0.8-3.9c1.2-2,2.3-4.1,3.5-6.1c0.7-1.1,0.5-1.7-0.7-2.3
		c-7-3.5-14.4-5.5-22.2-6.2c-1.9-0.2-2.6,0.4-2.6,2.4C87.4,32.7,87.4,72.6,87.3,82.3z"/>
	<path class="st0" d="M57.2,39c-0.9,0-1.6-0.6-2.2-1.5c-1.9-3.3-3.9-6.6-5.7-9.9c-0.9-1.6-0.7-3.1,1-4c1.7-1,2.9-0.1,3.7,1.3
		c2,3.3,3.9,6.6,5.7,9.9C60.9,36.9,59.6,39.1,57.2,39z"/>
	<path class="st0" d="M40.4,56.1c0,2-2,3.4-3.8,2.5c-3.7-1.9-7.2-4.1-10.7-6.2c-1.2-0.8-1.6-2.1-0.9-3.5c0.8-1.4,2.2-1.8,3.4-1.2
		c3.8,2,7.5,4.2,11.2,6.5C40.2,54.5,40.4,55.3,40.4,56.1z"/>
</g>
</svg>
