<?xml version="1.0" encoding="utf-8"?>
<!-- Generator: Adobe Illustrator 25.1.0, SVG Export Plug-In . SVG Version: 6.00 Build 0)  -->
<svg version="1.1" id="Layer_1" xmlns="http://www.w3.org/2000/svg" xmlns:xlink="http://www.w3.org/1999/xlink" x="0px" y="0px"
	 viewBox="0 0 170 170" style="enable-background:new 0 0 170 170;" xml:space="preserve">
<style type="text/css">
	.st0{fill:#F77F3C;}
</style>
<path class="st0" d="M80.8,166.8c-2.4-0.9-5-1.1-7.4-2.1c-11.9-4.9-18.8-13.7-21-26.3c-0.2-0.9-0.4-1.4-1.3-1.8
	c-1.2-0.5-1.9-1.4-1.7-2.8c0.1-1.3,0.9-2,2.1-2.2c0.8-0.1,0.7-0.7,0.8-1.2c1.8-13.2,8.8-22.5,21.2-27.3c19.8-7.6,41.5,5.7,44,26.8
	c0.1,1,0.3,1.2,1.2,0.7c1.8-0.9,3.2-0.6,4,0.8c0.7,1.4,0.3,2.8-1.5,3.6c-2.6,1.1-3.7,2.9-4.3,5.7c-3,13.8-13.5,23.4-27.7,25.6
	c-0.2,0-0.4,0.1-0.5,0.3C86.2,166.8,83.5,166.8,80.8,166.8z M84.2,133.8c-7.2-2.2-10.9-6.7-10.2-12.4c0.7-6,5.1-10.2,11-10.5
	c5.5-0.2,10.4,3.8,11.5,9.4c0.6,3.3-0.2,6.4-2.3,9c-2,2.6-4.8,3.9-8,4.4c2.4,0.3,4.7,0.5,7,0.8c3.4,0.4,6.8,1,9.9,2.3
	c4,1.7,6.3,4.6,6.2,9.1c0,0.3-0.2,0.6,0.3,0.8c6.2-11.1,3.6-26.8-8.4-35.4c-11.7-8.4-27.9-6.3-37.3,4.8c-8.5,10-7.6,23.9-2.9,30.7
	c-0.3-4.6,1.7-7.8,5.7-9.8c1.2-0.6,2.5-1,3.8-1.3C74.8,134.6,79.5,134.1,84.2,133.8z M94,153.8c0-1.7,0-3.4,0-5.1
	c0-1.9,1.1-3.2,2.6-3.2c1.5,0,2.5,1.2,2.5,3.1c0,2.6,0,5.2,0,7.8c0,1.3,0.4,1.2,1.2,0.6c1-0.8,2-1.6,3-2.3c0.6-0.4,0.7-1,0.7-1.7
	c0-2.4,0-4.8,0-7.2c0-1.8-0.8-3.1-2.3-3.9c-0.8-0.4-1.7-0.8-2.7-1c-7.4-1.9-14.8-2.3-22.3-1.2c-2.5,0.4-5.1,0.8-7.4,1.7
	c-2.7,1.1-3.4,2.2-3.4,5.1c0,1.2,0.2,2.5,0,3.7c-0.6,3.3,1,5.3,3.7,6.8c0,0,0.1,0.1,0.1,0.1c0.9,0.7,1.2,0.5,1.2-0.7
	c0-2.8,0-5.5,0-8.3c0-1.5,1-2.5,2.3-2.6c1.3-0.1,2.4,0.8,2.7,2.2c0.1,0.5,0.1,1,0.1,1.4c0,3.3,0,6.5,0,9.8c0,1,0.3,1.4,1.2,1.7
	c5.2,1.4,10.4,1.5,15.6,0c1-0.3,1.3-0.7,1.2-1.7C94,157.2,94,155.5,94,153.8z M91.4,122.2c0-3.4-2.8-6.2-6.2-6.2
	c-3.3,0-6.2,3-6.2,6.3c0,3.4,2.8,6.1,6.3,6.1C88.7,128.5,91.4,125.7,91.4,122.2z"/>
<path class="st0" d="M96.9,44.6c0.5-12.5,5.7-22,16.2-28.5c1-0.6,1.4-0.9,0.3-1.8c-0.9-0.7-0.9-1.9-0.3-2.9c0.6-1.1,1.6-1.5,2.9-1.2
	c0.1,0,0.2,0.1,0.3,0.1c3.1,2.6,6.6,1.8,10.2,1.4c15.6-1.8,30.1,7.8,34.7,22.8c3.2,10.5,1.5,20.2-4.8,29.1c-0.6,0.9-0.9,1.7-0.7,2.8
	c0.2,1,0.3,2.2-0.6,3c-0.8,0.8-1.8,1.2-2.8,0.6c-1-0.6-1.5-0.3-2.3,0.3c-19.6,15.3-48.4,4-52.5-20.5C97.2,47.9,97,46.1,96.9,44.6z
	 M154.1,57.5c6.7-12,3.2-27.2-7.7-35.4c-11.1-8.3-26.7-7.1-36.4,2.8c-9.9,10.1-9.3,24.7-4.5,32.2c0.1-0.8,0.1-1.5,0.2-2.1
	c0.1-2.6,1.3-4.6,3.3-6.1c1.7-1.3,3.6-2.1,5.6-2.6c7.3-1.9,14.8-2.4,22.3-1.5c3.7,0.4,7.5,1,11,2.5c3.3,1.4,5.6,3.7,6.1,7.4
	C154.1,55.5,154.1,56.3,154.1,57.5z M115.7,68.1c0-3.2,0-6.1,0-9.1c0-2,1-3.2,2.6-3.1c1.6,0,2.5,1.2,2.5,3.2c0,3.4,0,6.7,0,10.1
	c0,1,0.2,1.5,1.3,1.8c5.1,1.4,10.2,1.5,15.3,0.1c1.1-0.3,1.5-0.8,1.5-2c-0.1-3.1,0-6.3,0-9.4c0-2.5,1-3.8,2.7-3.8
	c1.7,0.1,2.4,1.2,2.4,3.8c0,2.7,0,5.5,0,8.5c1.8-1,3.1-2,4.4-3.2c0.5-0.4,0.6-0.9,0.6-1.5c0-2.5,0-5,0-7.5c0-1.4-0.6-2.4-1.7-3.2
	c-0.9-0.7-2-1.1-3-1.4c-7.7-2-15.4-2.4-23.3-1.2c-2.6,0.4-5.3,0.8-7.7,2.1c-1.6,0.8-2.5,2-2.4,4c0.1,2.4,0,4.8,0,7.2
	c0,0.5-0.1,1.1,0.4,1.5C112.6,66,113.9,67.1,115.7,68.1z"/>
<path class="st0" d="M54.6,14.5c0.3,0.6,0.9,0.7,1.4,0.9c12.4,6.9,19.1,20.9,16.4,34.9c-2.6,13.8-14,24.7-27.9,26.4
	c-8.7,1.1-16.7-0.9-23.8-6.1c-0.4-0.3-0.8-0.5-1.2-0.8c0,0-0.1,0-0.2,0c-0.1,0.1-0.2,0.1-0.2,0.2c-0.3,2-1.3,3.1-2.9,2.9
	c-1.6-0.2-2.6-1.5-2.2-3.4c0.6-3.2-0.4-5.8-2.1-8.6c-12.4-20.5,0.8-46.8,24.6-49.4c5.4-0.6,10.6,0.2,15.7,2.1c0.5,0.2,1,0.6,1.6,0.5
	l0,0C54,14.6,54.3,14.6,54.6,14.5L54.6,14.5z M16,57.6c-0.3-3.7,0.6-6.6,3.3-8.7c1.7-1.3,3.6-2.1,5.6-2.7c8.2-2.1,16.5-2.5,24.9-1.2
	c3.1,0.5,6.3,1,9.2,2.5c3.3,1.7,5.4,4.3,5.4,8.2c0,0.4-0.2,0.9,0.3,1.3c5.2-8.7,4.8-23.7-6-33.3c-10.4-9.3-26.1-9.4-36.5-0.4
	C11.5,32.4,10,47.3,16,57.6z M54.3,68c1.6-0.8,2.6-1.7,3.8-2.6c0.9-0.6,1.1-1.4,1.1-2.4c-0.1-2.4,0-4.8,0-7.2c0-1.5-0.7-2.5-1.9-3.3
	c-0.9-0.5-1.8-0.9-2.8-1.2c-7.7-2.1-15.5-2.4-23.4-1.2c-2.5,0.4-5.1,0.8-7.4,1.9c-1.8,0.9-2.8,2.2-2.7,4.3c0.1,1.6,0.2,3.2,0,4.8
	c-0.4,2.6,0.7,4.4,2.9,5.6c0.6,0.3,1.1,1.2,1.8,0.8c0.6-0.3,0.2-1.2,0.2-1.8c0.1-2.6,0.1-5.1,0.1-7.7c0-1.1,0.8-1.8,1.8-2.2
	c1-0.3,1.8,0,2.5,0.7c0.7,0.7,0.8,1.6,0.8,2.5c0,3.4,0,6.7,0,10.1c0,0.9,0.2,1.4,1.2,1.7c5.2,1.4,10.4,1.5,15.6,0
	c0.9-0.3,1.3-0.7,1.2-1.6c-0.1-3.4,0-6.8,0-10.2c0-2,1-3.2,2.6-3.2c1.6,0,2.5,1.2,2.5,3.2C54.3,61.9,54.3,64.9,54.3,68z"/>
<path class="st0" d="M39.5,127.8c-0.5,0-1,0-1.4-0.3c-1.6-1.3-3.2-2.7-4.5-4.3c-0.8-1-0.7-2.2,0.3-3.2c1-1,2.2-1.2,3.3-0.3
	c1.5,1.3,2.9,2.7,4.2,4.1c0.7,0.8,0.7,1.8,0.2,2.7C41.3,127.4,40.5,127.8,39.5,127.8z"/>
<path class="st0" d="M24,102.6c0.9,0.1,1.7,0.5,2.2,1.4c0.8,1.4,1.6,2.9,2.4,4.3c0.7,1.4,0.3,2.8-0.9,3.5c-1.2,0.7-2.7,0.5-3.5-0.8
	c-1-1.6-1.9-3.2-2.7-4.9C20.8,104.5,22.1,102.6,24,102.6z"/>
<g>
	<path class="st0" d="M60.6,14.3c0.4-0.4-0.2-0.6-0.3-0.9c-0.7-1.5-0.3-2.8,1.1-3.5C63,9,64.7,8.3,66.5,7.7c1.3-0.5,2.4,0,3.1,1.2
		c0.6,1.3,0.4,2.6-0.8,3.2c-2.4,1.1-4.7,2.8-7.6,2.5c0,0,0,0,0,0C61.1,14.2,61,13.9,60.6,14.3L60.6,14.3z"/>
	<path class="st0" d="M82.4,8.8c-1.6,0-2.8-0.9-2.9-2.3c-0.1-1.4,0.9-2.6,2.5-2.8c1.6-0.2,3.2-0.4,4.7-0.5c1.6-0.1,2.8,0.8,3,2.2
		C89.8,6.9,89,8,87.3,8.3C85.7,8.5,84.1,8.6,82.4,8.8z"/>
	<path class="st0" d="M103.3,4c1.3,0.3,3.2,0.6,5.1,1.1c1.3,0.3,1.9,1.7,1.7,2.9c-0.3,1.3-1.5,2.2-2.9,2c-1.8-0.3-3.6-0.6-5.3-1.1
		c-1.4-0.4-2.1-1.6-1.9-2.9C100.1,4.7,101.2,3.9,103.3,4z"/>
</g>
<path class="st0" d="M155.4,84c-0.2,1.1-0.4,2.7-0.7,4.3c-0.3,1.5-1.5,2.4-2.8,2.2c-1.5-0.2-2.4-1.3-2.2-3c0.2-1.6,0.4-3.3,0.8-4.9
	c0.3-1.6,1.5-2.4,2.9-2.3C154.7,80.6,155.6,81.8,155.4,84z"/>
<path class="st0" d="M132.8,125.9c-1.2,0-1.9-0.5-2.4-1.3c-0.5-0.9-0.6-1.8,0.1-2.6c1.4-1.6,2.8-3.1,4.3-4.5
	c0.9-0.8,2.1-0.6,3.1,0.2c0.9,0.8,1.3,1.9,0.6,2.9c-1.2,2-2.9,3.7-4.8,5C133.4,125.8,133,125.8,132.8,125.9z"/>
<path class="st0" d="M21.1,90.4c0,1.7-0.7,2.6-2.1,2.9c-1.4,0.3-2.5-0.3-2.9-1.7c-0.5-1.8-0.9-3.7-1.2-5.6c-0.2-1.4,0.6-2.4,1.9-2.7
	c1.4-0.3,2.5,0.2,2.9,1.6C20.4,86.8,20.7,88.8,21.1,90.4z"/>
<path class="st0" d="M147.2,100c1.9,0,3.2,1.7,2.6,3.3c-0.7,1.8-1.6,3.6-2.6,5.3c-0.7,1.2-2,1.4-3.2,0.8c-1.2-0.6-1.7-1.8-1.2-2.9
	c0.7-1.9,1.7-3.6,2.7-5.4C145.7,100.3,146.5,100,147.2,100z"/>
<path class="st0" d="M141.4,32.7c0,6.3-5.1,11.3-11.3,11.3c-6.3,0-11.4-5.1-11.4-11.4c0-6.2,5.2-11.3,11.5-11.3
	C136.4,21.3,141.4,26.4,141.4,32.7z M136.2,32.5c0-3.4-2.8-6.2-6.2-6.1c-3.4,0-6.1,2.9-6.1,6.3c0,3.4,2.8,6.2,6.2,6.1
	C133.6,38.8,136.3,36,136.2,32.5z"/>
<path class="st0" d="M51.7,32.7c0,6.3-5.2,11.3-11.4,11.3c-6.2,0-11.3-5.2-11.2-11.3c0-6.3,5.1-11.4,11.4-11.4
	C46.7,21.3,51.8,26.4,51.7,32.7z M40.4,26.4c-3.4,0-6.2,2.8-6.2,6.2c0,3.4,2.8,6.2,6.1,6.3c3.4,0.1,6.3-2.8,6.3-6.3
	C46.6,29.2,43.8,26.4,40.4,26.4z"/>
</svg>
