<?xml version="1.0" encoding="utf-8"?>
<!-- Generator: Adobe Illustrator 22.1.0, SVG Export Plug-In . SVG Version: 6.00 Build 0)  -->
<svg version="1.1" id="Layer_1" xmlns="http://www.w3.org/2000/svg" xmlns:xlink="http://www.w3.org/1999/xlink" x="0px" y="0px"
	 width="170px" height="170px" viewBox="0 0 170 170" style="enable-background:new 0 0 170 170;" xml:space="preserve">
<style type="text/css">
	.st0{fill:#f77f3c;}
</style>
<g>
	<path class="st0" d="M112.2,106.3c0-12.9,0-25.8,0-38.7c0-1.7,0.5-2.6,2.1-3.3c8.7-3.6,17.4-7.5,26.1-11.2c7.5-3.2,13.4,0.8,13.4,9
		c0,25.1,0,50.3,0,75.4c0,6.7-3.4,10.1-10.1,10.1c-9.7,0-19.5-0.1-29.2,0c-1.9,0-2.4-0.5-2.3-2.4
		C112.2,132.3,112.2,119.3,112.2,106.3z M148.2,99.7c0-12.7,0-25.3,0-38c0-3.8-1.9-5.1-5.5-3.6c-3.6,1.5-7.2,3.1-10.8,4.5
		c-1.5,0.6-2.1,1.4-2.1,3.1c0.1,10,0,20,0,30c0,14.7,0,29.3,0,44c0,1.9,0.6,2.5,2.4,2.4c3.9-0.1,7.8,0,11.7-0.1
		c3.3-0.1,4.2-1.1,4.2-4.5C148.2,125,148.2,112.3,148.2,99.7z"/>
	<path class="st0" d="M105.9,67.9c0,1.2,0,1.9,0,2.6c0,24.8,0,49.6,0,74.4c0,2-0.4,2.8-2.6,2.7c-4.3-0.2-8.7-0.1-13,0
		c-1.5,0-2.2-0.2-2.2-2c0.1-22.8,0-45.6,0-68.5c0-0.7-0.2-1.5,0.7-1.9C94.5,72.9,100,70.5,105.9,67.9z"/>
	<path class="st0" d="M81.9,113.1c0,10.7,0,21.5,0,32.2c0,1.7-0.4,2.3-2.2,2.3c-4.5-0.1-9-0.1-13.5,0c-1.4,0-2.1-0.2-2.1-1.9
		c0.1-19.4,0-38.8,0-58.2c0-1.3,0.5-1.9,1.6-2.4c4.8-2,9.5-4,14.2-6.1c1.7-0.8,1.9-0.2,1.9,1.4C81.8,91.3,81.9,102.2,81.9,113.1z"/>
	<path class="st0" d="M57.9,118.3c0,9,0,18,0,27c0,1.8-0.4,2.5-2.3,2.4c-4.4-0.2-8.8-0.1-13.2,0c-1.5,0-2.2-0.2-2.2-2
		c0.1-15.9,0.1-31.8,0-47.7c0-1.3,0.5-1.9,1.6-2.4c4.8-2,9.5-4,14.2-6.1c1.7-0.8,2-0.2,1.9,1.4C57.8,99.9,57.9,109.1,57.9,118.3z"/>
	<path class="st0" d="M33.9,123.5c0,7.2-0.1,14.3,0.1,21.5c0.1,2.3-0.7,2.9-2.8,2.7c-1.8-0.2-3.7,0-5.5,0c-5.5,0-9.3-3.4-9.4-8.8
		c-0.2-8.7-0.1-17.3,0-26c0.1-4.2,2.2-7.2,6.1-8.9c3.1-1.3,6.3-2.6,9.4-4.1c1.7-0.8,2.2-0.6,2.2,1.4
		C33.8,108.6,33.9,116.1,33.9,123.5z"/>
	<path class="st0" d="M95.7,22.3c17,0,33.6,0,50.2,0c0.4,0.9-0.4,1.2-0.8,1.7c-7.5,7.6-15.1,15.1-22.6,22.6c-1,1-1.7,1.3-2.8,0.1
		c-7.7-7.8-15.5-15.6-23.3-23.4C96.2,23.2,96.1,23,95.7,22.3z M132.7,28.2c-0.1-0.2-0.2-0.4-0.2-0.4c-7.4-0.1-14.8-0.1-22.1-0.2
		c-1.2,0-1.3,0.6-0.5,1.3c0.6,0.7,1.3,1.3,1.9,1.9c3.2,2.9,5.8,6.4,9.3,8.8c3.4-2.6,6-5.9,9.1-8.8C131.1,30.1,132.2,29.3,132.7,28.2
		z"/>
</g>
</svg>
