<?xml version="1.0" encoding="utf-8"?>
<!-- Generator: Adobe Illustrator 22.1.0, SVG Export Plug-In . SVG Version: 6.00 Build 0)  -->
<svg version="1.1" id="Layer_1" xmlns="http://www.w3.org/2000/svg" xmlns:xlink="http://www.w3.org/1999/xlink" x="0px" y="0px"
	 width="170px" height="170px" viewBox="0 0 170 170" style="enable-background:new 0 0 170 170;" xml:space="preserve">
<style type="text/css">
	.st0{fill:#f77f3c;}
</style>
<g>
	<path class="st0" d="M153.8,100c0,12.4-0.1,24.8,0.1,37.2c0.1,6.4-4.2,10.5-10.5,10.4c-17.5-0.3-35-0.1-52.5,0
		c-2.1,0-2.8-0.3-2.8-2.7c0.1-22.3,0.1-44.6,0-67c0-1.7,0.4-2.6,2.1-3.4c16.7-7.1,33.3-14.3,50-21.4c7.8-3.3,13.7,0.6,13.7,9.1
		C153.9,74.9,153.8,87.4,153.8,100z M148.2,99.9c0-12.7,0-25.3,0-38c0-3.8-2-5.2-5.4-3.7c-11.7,5-23.4,10.1-35.1,15.1
		c-1.3,0.6-1.9,1.3-1.9,2.8c0,21.3,0.1,42.7,0,64c0,1.7,0.6,2.2,2.2,2.2c11.9,0,23.8,0,35.7,0c3.5,0,4.4-1,4.4-4.5
		C148.2,125,148.2,112.4,148.2,99.9z"/>
	<path class="st0" d="M81.8,78.3c0,1.2,0,1.9,0,2.6c0,21.3,0,42.6,0,63.9c0,2.1-0.4,2.9-2.7,2.8c-4.3-0.2-8.7-0.1-13,0
		c-1.4,0-2.1-0.2-2.1-1.9c0.1-19.4,0-38.8,0-58.2c0-0.7-0.2-1.5,0.7-1.9C70.4,83.2,76,80.8,81.8,78.3z"/>
	<path class="st0" d="M57.8,118.2c0,9.1,0,18.1,0,27.2c0,1.7-0.5,2.3-2.2,2.2c-4.5-0.1-9-0.1-13.5,0c-1.4,0-2.1-0.3-2-1.9
		c0.1-15.9,0-31.8,0-47.7c0-1.3,0.4-1.9,1.6-2.4c4.7-2,9.5-4,14.2-6.1c1.9-0.9,2,0,2,1.5C57.8,100,57.8,109.1,57.8,118.2z"/>
	<path class="st0" d="M33.8,123.3c0,7.2-0.1,14.3,0.1,21.5c0.1,2.4-0.8,3-2.9,2.8c-1.8-0.2-3.7,0-5.5,0c-5.2,0-9.1-3.3-9.2-8.5
		c-0.2-8.8-0.1-17.7,0-26.5c0-4.1,2.2-6.9,5.9-8.5c3.3-1.5,6.6-2.8,9.8-4.3c1.6-0.7,2-0.4,1.9,1.3C33.8,108.5,33.8,115.9,33.8,123.3
		z"/>
	<path class="st0" d="M71.8,22.3c16.9,0,33.5,0,50.1,0c0.3,1-0.4,1.3-0.9,1.7c-7.5,7.5-15,15-22.4,22.5c-0.9,0.9-1.5,1.7-2.8,0.4
		C87.9,39,80,31.1,72.2,23.2C72.1,23,72,22.9,71.8,22.3z M97.1,27.6c-3.3,0-6.6,0-10,0c-0.6,0-1.5-0.4-1.8,0.4
		c-0.2,0.6,0.5,1,0.9,1.4c3.2,3.2,6.4,6.3,9.5,9.5c0.9,0.9,1.5,1,2.4,0c3.2-3.3,6.5-6.5,9.7-9.7c0.3-0.3,0.9-0.7,0.7-1.2
		c-0.2-0.7-1-0.4-1.5-0.4C103.8,27.6,100.5,27.6,97.1,27.6z"/>
</g>
</svg>
