<?xml version="1.0" encoding="utf-8"?>
<!-- Generator: Adobe Illustrator 22.1.0, SVG Export Plug-In . SVG Version: 6.00 Build 0)  -->
<svg version="1.1" id="Layer_1" xmlns="http://www.w3.org/2000/svg" xmlns:xlink="http://www.w3.org/1999/xlink" x="0px" y="0px"
	 width="170px" height="170px" viewBox="0 0 170 170" style="enable-background:new 0 0 170 170;" xml:space="preserve">
<style type="text/css">
	.st0{fill:#E3610E;}
</style>
<g>
	<path class="st0" d="M8.3,22.1c17,0,33.8,0,50.7,0c-0.1,0.9-0.8,1.3-1.3,1.8c-7.5,7.5-14.9,15-22.4,22.5c-0.8,0.8-1.4,1.8-2.7,0.4
		c-7.9-8-15.9-15.9-23.8-23.9C8.6,22.7,8.5,22.5,8.3,22.1z M21.9,28.1c3.7,3.7,7.4,7.5,11.2,11.2c0.9,0.9,1.5-0.1,2-0.7
		c3.1-3,6.1-6.1,9.2-9.2c0.4-0.4,1.3-0.8,1-1.5c-0.3-0.7-1.2-0.4-1.8-0.4c-6.5,0-13,0-19.5,0C23.3,27.5,22.6,27.3,21.9,28.1z"/>
	<path class="st0" d="M92.8,147.9c-19.5,0-39,0-58.5,0c-6.8,0-10.3-3.5-10.3-10.3c0-7.8,0-15.7,0-23.5c0-4.9,2.1-8.1,6.6-10.1
		c39.2-16.9,78.3-33.8,117.5-50.7c7.7-3.3,13.6,0.6,13.6,9.1c0,25,0,50,0,75c0,7.1-3.5,10.5-10.6,10.5
		C131.7,147.9,112.2,147.9,92.8,147.9z M98,142.2c17.8,0,35.6,0,53.5,0c3.7,0,4.6-0.9,4.6-4.6c0-25.2,0-50.3,0-75.5
		c0-4.1-1.9-5.4-5.7-3.8c-35.5,15.3-71,30.6-106.5,45.9c-1.6,0.7-2.2,1.6-2.2,3.3c0.1,10.7,0.1,21.3,0,32c0,2,0.5,2.7,2.6,2.7
		C62.2,142.1,80.1,142.2,98,142.2z"/>
</g>
</svg>
