<?xml version="1.0" encoding="utf-8"?>
<!-- Generator: Adobe Illustrator 22.1.0, SVG Export Plug-In . SVG Version: 6.00 Build 0)  -->
<svg version="1.1" id="Layer_1" xmlns="http://www.w3.org/2000/svg" xmlns:xlink="http://www.w3.org/1999/xlink" x="0px" y="0px"
	 width="170px" height="170px" viewBox="0 0 170 170" style="enable-background:new 0 0 170 170;" xml:space="preserve">
<style type="text/css">
	.st0{fill:#f77f3c;}
</style>
<g>
	<path class="st0" d="M105.8,147.6c-13,0-26,0-39,0c-2.1,0-2.7-0.5-2.6-2.6c0.1-19,0.1-38,0-57c0-1.5,0.4-2.3,1.9-3
		c24.8-10.6,49.7-21.3,74.5-32c7.2-3.1,13.4,1.3,13.4,8.9c-0.1,25.3-0.1,50.7,0,76c0,5.4-3.8,9.8-9.6,9.7
		C131.4,147.4,118.6,147.6,105.8,147.6z M148.2,99.8c0-12.6,0-25.2,0-37.7c0-4.2-1.9-5.5-5.7-3.8C123,66.6,103.5,75,84.1,83.3
		c-1.6,0.7-2.3,1.4-2.2,3.3c0.1,17.7,0.1,35.3,0,53c0,1.9,0.5,2.6,2.5,2.6c19.7-0.1,39.5,0,59.2,0c3.6,0,4.6-1.1,4.6-4.6
		C148.2,124.9,148.2,112.4,148.2,99.8z"/>
	<path class="st0" d="M57.9,118.3c0,9,0,18,0,27c0,1.7-0.5,2.3-2.2,2.3c-4.5-0.1-9-0.1-13.5,0c-1.5,0-2-0.4-2-2
		c0.1-15.9,0-31.8,0-47.7c0-1.3,0.4-1.9,1.6-2.4c4.7-1.9,9.3-3.9,14-6c1.7-0.8,2.2-0.6,2.2,1.4C57.8,100,57.9,109.2,57.9,118.3z"/>
	<path class="st0" d="M33.9,98.8c0,5.4,0,10.3,0,15.2c0,10.3,0,20.6,0,31c0,1.9-0.4,2.7-2.4,2.6c-2-0.2-4-0.2-6,0
		c-5,0.4-9.2-3.7-9.2-8.7c-0.1-8.7-0.1-17.5,0-26.2c0-3.4,1.5-6.4,4.7-8C25,102.6,29.2,100.9,33.9,98.8z"/>
	<path class="st0" d="M47.4,22.4c17.2,0,34,0,50.9,0c-0.1,1-0.8,1.3-1.3,1.8c-7.3,7.4-14.8,14.7-22,22.1c-1.6,1.7-2.4,1.5-3.9-0.1
		c-7.3-7.4-14.7-14.7-22-22.1C48.6,23.6,48.1,23.1,47.4,22.4z M84.7,28.4c-0.1-1.1-1-0.8-1.5-0.8c-6.7,0-13.5,0-20.2,0
		c-0.5,0-1.1-0.2-1.4,0.3c-0.4,0.7,0.3,1,0.7,1.4c3.2,3.2,6.4,6.3,9.5,9.6c1,1,1.7,1,2.6,0c3.1-3.2,6.3-6.4,9.5-9.6
		C84.2,29,84.4,28.7,84.7,28.4z"/>
</g>
</svg>
