<?xml version="1.0" encoding="utf-8"?>
<!-- Generator: Adobe Illustrator 22.1.0, SVG Export Plug-In . SVG Version: 6.00 Build 0)  -->
<svg version="1.1" id="Layer_1" xmlns="http://www.w3.org/2000/svg" xmlns:xlink="http://www.w3.org/1999/xlink" x="0px" y="0px"
	 width="170px" height="170px" viewBox="0 0 170 170" style="enable-background:new 0 0 170 170;" xml:space="preserve">
<style type="text/css">
	.st0{fill:#f77f3c;}
</style>
<g>
	<path class="st0" d="M93.8,147.6c-16.8,0-33.7,0-50.5,0.1c-2.5,0-3.2-0.7-3.2-3.2c0.1-15.3,0.1-30.7,0-46c0-1.7,0.4-2.5,2-3.2
		c32.7-14,65.4-28.1,98.1-42.1c4.9-2.1,8.8-1.4,11.6,2c1.6,1.9,2,4.2,2,6.5c0,25.4,0,50.8,0,76.2c0,5.4-3.4,9.8-9.9,9.7
		C127.3,147.5,110.5,147.6,93.8,147.6z M102.1,142.2c13.7,0,27.5,0,41.2,0c3.9,0,4.8-0.9,4.8-4.9c0-25.1,0-50.2,0-75.2
		c0-4.4-1.7-5.5-5.8-3.7c-27.5,11.8-55,23.7-82.5,35.4c-1.6,0.7-2,1.5-2,3.2c0.1,14.2,0.1,28.3,0,42.5c0,2.2,0.6,2.8,2.8,2.8
		C74.4,142.1,88.3,142.2,102.1,142.2z"/>
	<path class="st0" d="M33.9,123.5c0,7.3,0,14.6,0,22c0,1.6-0.4,2.3-2.1,2.2c-2.2-0.1-4.5,0-6.7-0.1c-5.3-0.2-8.7-3.5-8.8-8.8
		c-0.2-8.6-0.1-17.3,0-26c0.1-4.1,2-7.3,6.1-8.9c3.2-1.3,6.3-2.6,9.4-4.1c1.7-0.8,2.3-0.6,2.2,1.4C33.8,108.7,33.9,116.1,33.9,123.5
		z"/>
	<path class="st0" d="M23.6,22.3c17,0,33.8,0,50.7,0c-0.1,0.9-0.8,1.3-1.3,1.8c-7.5,7.5-14.9,15-22.4,22.5c-0.8,0.8-1.4,1.8-2.7,0.4
		C40,39,32,31,24,23.1C23.9,22.9,23.8,22.7,23.6,22.3z M37.2,28.3c3.7,3.7,7.4,7.5,11.2,11.2c0.9,0.9,1.5-0.1,2-0.7
		c3.1-3,6.1-6.1,9.2-9.2c0.4-0.4,1.3-0.8,1-1.5c-0.3-0.7-1.2-0.4-1.8-0.4c-6.5,0-13,0-19.5,0C38.7,27.6,37.9,27.5,37.2,28.3z"/>
</g>
</svg>
