<?xml version="1.0" encoding="utf-8"?>
<!-- Generator: Adobe Illustrator 22.1.0, SVG Export Plug-In . SVG Version: 6.00 Build 0)  -->
<svg version="1.1" id="Layer_1" xmlns="http://www.w3.org/2000/svg" xmlns:xlink="http://www.w3.org/1999/xlink" x="0px" y="0px"
	 width="170px" height="170px" viewBox="0 0 170 170" style="enable-background:new 0 0 170 170;" xml:space="preserve">
<style type="text/css">
	.st0{fill:#f77f3c;}
</style>
<g>
	<path class="st0" d="M98.6,67.9c0,1.2,0,1.9,0,2.6c0,24.8,0,49.6,0,74.4c0,2-0.4,2.8-2.6,2.7c-4.3-0.2-8.7-0.1-13,0
		c-1.5,0-2.2-0.2-2.2-2c0.1-22.8,0-45.6,0-68.5c0-0.7-0.2-1.5,0.7-1.9C87.2,72.9,92.7,70.5,98.6,67.9z"/>
	<path class="st0" d="M74.6,113.1c0,10.7,0,21.5,0,32.2c0,1.7-0.4,2.3-2.2,2.3c-4.5-0.1-9-0.1-13.5,0c-1.4,0-2.1-0.2-2.1-1.9
		c0.1-19.4,0-38.8,0-58.2c0-1.3,0.5-1.9,1.6-2.4c4.8-2,9.5-4,14.2-6.1c1.7-0.8,1.9-0.2,1.9,1.4C74.6,91.3,74.6,102.2,74.6,113.1z"/>
	<path class="st0" d="M50.6,118.3c0,9,0,18,0,27c0,1.8-0.4,2.5-2.3,2.4c-4.4-0.2-8.8-0.1-13.2,0c-1.5,0-2.2-0.2-2.2-2
		c0.1-15.9,0.1-31.8,0-47.7c0-1.3,0.5-1.9,1.6-2.4c4.8-2,9.5-4,14.2-6.1c1.7-0.8,2-0.2,1.9,1.4C50.6,99.9,50.6,109.1,50.6,118.3z"/>
	<path class="st0" d="M26.6,123.5c0,7.2-0.1,14.3,0.1,21.5c0.1,2.3-0.7,2.9-2.8,2.7c-1.8-0.2-3.7,0-5.5,0c-5.5,0-9.3-3.4-9.4-8.8
		c-0.2-8.7-0.1-17.3,0-26c0.1-4.2,2.2-7.2,6.1-8.9c3.1-1.3,6.3-2.6,9.4-4.1c1.7-0.8,2.2-0.6,2.2,1.4
		C26.6,108.6,26.6,116.1,26.6,123.5z"/>
	<path class="st0" d="M110.8,22.3c17,0,33.6,0,50.2,0c0.4,0.9-0.4,1.2-0.8,1.7c-7.5,7.6-15.1,15.1-22.6,22.6c-1,1-1.7,1.3-2.8,0.1
		c-7.7-7.8-15.5-15.6-23.3-23.4C111.3,23.2,111.2,23,110.8,22.3z M147.9,28.2c-0.1-0.2-0.2-0.4-0.2-0.4c-7.4-0.1-14.8-0.1-22.1-0.2
		c-1.2,0-1.3,0.6-0.5,1.3c0.6,0.7,1.3,1.3,1.9,1.9c3.2,2.9,5.8,6.4,9.3,8.8c3.4-2.6,6-5.9,9.1-8.8C146.3,30.1,147.3,29.3,147.9,28.2
		z"/>
	<g>
		<path class="st0" d="M122.7,140.7c-0.1-0.3-0.1-0.6-0.1-1c0.1-14.7,0-29.3,0-44c0-10,0-20,0-30c0-0.4,0-0.7,0.1-1v-7.2
			c-5.2,2.2-10.4,4.5-15.6,6.7c-1.7,0.7-2.2,1.6-2.1,3.3c0.1,12.9,0,25.8,0,38.7c0,13,0,26,0,39c0,1.9,0.5,2.4,2.3,2.4
			c5.1-0.1,10.3-0.1,15.4-0.1V140.7z"/>
		<path class="st0" d="M146.6,64.7c0-0.7,0-1.5,0-2.6c0,0,0,0,0,0c0-8.2-5.9-12.1-13.4-9c-1.4,0.6-2.8,1.2-4.3,1.8v6c0,0,0,0,0,0
			c0,21.9,0,58.4,0,81.2c0,0,0,0,0,0v5.5c0.5,0,0.9,0,1.4,0c0.2,0,0.5,0,0.8,0c0.6,0,1.2,0,1.8,0c1.2,0,2.4,0,3.5,0
			c0.5,0,0.9,0,1.3-0.1c2.1,0,4.2,0,6.3,0.1c2.2,0.1,2.6-0.6,2.6-2.7C146.6,120.2,146.6,89.5,146.6,64.7z"/>
	</g>
</g>
</svg>
