<?xml version="1.0" encoding="utf-8"?>
<!-- Generator: Adobe Illustrator 22.1.0, SVG Export Plug-In . SVG Version: 6.00 Build 0)  -->
<svg version="1.1" id="Layer_1" xmlns="http://www.w3.org/2000/svg" xmlns:xlink="http://www.w3.org/1999/xlink" x="0px" y="0px"
	 width="170px" height="170px" viewBox="0 0 170 170" style="enable-background:new 0 0 170 170;" xml:space="preserve">
<style type="text/css">
	.st0{fill:#E3610E;}
</style>
<g>
	<path class="st0" d="M60.7,126.4c-0.1-1.2-1-1.7-1.7-2.4c-10.6-11.7-19.3-24.7-23.6-40.1c-3.3-11.8-4.4-23.6-1.3-35.7
		c5-19.7,23.8-35.9,44-38c18.9-2,34.8,4,47.3,18.3c7.1,8.2,11.2,17.9,12,28.7c1.6,20-4.8,37.7-16,53.9c-3.3,4.8-7,9.3-11.1,13.5
		c-1.5,1.6-1.2,1.9,0.8,2.3c5.3,0.9,10.5,2.3,15.6,4.3c2.7,1,5.1,2.4,7.3,4.2c5,4.2,5,9.9,0,14.1c-4.1,3.4-9,5-13.9,6.5
		c-13.5,3.9-27.4,4.5-41.3,4.1c-11-0.3-21.9-1.6-32.4-5.2c-3.4-1.2-6.7-2.6-9.6-4.7c-6.1-4.6-6.1-11,0.1-15.5
		c3.7-2.7,7.9-4.2,12.2-5.5C52.9,128.1,56.8,127.3,60.7,126.4z M37.8,62.9c0.1,10.1,2.2,19.8,6.3,29c8.5,19.1,22.3,33.7,38.9,45.9
		c1.4,1,2.4,1,3.7,0c15.6-11.5,28.8-24.9,37.4-42.5c6.2-12.7,9.3-26,7.3-40.1c-3.6-25.8-28.3-44.8-56.4-38.9
		C52.4,21.1,37.6,40.1,37.8,62.9z M84.5,154.8c11.7-0.1,22.9-0.9,33.9-4c4.1-1.2,8.1-2.5,11.6-5.1c2.9-2.2,2.9-4.2,0-6.4
		c-1.1-0.8-2.4-1.6-3.7-2.1c-6.4-2.9-13.2-4.3-20.1-5.4c-1.6-0.3-2.8,0-4,1.2c-4.7,4.3-9.7,8.3-15.1,11.8c-1.5,1-2.6,0.9-4.1,0
		c-5-3.3-9.8-6.9-14.2-11c-1.8-1.7-3.5-2.5-6-1.8c-2.1,0.6-4.3,0.7-6.4,1.2c-5.5,1.3-11,2.6-15.8,5.8c-3.7,2.4-3.7,4.7,0,7.3
		c2.4,1.6,5,2.7,7.6,3.6C60.1,153.7,72.4,154.6,84.5,154.8z"/>
	<path class="st0" d="M91.1,56.1c6.5,1.8,8.2,6.4,8.3,12.2c0.1,4.5,0.7,8.9,1,13.4c0.2,3.5-1,5.2-4.3,6.4c-1.4,0.5-1.6,1.3-1.8,2.5
		c-0.8,6.7-1.6,13.4-2.4,20c-0.1,1.3-0.5,1.9-1.9,1.9c-3.3-0.1-6.7,0-10,0c-1.3,0-1.8-0.5-2-1.9c-0.7-6.9-1.6-13.9-2.4-20.8
		c-0.1-1.2-0.6-1.7-1.7-2.1c-3.2-1.1-4.6-3-4.4-6.4c0.4-5.9,0.9-11.8,1.6-17.6c0.4-3.5,2.7-5.8,5.9-7.1c1.4-0.6,2-0.8,0.6-2.2
		c-3.4-3.7-3.9-8.1-1.6-12.2c2.1-3.7,6.5-5.9,10.6-5.1c4.6,0.8,7.9,4.3,8.6,9.2C95.6,49.5,94.6,51.9,91.1,56.1z M85.1,61.5
		c-0.8,0-1.7,0-2.5,0c-4.6,0-5.9,1.3-6.2,5.8c-0.3,4.1-0.5,8.3-1.2,12.4c-0.4,2.4,0.3,3.3,2.6,3.2c2-0.1,2.9,0.9,3.1,2.9
		c0.6,6.2,1.4,12.4,2.1,18.6c0.2,1.4,0,2.9,2.2,2.8c2.1,0,1.9-1.4,2-2.7c0.7-6.1,1.5-12.2,2.1-18.3c0.2-2.4,1-3.7,3.7-3.3
		c1.7,0.3,2.3-0.6,2.1-2.4c-0.4-3.5-0.6-7.1-0.9-10.7C93.5,62.1,92.9,61.5,85.1,61.5z M89.6,47.5c0-2.5-2-4.5-4.5-4.6
		c-2.7-0.1-4.8,2-4.8,4.6c0,2.5,2.1,4.6,4.5,4.7C87.4,52.3,89.6,50.1,89.6,47.5z"/>
</g>
</svg>
