<?xml version="1.0" encoding="utf-8"?>
<!-- Generator: Adobe Illustrator 25.1.0, SVG Export Plug-In . SVG Version: 6.00 Build 0)  -->
<svg version="1.1" id="Layer_1" xmlns="http://www.w3.org/2000/svg" xmlns:xlink="http://www.w3.org/1999/xlink" x="0px" y="0px"
	 viewBox="0 0 170 170" style="enable-background:new 0 0 170 170;" xml:space="preserve">
<style type="text/css">
	.st0{fill:#F77F3C;}
</style>
<path class="st0" d="M64.1,112.2c-14.6,0-29.3,0-43.9,0c-5.9,0-9.6-3.7-9.6-9.6c0-21.4,0-42.8,0-64.2c0-5.8,3.8-9.5,9.5-9.5
	c5.1,0,10.2-0.1,15.2,0c1.8,0.1,2.1-0.5,2-2.1c-0.1-2.3-0.1-4.6,0-6.9c0.1-4.9,4-8.9,8.9-8.9c12,0,23.9,0,35.9,0
	c4.8,0,8.7,4,8.8,8.8c0,2.4,0.1,4.7,0,7.1c-0.1,1.8,0.5,2.1,2.1,2c5.1-0.1,10.3,0,15.4,0c5.4,0,9.2,3.9,9.2,9.3
	c0,21.6,0,43.1,0,64.7c0,5.5-3.8,9.3-9.3,9.3C93.6,112.2,78.8,112.2,64.1,112.2z M64.1,106.2c14.5,0,29,0,43.5,0
	c3.3,0,4.1-0.9,4.1-4.2c0-21,0-42,0-63c0-0.4,0-0.7,0-1.1c-0.1-1.8-1.2-3-3.1-3c-5.6,0-11.2,0-16.7,0c-0.8,0-1,0.3-1,1.1
	c0.1,1.7,0,3.5,0,5.2c0,2.7,0,2.7,2.7,2.7c3.6,0,6.2,2.6,6.2,6.2c0,5.8,0,11.7,0,17.5c0,3.5-2.6,6.1-6.1,6.1c-3.9,0-7.8,0-11.7,0
	c-3.4,0-6-2.6-6-6c0-5.9,0-11.8,0-17.7c0-2.7,1.5-4.7,4-5.7c1.2-0.5,2.4-0.4,3.7-0.3c1.1,0.1,1.3-0.3,1.3-1.4c0-7.4,0-14.8,0-22.1
	c0-2.2-1.2-3.3-3.3-3.3c-11.7,0-23.3,0-35,0c-2.2,0-3.3,1.1-3.3,3.3c0,2.3,0.1,4.6,0,6.9c-0.1,1.4,0.3,1.7,1.7,1.7
	c9.9-0.1,19.8,0,29.7,0c0.6,0,1.1-0.1,1.7,0c1.6,0.3,2.6,1.3,2.6,2.9c0,1.6-1,2.6-2.6,2.9c-0.6,0.1-1.2,0-1.9,0c-18,0-35.9,0-53.9,0
	c-3.2,0-4.1,0.9-4.1,4.1c0,21.1,0,42.1,0,63.2c0,3.3,0.9,4.1,4.2,4.1C35.2,106.2,49.6,106.2,64.1,106.2z M93.9,58.8c0-2.7,0-5.3,0-8
	c0-0.9-0.3-1.1-1.1-1.1c-3.2,0.1-6.4,0.1-9.7,0c-0.9,0-1.1,0.3-1.1,1.1c0,5.2,0,10.4,0,15.6c0,0.9,0.3,1.1,1.1,1.1
	c3.2-0.1,6.4-0.1,9.7,0c0.9,0,1.2-0.3,1.1-1.1C93.9,63.9,93.9,61.3,93.9,58.8z"/>
<path class="st0" d="M38.3,124.2c4.4,7.9,3.4,15.2-2.6,20.2c-5.5,4.6-13.2,4.7-18.8,0.1c-6.1-5-7.1-12.3-2.7-20.4
	c-1.9,0-3.6,0-5.4,0c-2.9,0-4.3-0.9-4.3-2.9c0-2,1.4-3,4.2-3c33.1,0,66.2,0,99.3,0c7.3,0,13-4.2,14.9-10.8c0.5-1.7,0.6-3.4,0.6-5.1
	c0-20.1,0-40.3,0-60.4c0-5.6,2.6-8.8,8.1-9.8c0.7-0.1,0.8-0.4,0.9-1c0.8-3.3,3-5,6.4-5c6.6,0,13.3,0,19.9,0c3.9,0,6.3,2.5,6.4,6.4
	c0,1.6,0,3.2,0,4.8c0,4.2-2.4,6.6-6.5,6.6c-6.6,0-13.1,0-19.7,0c-3.4,0-5.7-1.7-6.4-5c-0.3-1.3-0.8-1-1.4-0.6
	c-1.2,0.6-1.6,1.7-1.6,3.1c0,3.4,0,6.8,0,10.2c0,16.9,0,33.8,0,50.8c0,12.6-8.5,21.4-21.1,21.8c-0.1,0-0.2,0.1-0.5,0.1
	c2.5,3.9,3.6,8,2.4,12.5c-0.9,3.4-2.8,6.2-5.7,8.3c-5.6,4.2-13,3.8-18.3-0.7c-5.8-5-6.7-12-2.4-20.1
	C68.8,124.2,53.6,124.2,38.3,124.2z M35.2,133c0-4.8-4-8.9-8.8-9c-4.9-0.1-9,4.1-9.1,8.9c0,4.8,4.2,9,9,9
	C31.2,141.9,35.2,137.8,35.2,133z M87.1,132.9c0,4.8,3.9,8.9,8.7,9c4.9,0.1,9-4,9.1-8.9c0.1-4.8-4.1-9-9-9
	C91.2,124.1,87.2,128.1,87.1,132.9z M149.1,31.8c-2.1,0-4.2,0-6.3,0c-4.2,0-4.2,0-4.2,4.3c0,1.3,0.2,1.7,1.6,1.6
	c4.9-0.1,9.8,0,14.7,0c4.7,0,4.7,0,4.6-4.7c0-1.2-0.4-1.3-1.4-1.3C155,31.9,152,31.8,149.1,31.8z"/>
</svg>
