<?xml version="1.0" encoding="utf-8"?>
<!-- Generator: Adobe Illustrator 25.1.0, SVG Export Plug-In . SVG Version: 6.00 Build 0)  -->
<svg version="1.1" id="Layer_1" xmlns="http://www.w3.org/2000/svg" xmlns:xlink="http://www.w3.org/1999/xlink" x="0px" y="0px"
	 viewBox="0 0 170 170" style="enable-background:new 0 0 170 170;" xml:space="preserve">
<style type="text/css">
	.st0{fill:#F77F3C;}
</style>
<path class="st0" d="M7.2,87.1c0.6-0.9,0.6-2,0.9-3c1.6-5,4.2-9.4,8.4-12.7c2.8-2.1,5.4-4.3,8.4-6.7c-2.8-0.6-5.4-1.1-8-1.6
	c-1.8-0.4-2.4-1.1-2.4-2.9c0-2.2,0-4.4,0-6.5c0-1.8,0.9-2.7,2.7-2.7c3.8,0,7.7,0,11.5,0c1.9,0,2.7,0.9,2.8,2.8c0,1.1,0,2.2,0,3.6
	c1.7-1.9,2.9-3.9,3.9-5.9c1.5-3,2.8-6.2,4.3-9.2c3.4-6.9,9.1-10.7,16.8-10.7c19-0.1,38.1-0.1,57.1,0c7.7,0,13.3,3.8,16.8,10.7
	c2,4,3.5,8.3,5.9,12.1c0.6,1,1.3,1.9,2.2,3.2c0-1.6,0-2.8,0-4c0-1.8,0.9-2.7,2.7-2.7c3.8,0,7.7,0,11.5,0c1.8,0,2.7,0.9,2.7,2.7
	c0,2.2,0,4.5,0,6.7c0,1.6-0.8,2.4-2.3,2.7c-2.6,0.5-5.2,1.1-7.9,1.6c0,0.6,0.5,0.7,0.9,1c2.4,1.9,4.7,3.8,7.1,5.7
	c6.2,5.1,9.4,11.6,9.4,19.6c0,13.1,0,26.2,0,39.3c0,5.4-3.3,8.4-9,8.1c-5.4-0.3-10.8-0.4-16.1,0c-5.4,0.4-8.8-2.7-8.9-7.8
	c0-1.4,0.6-3.3-0.3-4.1c-0.8-0.7-2.6-0.2-4-0.2c-27.2,0-54.4,0-81.6,0c-1.3,0-1.8,0.2-1.7,1.7c0.1,1.6,0.2,3.2-0.2,4.8
	c-0.8,3.3-3.6,5.6-7,5.6c-6.5,0-13.1,0.1-19.6,0c-3.1,0-5.3-1.6-6.7-4.5c-0.2-0.3-0.1-0.8-0.6-1V87.1z M12.4,87.2
	c-0.6,3.1-0.2,6-0.3,8.9c-0.1,1,0.3,1.2,1.2,1.1c3.6-0.1,7.3-0.1,10.9,0c3.8,0.1,7.1,1.5,9.9,4c1.1,1,1.1,2.4,0.3,3.4
	c-0.9,1-2.4,1.2-3.4,0.3c-3.1-2.9-6.9-3-10.8-2.8c-0.3,0-0.7-0.2-0.8,0.4c-0.4,3.4,0.8,6.7,4.9,6.9c2.3,0.1,4.6,0,6.8,0
	c1.8,0,2.8,1,2.8,2.5c0,1.4-1.1,2.3-2.8,2.4c-2.4,0-4.8,0-7.1,0c-4.2-0.1-7.8-2.9-9.1-6.8c-0.4-1.3-0.5-2.7-0.4-4.1
	c0.1-0.9-0.1-1.4-1.2-1.3c-0.9,0-1.3,0.1-1.3,1.2c0.1,3.6,0,7.3,0,10.9c0,4.1,3.2,7.3,7.3,7.3c5.4,0,10.8,0,16.2,0
	c0.7,0,1.1-0.2,1.6-0.7c1.5-1.5,3-3,4.5-4.5c3.1-3,6.7-4.6,11-4.6c21.1,0,42.1,0,63.2,0c4.3,0,8,1.6,11,4.6c1.5,1.5,3,2.9,4.4,4.4
	c0.5,0.6,1.1,0.8,1.9,0.8c5.7,0,11.3,0,17,0c4.5,0,7.6-3.1,7.6-7.6c0-3.5,0-7,0-10.5c0-1-0.2-1.4-1.3-1.4c-1.1,0-1.3,0.4-1.2,1.3
	c0,0.3,0,0.7,0,1.1c-0.1,5.6-4.3,9.8-9.8,9.8c-2.3,0-4.6,0-6.8,0c-1.7,0-2.7-0.9-2.8-2.4c0-1.5,1.1-2.5,2.8-2.5c2.1,0,4.2-0.1,6.2,0
	c3.3,0.2,6.1-2,5.5-6.8c0-0.4-0.1-0.5-0.5-0.6c-3.8-0.1-7.6-0.2-10.8,2.6c-1.3,1.2-2.8,1.1-3.7,0c-0.9-1.1-0.7-2.6,0.6-3.7
	c2.8-2.3,6-3.6,9.7-3.7c3.6,0,7.3,0,10.9,0c0.8,0,1-0.2,1-1c-0.1-2.1,0-4.2,0-6.2c0-0.9,0-1.8-0.4-2.6c-2.7,2-4.1,2.5-7.4,2.5
	c-5,0-9.9-0.1-14.9,0.1c-3.3,0.1-6.2-0.2-8.2-3.2c-0.4-0.6-0.8-0.6-1.3,0c-0.4,0.5-0.9,0.8-1.3,1.3c-1.2,1.5-2.7,2-4.6,2
	c-8.4-0.1-16.8,0-25.2-0.1c-0.9,0-1.5,0.2-2.1,0.9c-1.8,1.9-3.6,3.7-5.5,5.5c-1.4,1.3-2.6,1.3-4,0c-1.8-1.7-3.5-3.5-5.2-5.3
	c-0.7-0.8-1.4-1.1-2.5-1.1c-7.6,0-15.3-0.1-22.9,0.1c-3.2,0.1-6-0.3-7.9-3.2C44,86.1,43.6,86,43,86.7c-0.4,0.5-1,0.9-1.4,1.4
	c-1.1,1.4-2.5,1.8-4.2,1.8c-5.7-0.1-11.4-0.1-17.2,0C17.4,89.9,14.8,89.4,12.4,87.2z M25,71c2.8,1.1,5.2,2.2,7.7,3.1
	c6.1,2.1,12,4.6,16,10c0.6,0.8,1.3,0.9,2.2,0.9c8.7,0,17.4,0,26.1,0c1.2,0,2.1,0.4,3,1.2c1.4,1.5,2.9,2.8,4.3,4.3
	c0.6,0.6,0.9,0.7,1.5,0c1.3-1.4,2.8-2.8,4.2-4.2c0.9-1,1.9-1.4,3.2-1.3c8.7,0,17.4,0,26.1,0c0.8,0,1.5-0.1,2-0.8
	c3.8-4.9,8.9-7.8,14.7-9.6c0.3-0.1,0.6-0.2,0.8-0.3c2.7-1.1,5.4-2.2,8.3-3.3c-3.7-2.7-6.8-5.6-9.4-9.1c-0.7-0.9-1.4-1.2-2.5-1.2
	c-32.1,0-64.2,0-96.3,0c-0.3,0-0.5,0-0.8,0c-0.5-0.1-0.9,0.1-1.3,0.6C32.1,64.9,28.9,68.1,25,71z M38.8,55.5h92.5
	c-2.1-3.9-3.6-7.9-5.6-11.7c-2.4-4.6-7.2-7.5-12.4-7.5c-19.1-0.1-38.2-0.1-57.2,0c-5.3,0-9.3,2.7-11.7,7.3
	C42.4,47.4,40.9,51.6,38.8,55.5z M43.7,121.3c27.2,0,54.3,0,81.4,0c-2.6-3.3-5.9-4.8-10.1-4.8c-20.5,0.1-41.1,0.1-61.6,0
	C49.4,116.5,46.3,118.1,43.7,121.3z M12.1,123.8c0,0.7,0,1.2,0,1.7c0,1.9,0,3.7,0,5.6c0,1.5,1,2.4,2.6,2.4c6.4,0,12.8,0,19.1,0
	c1.6,0,2.5-1,2.6-2.6c0-1.2-0.1-2.3,0-3.5c0.1-1-0.2-1.3-1.2-1.3c-4.9,0.1-9.8,0-14.7,0C17.5,126.4,14.8,125.7,12.1,123.8z
	 M157.9,123.8c-2.7,2-5.5,2.6-8.5,2.5c-3.8-0.1-7.6,0-11.4,0c-4.9,0-5,0-4.4,5c0.2,1.4,1,2.2,2.4,2.2c6.5,0,12.9,0,19.4,0
	c1.4,0,2.4-1,2.4-2.4C158,128.8,157.9,126.5,157.9,123.8z M142,85c2.8,0,5.7,0,8.5,0c1,0,1.9-0.1,2.8-0.6c1.8-1,2.3-2.9,1.2-4.7
	c-1.2-1.8-2.6-3.3-4.3-4.6c-0.4-0.3-0.8-0.6-1.4-0.4c-6.1,2.4-12.2,4.9-18.2,7.3c-0.3,0.1-0.7,0.2-0.6,0.7c0.2,0.7,2.4,2.2,3.2,2.2
	C136.1,85,139.1,85,142,85z M28.1,85c2.5,0,5.1-0.1,7.6,0c1.6,0.1,2.8-0.4,3.8-1.6c0.7-0.7,0.9-1.1-0.2-1.5
	c-5.9-2.3-11.8-4.7-17.7-7.1c-0.7-0.3-1.1-0.2-1.6,0.2c-1.7,1.3-3.2,2.8-4.3,4.6c-1.1,1.7-0.8,3.2,0.9,4.4c0.9,0.6,1.9,0.9,3,0.9
	C22.3,85,25.2,85,28.1,85z M26.7,58c0-0.3,0-0.6,0-0.9c0.2-1.1-0.3-1.3-1.3-1.3c-1.6,0.1-3.2,0-4.8,0c-0.5,0-1.3-0.3-1.1,0.7
	c0.2,0.8-0.9,2.1,0.9,2.4c1.4,0.2,2.9,0.6,4.3,0.9C26.7,60.2,26.7,60.2,26.7,58z M143.3,57.9c0,0.5,0,1,0,1.5c0,0.5,0.1,0.8,0.7,0.6
	c2-0.4,4.1-0.7,6.1-1.3c1.2-0.3,0.4-1.5,0.6-2.3c0.2-0.9-0.6-0.6-1-0.6c-1.4,0-2.8,0-4.2,0C143.3,55.9,143.3,55.9,143.3,57.9z"/>
</svg>
