<?xml version="1.0" encoding="utf-8"?>
<!-- Generator: Adobe Illustrator 25.1.0, SVG Export Plug-In . SVG Version: 6.00 Build 0)  -->
<svg version="1.1" id="Layer_1" xmlns="http://www.w3.org/2000/svg" xmlns:xlink="http://www.w3.org/1999/xlink" x="0px" y="0px"
	 viewBox="0 0 100 100" style="enable-background:new 0 0 100 100;" xml:space="preserve">
<style type="text/css">
	.st0{fill:#0E8388;}
	.st1{fill:#FFFFFF;}
</style>
<g>
	<circle class="st0" cx="50" cy="50" r="45"/>
	<g>
		<path class="st1" d="M38.8,57.6l4.8,2.2l1.1,7.7c0.2,1.6,1.6,2.7,3.1,2.7c0.1,0,0.3,0,0.5,0c1.7-0.2,2.9-1.8,2.7-3.6l-1.4-9.4
			c-0.2-1.1-0.8-2-1.8-2.4l-5-2.3c0,0,0,0,0-0.1l0-5.9c-2.9-4.3-2.3-9.7-2-11.5l-6.3-0.5c0.1,2.1,0,6.6-2.5,9.9l0,2.3l-2.5-3
			l1.3-0.7c2-3,2-7,1.9-8.6l-2.2-0.2c-0.9-0.1-1.6,0.5-1.8,1.4l-0.4,2.7l-4.2,2.3c-0.7,0.4-1.2,1.1-1.4,1.9
			c-0.2,0.8,0.1,1.6,0.6,2.2l6.3,7.6c0.5,0.7,1.3,1,2.1,1c0.1,0,0.3,0,0.4-0.1c0,0.1,0,0.3,0.1,0.4c0,0.1,0,0.2,0,0.3l0.8,9.7
			l-1.9,9.7c-0.3,1.7,0.8,3.4,2.5,3.7c0.2,0,0.4,0.1,0.6,0.1c1.5,0,2.8-1,3.1-2.5l2-10.1c0.1-0.3,0.1-0.6,0-0.9L38.8,57.6
			C38.8,57.6,38.8,57.6,38.8,57.6z"/>
		<path class="st1" d="M44,45l2.8,2.2c0.5,0.4,1.1,0.6,1.7,0.6c0.1,0,0.2,0,0.3,0l7.1-0.8l-2.4,19.5c-0.1,0.7,0.4,1.4,1.2,1.5
			c0.1,0,0.1,0,0.2,0c0.7,0,1.3-0.5,1.3-1.2l2.4-20.3c1.1-0.4,1.8-1.6,1.7-2.8c-0.1-0.8-0.5-1.5-1.1-1.9l0.1-1.2l4,1.3
			c2.1,0.7,4.4,1,6.6,0.7l3.7-0.4c0.6-0.1,1.1-0.5,1.1-1.1l0.9-7.8c0-0.4-0.1-0.8-0.4-1c-0.3-0.3-0.6-0.4-1-0.4l-1.6,0.2
			c-3.2,0.3-6.5-0.3-9.3-1.9l-2.7-1.5l0.1-0.5c0.1-0.7-0.4-1.4-1.2-1.5c-0.7-0.1-1.4,0.4-1.5,1.2l-1.6,13.5l-7.2,0.8l-3.1-2.4
			l0.6-2.3c0.1-0.5,0-1-0.2-1.4c-0.3-0.4-0.7-0.7-1.2-0.7l-2.6-0.2C42.4,36.5,41.8,41.2,44,45z"/>
		<path class="st1" d="M41.2,33.2c2.7-1,4.2-4,3.2-6.7c-1-2.7-4-4.2-6.7-3.2c-2.7,1-4.2,4-3.2,6.7C35.5,32.8,38.5,34.2,41.2,33.2z"
			/>
		<path class="st1" d="M76.5,49.5c-0.4-0.2-0.9-0.1-1.2,0.3l-6.2,6.5c-0.2,0.3-0.5,0.5-0.9,0.6l-5.9,2.9c-0.7,0.4-1.3,1-1.6,1.8
			L59,66.7c-0.3,0.9-1,1.6-1.8,1.9l-14,5.1c-0.3,0.1-0.5,0.3-0.6,0.5l-1.3,1.9c-0.1,0.2-0.1,0.4,0,0.6c0.1,0.2,0.3,0.3,0.5,0.3h32.6
			c1.6,0,3-1.3,3-3V50.5C77.2,50.1,77,49.7,76.5,49.5z"/>
	</g>
</g>
</svg>
