<svg xmlns="http://www.w3.org/2000/svg" xmlns:xlink="http://www.w3.org/1999/xlink" preserveAspectRatio="xMidYMid meet" width="497" height="500" viewBox="0 0 497 500" style="width:100%;height:100%"><defs><animate attributeType="XML" attributeName="opacity" dur="4s" from="0" to="1" xlink:href="#time_group"/></defs><g id="_R_G"><g id="_R_G_L_0_G"><g id="_R_G_L_0_G_L_5_G_N_4_T_0" transform=" translate(300.121, 296.5) scale(0.61, 0.61) translate(-50, -50)"><g id="_R_G_L_0_G_L_5_G" transform=" translate(-125.894, -43.892) translate(0, 0)"><path id="_R_G_L_0_G_L_5_G_D_0_P_0" fill="#f8bc4a" fill-opacity="1" fill-rule="nonzero" d=" M105.35 -178.49 C105.35,-178.49 168.25,-68.86 168.25,-68.86 C168.25,-68.86 190.73,-107.23 190.73,-107.23 C190.73,-107.23 105.3,-253.52 105.3,-253.52 C105.3,-253.52 -28.95,-23.61 -28.95,-23.61 C-28.95,-23.61 108.77,214.36 108.77,214.36 C108.77,214.36 -122.74,214.36 -122.74,214.36 C-122.74,214.36 -37.98,65.86 -37.98,65.86 C-37.98,65.86 -59.49,28.68 -59.49,28.68 C-59.49,28.68 -190.73,253.52 -190.73,253.52 C-190.73,253.52 176.96,253.52 176.96,253.52 C176.96,253.52 14.92,-24.08 14.92,-24.08 C14.92,-24.08 105.35,-178.49 105.35,-178.49z "/></g></g><g id="_R_G_L_0_G_L_4_G_N_4_T_0" transform=" translate(300.121, 296.5) scale(0.61, 0.61) translate(-50, -50)"><g id="_R_G_L_0_G_L_4_G" transform=" translate(105.777, 55.328) translate(0, 0)"><path id="_R_G_L_0_G_L_4_G_D_0_P_0" fill="#f8bc4a" fill-opacity="1" fill-rule="nonzero" d=" M-27.35 115.14 C-27.35,115.14 -4.49,154.3 -4.49,154.3 C-4.49,154.3 78.39,154.3 78.39,154.3 C78.39,154.3 -34.32,-38.57 -34.32,-38.57 C-34.32,-38.57 -10.46,-78.92 -10.46,-78.92 C-10.46,-78.92 45.37,19.06 45.37,19.06 C45.37,19.06 66.23,-22.86 66.23,-22.86 C66.23,-22.86 -10.5,-154.3 -10.5,-154.3 C-10.5,-154.3 -78.39,-38.44 -78.39,-38.44 C-78.39,-38.44 10.06,115.14 10.06,115.14 C10.06,115.14 -27.35,115.14 -27.35,115.14z "/></g></g><g id="_R_G_L_0_G_L_3_G_N_4_T_0" transform=" translate(300.121, 296.5) scale(0.61, 0.61) translate(-50, -50)"><g id="_R_G_L_0_G_L_3_G" transform=" translate(225.894, 143.892) translate(0, 0)"><path id="_R_G_L_0_G_L_3_G_D_0_P_0" fill="#f8bc4a" fill-opacity="1" fill-rule="nonzero" d=" M49.49 65.74 C49.49,65.74 5.68,65.74 5.68,65.74 C5.68,65.74 -49.49,-26.49 -49.49,-26.49 C-49.49,-26.49 -27.39,-65.74 -27.39,-65.74 C-27.39,-65.74 49.49,65.74 49.49,65.74z "/></g></g><g id="_R_G_L_0_G_L_2_G"><g id="_R_G_L_0_G_L_2_G_L_0_G" transform=" translate(203.936, 243.384) scale(0.62, 0.62) translate(0, 0)"><path id="_R_G_L_0_G_L_2_G_L_0_G_D_0_P_0" stroke="#000000" stroke-linecap="round" stroke-linejoin="round" fill="none" stroke-width="46" stroke-opacity="1" d=" M-56.82 21.6 C-56.82,21.6 -173.65,225.82 -173.65,225.82 C-173.65,225.82 123.18,225.82 123.18,225.82 C123.18,225.82 -25.23,-30.76 -25.23,-30.76 C-25.23,-30.76 88.29,-225.82 88.29,-225.82 C88.29,-225.82 173.65,-77.83 173.65,-77.83 "/></g></g><g id="_R_G_L_0_G_L_1_G"><g id="_R_G_L_0_G_L_1_G_L_0_G" transform=" translate(337.097, 304.527) scale(0.58, 0.58) translate(0, 0)"><path id="_R_G_L_0_G_L_1_G_L_0_G_D_0_P_0" stroke="#000000" stroke-linecap="round" stroke-linejoin="round" fill="none" stroke-width="46" stroke-opacity="1" d=" M-44.55 130.49 C-44.55,130.49 41,130.49 41,130.49 C41,130.49 -62.61,-50.59 -62.61,-50.59 C-62.61,-50.59 -14.27,-132.8 -14.27,-132.8 C-14.27,-132.8 65.35,15.11 65.35,15.11 "/></g></g><g id="_R_G_L_0_G_L_0_G"><g id="_R_G_L_0_G_L_0_G_L_0_G" transform=" translate(429.233, 401.503) translate(0, 0)"><path id="_R_G_L_0_G_L_0_G_L_0_G_D_0_P_0" stroke="#000000" stroke-linecap="round" stroke-linejoin="round" fill="none" stroke-width="46" stroke-opacity="1" d=" M-52.46 -86.13 C-52.46,-86.13 52.46,86.13 52.46,86.13 "/></g></g></g></g><g id="time_group"/></svg>