<?xml version="1.0" encoding="utf-8"?>
<!-- Generator: Adobe Illustrator 25.1.0, SVG Export Plug-In . SVG Version: 6.00 Build 0)  -->
<svg version="1.1" id="Layer_1" xmlns="http://www.w3.org/2000/svg" xmlns:xlink="http://www.w3.org/1999/xlink" x="0px" y="0px"
	 viewBox="0 0 122.3 54" style="enable-background:new 0 0 122.3 54;" xml:space="preserve">
<style type="text/css">
	.st0{fill:#0C6980;}
	.st1{clip-path:url(#SVGID_2_);}
	.st2{fill:#05E0E9;}
	.st3{clip-path:url(#SVGID_4_);}
	.st4{clip-path:url(#SVGID_6_);}
	.st5{clip-path:url(#SVGID_8_);}
	.st6{clip-path:url(#SVGID_10_);}
	.st7{clip-path:url(#SVGID_12_);}
	.st8{fill:#FFFFFF;}
</style>
<rect class="st0" width="122.3" height="54"/>
<g>
	<g>
		<defs>
			<rect id="SVGID_1_" x="60.6" y="4.8" width="22.5" height="21.2"/>
		</defs>
		<clipPath id="SVGID_2_">
			<use xlink:href="#SVGID_1_"  style="overflow:visible;"/>
		</clipPath>
		<g class="st1">
			<path class="st2" d="M60.8,6.5l19.6,19.6h2.4L62,5.3L60.8,6.5z"/>
		</g>
	</g>
	<g>
		<defs>
			<rect id="SVGID_3_" x="32.5" y="0.9" width="28.6" height="25.1"/>
		</defs>
		<clipPath id="SVGID_4_">
			<use xlink:href="#SVGID_3_"  style="overflow:visible;"/>
		</clipPath>
		<g class="st3">
			<path class="st2" d="M57.6,3.3l2,2l1.2-1.2l-3.2-3.2L32.5,26.1h2.4L57.6,3.3z"/>
		</g>
	</g>
	<g>
		<defs>
			<rect id="SVGID_5_" x="60.6" y="0.9" width="28.6" height="25.1"/>
		</defs>
		<clipPath id="SVGID_6_">
			<use xlink:href="#SVGID_5_"  style="overflow:visible;"/>
		</clipPath>
		<g class="st4">
			<path class="st2" d="M64,3.3l22.8,22.8h2.4L64,0.9l-3.2,3.2L62,5.3L64,3.3z"/>
		</g>
	</g>
	<g>
		<defs>
			<rect id="SVGID_7_" x="38.6" y="4.8" width="22.5" height="21.2"/>
		</defs>
		<clipPath id="SVGID_8_">
			<use xlink:href="#SVGID_7_"  style="overflow:visible;"/>
		</clipPath>
		<g class="st5">
			<path class="st2" d="M59.6,5.3L38.8,26.1h2.4L60.8,6.5L59.6,5.3z"/>
		</g>
	</g>
	<path class="st2" d="M62,5.3l-1.2,1.2l-1.2-1.2l1.2-1.2L62,5.3z"/>
	<g>
		<defs>
			<rect id="SVGID_9_" x="46.1" y="11.4" width="29.5" height="14.7"/>
		</defs>
		<clipPath id="SVGID_10_">
			<use xlink:href="#SVGID_9_"  style="overflow:visible;"/>
		</clipPath>
		<g class="st6">
			<path class="st2" d="M46.4,26.1h2.4l12-12l12,12h2.4L60.8,11.7L46.4,26.1z"/>
		</g>
	</g>
	<g>
		<defs>
			<rect id="SVGID_11_" x="53.1" y="18.4" width="15.5" height="7.7"/>
		</defs>
		<clipPath id="SVGID_12_">
			<use xlink:href="#SVGID_11_"  style="overflow:visible;"/>
		</clipPath>
		<g class="st7">
			<path class="st2" d="M53.2,26.1h2.4l5.2-5.2l5.2,5.2h2.4l-7.6-7.6L53.2,26.1z"/>
		</g>
	</g>
	<g>
		<g transform="translate(86.259872, 213.679923)">
			<g>
				<path class="st8" d="M-71.6-172.3c2.3,0,4.1-1.7,4.1-4c0-2.3-1.7-4-4.1-4c-2.4,0-4.1,1.7-4.1,4C-75.7-174-73.9-172.3-71.6-172.3
					z M-71.6-173.9c-1.4,0-2.4-1.1-2.4-2.5s1-2.4,2.4-2.4s2.4,1,2.4,2.4C-69.2-174.9-70.2-173.9-71.6-173.9z"/>
			</g>
		</g>
	</g>
	<g>
		<g transform="translate(107.288646, 213.679923)">
			<g>
				<path class="st8" d="M-80.8-180.2v4.7l-3.4-4.7h-1.5v7.7h1.6v-4.8l3.5,4.8h1.4v-7.7H-80.8z"/>
			</g>
		</g>
	</g>
	<g>
		<g transform="translate(126.755692, 213.679923)">
			<g>
				<path class="st8" d="M-93.8-174v-1.6h2.7v-1.5h-2.7v-1.5h3v-1.5h-4.6v7.7h4.7v-1.5H-93.8z"/>
			</g>
		</g>
	</g>
	<g>
		<g transform="translate(150.160551, 213.679923)">
			<g>
				<path class="st8" d="M-102.6-180.2v3h-2.9v-3h-1.7v7.7h1.7v-3.2h2.9v3.2h1.7v-7.7H-102.6z"/>
			</g>
		</g>
	</g>
	<g>
		<g transform="translate(169.077697, 213.679923)">
			<g>
				<path class="st8" d="M-116.6-172.5h1.7v-7.7h-1.7V-172.5z"/>
			</g>
		</g>
	</g>
	<g>
		<g transform="translate(178.866474, 213.679923)">
			<g>
				<path class="st8" d="M-112-172.5l-1.2-7.7h-1.7l-2.1,4.7l-2.1-4.7h-1.7l-1.2,7.7h1.7l0.8-5l2.3,5h0.4l2.3-5l0.8,5H-112z"/>
			</g>
		</g>
	</g>
	<g>
		<g transform="translate(203.238646, 213.679923)">
			<g>
				<path class="st8" d="M-128.6-172.5h1.8l-3.1-7.7h-1.6l-3,7.7h1.8l0.5-1.5h3.1L-128.6-172.5z M-130.6-178.1l1,2.8h-2
					L-130.6-178.1z"/>
			</g>
		</g>
	</g>
	<g>
		<g transform="translate(221.957837, 213.679923)">
			<g>
				<path class="st8" d="M-141.3-174v-6.2h-1.7v7.7h4.6v-1.5H-141.3z"/>
			</g>
		</g>
	</g>
	<g>
		<g transform="translate(236.365788, 213.679923)">
			<g>
				<path class="st8" d="M-145.1-172.5h1.8l-3.1-7.7h-1.6l-3,7.7h1.8l0.5-1.5h3.1L-145.1-172.5z M-147.2-178.1l1,2.8h-2
					L-147.2-178.1z"/>
			</g>
		</g>
	</g>
	<g>
		<g transform="translate(255.084979, 213.679923)">
			<g>
				<path class="st8" d="M-153.1-180.2h-1.8l-1.8,3.1l-1.8-3.1h-1.8l2.7,4.6v3.1h1.7v-3.1L-153.1-180.2z"/>
			</g>
		</g>
	</g>
	<g>
		<g transform="translate(272.946321, 213.679923)">
			<g>
				<path class="st8" d="M-163.4-172.5h1.8l-3.1-7.7h-1.6l-3,7.7h1.8l0.5-1.5h3.1L-163.4-172.5z M-165.4-178.1l1,2.8h-2
					L-165.4-178.1z"/>
			</g>
		</g>
	</g>
	<g>
		<g transform="translate(66.729419, 237.153968)">
			<g>
				<path class="st8" d="M-64.8-185.1v-3.7h-1v4.6h2.8v-0.9H-64.8z"/>
			</g>
		</g>
	</g>
	<g>
		<g transform="translate(75.405398, 237.153968)">
			<g>
				<path class="st8" d="M-68.3-184.1c1.1,0,1.9-0.8,1.9-1.8v-2.9h-1v2.9c0,0.6-0.4,0.9-0.9,0.9c-0.5,0-0.9-0.4-0.9-0.9v-2.9h-1v2.9
					C-70.2-184.8-69.4-184.1-68.3-184.1z"/>
			</g>
		</g>
	</g>
	<g>
		<g transform="translate(86.756318, 237.153968)">
			<g>
				<path class="st8" d="M-72.2-184.2l-1.5-2.4l1.3-2.2h-1.1l-0.8,1.4l-0.8-1.4h-1.1l1.4,2.2l-1.4,2.4h1.1l0.9-1.6l0.9,1.6H-72.2z"
					/>
			</g>
		</g>
	</g>
	<g>
		<g transform="translate(96.796251, 237.153968)">
			<g>
				<path class="st8" d="M-79-184.1c1.1,0,1.9-0.8,1.9-1.8v-2.9h-1v2.9c0,0.6-0.4,0.9-0.9,0.9c-0.5,0-0.9-0.4-0.9-0.9v-2.9h-1v2.9
					C-80.9-184.8-80.1-184.1-79-184.1z"/>
			</g>
		</g>
	</g>
	<g>
		<g transform="translate(108.147169, 237.153968)">
			<g>
				<path class="st8" d="M-83.9-184.2h1.1l-1-1.8c0.5-0.3,0.8-0.7,0.8-1.4c0-0.9-0.7-1.5-1.6-1.5h-1.9v4.6h1v-1.6h0.6L-83.9-184.2z
					 M-85.5-187.9h0.8c0.4,0,0.7,0.3,0.7,0.6c0,0.4-0.2,0.6-0.7,0.6h-0.8V-187.9z"/>
			</g>
		</g>
	</g>
	<g>
		<g transform="translate(118.663826, 237.153968)">
			<g>
				<path class="st8" d="M-87.9-188.8H-89L-90-187l-1.1-1.9h-1.1l1.6,2.8v1.9h1v-1.9L-87.9-188.8z"/>
			</g>
		</g>
	</g>
	<g>
		<g transform="translate(134.347266, 237.153968)">
			<g>
				<path class="st8" d="M-95.9-184.2c-0.3-0.3-0.5-0.6-0.7-0.8c0.3-0.4,0.4-0.8,0.4-1.4H-97c0,0.3-0.1,0.5-0.2,0.7
					c-0.3-0.3-0.5-0.6-0.7-0.9c0.5-0.3,1-0.6,1-1.3c0-0.7-0.5-1.1-1.3-1.1c-0.8,0-1.3,0.4-1.3,1.1c0,0.3,0.1,0.5,0.4,1
					c-0.4,0.3-0.8,0.7-0.8,1.3c0,0.8,0.6,1.3,1.5,1.3c0.5,0,0.9-0.1,1.3-0.4c0.1,0.1,0.2,0.2,0.2,0.3H-95.9z M-98.2-188.2
					c0.3,0,0.4,0.2,0.4,0.4c0,0.3-0.3,0.5-0.6,0.6c-0.2-0.3-0.3-0.5-0.3-0.6C-98.6-188-98.4-188.2-98.2-188.2z M-98.3-184.9
					c-0.4,0-0.6-0.2-0.6-0.5c0-0.3,0.2-0.5,0.4-0.6c0.2,0.3,0.5,0.6,0.9,1C-97.9-185-98.1-184.9-98.3-184.9z"/>
			</g>
		</g>
	</g>
	<g>
		<g transform="translate(149.593713, 237.153968)">
			<g>
				<path class="st8" d="M-104.1-184.2h1.1l-1.9-4.6h-0.9l-1.8,4.6h1.1l0.3-0.9h1.8L-104.1-184.2z M-105.4-187.6l0.6,1.7h-1.2
					L-105.4-187.6z"/>
			</g>
		</g>
	</g>
	<g>
		<g transform="translate(160.865176, 237.153968)">
			<g>
				<path class="st8" d="M-111.1-188.8h-1.8v4.6h1.8c1.4,0,2.4-1,2.4-2.3C-108.7-187.9-109.7-188.8-111.1-188.8z M-111.1-185.1h-0.7
					v-2.8h0.7c0.8,0,1.3,0.6,1.3,1.4C-109.8-185.7-110.3-185.1-111.1-185.1z"/>
			</g>
		</g>
	</g>
	<g>
		<g transform="translate(172.441212, 237.153968)">
			<g>
				<path class="st8" d="M-115.7-188.8l-1.1,3.3l-1.2-3.3h-1.1l1.8,4.6h0.9l1.8-4.6H-115.7z"/>
			</g>
		</g>
	</g>
	<g>
		<g transform="translate(183.500804, 237.153968)">
			<g>
				<path class="st8" d="M-123.1-185.1v-1h1.6v-0.9h-1.6v-0.9h1.8v-0.9h-2.8v4.6h2.9v-0.9H-123.1z"/>
			</g>
		</g>
	</g>
	<g>
		<g transform="translate(192.666754, 237.153968)">
			<g>
				<path class="st8" d="M-125.8-188.8v2.8l-2-2.8h-0.9v4.6h1v-2.9l2.1,2.9h0.8v-4.6H-125.8z"/>
			</g>
		</g>
	</g>
	<g>
		<g transform="translate(204.388456, 237.153968)">
			<g>
				<path class="st8" d="M-131.4-188.8h-3.6v0.9h1.3v3.7h1v-3.7h1.3V-188.8z"/>
			</g>
		</g>
	</g>
	<g>
		<g transform="translate(213.885461, 237.153968)">
			<g>
				<path class="st8" d="M-137.5-184.1c1.1,0,1.9-0.8,1.9-1.8v-2.9h-1v2.9c0,0.6-0.4,0.9-0.9,0.9c-0.5,0-0.9-0.4-0.9-0.9v-2.9h-1
					v2.9C-139.4-184.8-138.6-184.1-137.5-184.1z"/>
			</g>
		</g>
	</g>
	<g>
		<g transform="translate(225.236386, 237.153968)">
			<g>
				<path class="st8" d="M-142.4-184.2h1.1l-1-1.8c0.5-0.3,0.8-0.7,0.8-1.4c0-0.9-0.7-1.5-1.6-1.5h-1.9v4.6h1v-1.6h0.6L-142.4-184.2
					z M-144-187.9h0.8c0.4,0,0.7,0.3,0.7,0.6c0,0.4-0.2,0.6-0.7,0.6h-0.8V-187.9z"/>
			</g>
		</g>
	</g>
	<g>
		<g transform="translate(235.753048, 237.153968)">
			<g>
				<path class="st8" d="M-149.3-185.1v-1h1.6v-0.9h-1.6v-0.9h1.8v-0.9h-2.8v4.6h2.9v-0.9H-149.3z"/>
			</g>
		</g>
	</g>
	<g>
		<g transform="translate(249.84743, 237.153968)">
			<g>
				<path class="st8" d="M-154.1-188.8h-3.6v0.9h1.3v3.7h1v-3.7h1.3V-188.8z"/>
			</g>
		</g>
	</g>
	<g>
		<g transform="translate(259.344435, 237.153968)">
			<g>
				<path class="st8" d="M-159.5-184.2h1.1l-1-1.8c0.5-0.3,0.8-0.7,0.8-1.4c0-0.9-0.7-1.5-1.6-1.5h-1.9v4.6h1v-1.6h0.6L-159.5-184.2
					z M-161-187.9h0.8c0.4,0,0.7,0.3,0.7,0.6c0,0.4-0.2,0.6-0.7,0.6h-0.8V-187.9z"/>
			</g>
		</g>
	</g>
	<g>
		<g transform="translate(269.861097, 237.153968)">
			<g>
				<path class="st8" d="M-164.2-184.2h1.1l-1.9-4.6h-0.9l-1.8,4.6h1.1l0.3-0.9h1.8L-164.2-184.2z M-165.5-187.6l0.6,1.7h-1.2
					L-165.5-187.6z"/>
			</g>
		</g>
	</g>
	<g>
		<g transform="translate(281.132565, 237.153968)">
			<g>
				<path class="st8" d="M-170-188.8l-1.1,3.3l-1.2-3.3h-1.1l1.8,4.6h0.9l1.8-4.6H-170z"/>
			</g>
		</g>
	</g>
	<g>
		<g transform="translate(292.192158, 237.153968)">
			<g>
				<path class="st8" d="M-177.4-185.1v-1h1.6v-0.9h-1.6v-0.9h1.8v-0.9h-2.8v4.6h2.9v-0.9H-177.4z"/>
			</g>
		</g>
	</g>
	<g>
		<g transform="translate(301.358097, 237.153968)">
			<g>
				<path class="st8" d="M-182-185.1v-3.7h-1v4.6h2.8v-0.9H-182z"/>
			</g>
		</g>
	</g>
</g>
</svg>
