<?xml version="1.0" encoding="utf-8"?>
<!-- Generator: Adobe Illustrator 22.1.0, SVG Export Plug-In . SVG Version: 6.00 Build 0)  -->
<svg version="1.1" id="Layer_1" xmlns="http://www.w3.org/2000/svg" xmlns:xlink="http://www.w3.org/1999/xlink" x="0px" y="0px"
	 width="1920px" height="1080px" viewBox="0 0 1920 1080" style="enable-background:new 0 0 1920 1080;" xml:space="preserve">
<style type="text/css">
	.st0{opacity:0.1;}
	.st1{fill:#231F20;}
	.st2{fill:#507864;}
	.st3{fill:#C43426;}
	.st4{fill:#D1BEA8;}
	.st5{fill:#193A2E;}
	.st6{fill:#B12E20;}
</style>
<g class="st0">
	<polyline class="st1" points="1443.5,40.6 1443.5,49.4 1442.6,51.2 1442.6,55.6 1410.9,55.6 1410,56.5 1379.1,59.1 1350.9,63.5 
		1325.4,68.8 1299.8,75 1293.6,66.2 1289.2,54.7 1316.5,48.6 1345.6,41.5 1376.5,38 1407.4,35.3 1413.5,35.3 1415.3,34.5 
		1443.5,34.5 1443.5,40.6 	"/>
	<polyline class="st1" points="1886.1,482.4 1886.1,498.2 1885.2,499.1 1885.2,508.8 1863.2,508.8 1863.2,478.8 1861.4,477.1 
		1860.6,447.1 1856.2,418 1850.9,391.5 1844.7,366 1848.2,363.3 1853.5,359.8 1858.8,357.2 1863.2,354.5 1871.1,381.8 1876.4,410.9 
		1881.7,441.8 1885.2,473.5 1885.2,480.6 1886.1,482.4 	"/>
	<polyline class="st2" points="1886.1,498.2 1886.1,504.4 1885.2,507 1885.2,499.1 1886.1,498.2 	"/>
	<polyline class="st2" points="1873.8,508.8 1885.2,508.8 1879.1,509.7 1873.8,508.8 	"/>
	<polyline class="st3" points="1874.7,514.1 1874.7,514.1 1879.1,515.9 1884.4,515.9 1881.7,538.8 1879.1,563.5 1870.3,605.8 
		1865,626.1 1858.8,646.4 1850.9,664.9 1844.7,684.3 1833.2,679 1823.5,674.6 1837.6,638.4 1843.8,619.9 1848.2,599.6 1853.5,579.3 
		1857.9,559.1 1860.6,537.9 1861.4,514.1 1865.9,514.1 1867.6,515.9 1870.3,515.9 1874.7,514.1 	"/>
	<polyline class="st4" points="1874.7,514.1 1874.7,514.1 1870.3,515.9 1867.6,515.9 1865.9,514.1 1874.7,514.1 	"/>
	<polyline class="st4" points="1863.2,484.1 1863.2,492.1 1861.4,491.2 1861.4,484.1 1863.2,484.1 	"/>
	<polyline class="st2" points="1863.2,484.1 1861.4,484.1 1861.4,477.1 1863.2,478.8 1863.2,484.1 	"/>
	<polyline class="st4" points="1837.6,480.6 1837.6,480.6 1838.5,492.9 1837.6,507 1837.6,480.6 	"/>
	<path class="st3" d="M1837.6,480.6c0,188.7-92.6,311.2-244.2,388l-38.8-212.5l24.7,13.2l23.8,13.2l24.7,13.2l25.6,13.2l-14.1-21.2
		l-14.1-23.8l-14.1-22l-13.2-21.2c145.5,29.1,245.1,93.5,69.7-47.6l-34.4-27.3l51.1-7.1l51.1-8.8l-25.6-10.6l-25.6-9.7l-50.3-21.2
		l45.8-26.5l46.7-26.5l46.7-27.3l23.8-13.2l23.8-13.2C1829.7,411.8,1835,445.3,1837.6,480.6"/>
	<polyline class="st3" points="1850,317.5 1850,317.5 1839.4,320.1 1827.9,321 1819.1,304.3 1812.1,288.4 1803.2,272.5 
		1792.7,257.5 1783,242.5 1773.3,227.5 1762.7,213.4 1749.5,199.3 1758.3,192.3 1762.7,188.8 1767.1,186.1 1779.4,199.3 
		1791.8,214.3 1803.2,231.1 1813.8,247.8 1823.5,263.7 1833.2,280.4 1841.2,299.8 1850,317.5 	"/>
	<polyline class="st1" points="1820,679.9 1820,679.9 1830.6,684.3 1840.3,689.6 1833.2,705.4 1813.8,737.2 1804.1,752.2 
		1793.6,767.2 1783,781.3 1760.9,807.7 1752.1,814.8 1748.6,819.2 1740.6,827.1 1738.9,828 1738,828.9 1737.1,828.9 1731.8,821.8 
		1725.7,814.8 1723.9,813.9 1723,813 1725.7,811.2 1727.4,808.6 1736.2,801.5 1738,797.1 1741.5,793.6 1753,782.1 1763.6,768 
		1775,755.7 1784.7,740.7 1793.6,726.6 1804.1,711.6 1820,679.9 	"/>
	<polyline class="st1" points="1761.8,178.2 1761.8,178.2 1762.7,179.1 1762.7,181.7 1758.3,185.2 1753.9,188.8 1749.5,192.3 
		1746.8,195.8 1745.9,194 1744.2,193.2 1732.7,181.7 1720.4,170.2 1706.3,157.9 1692.2,147.3 1677.2,136.7 1662.2,125.3 
		1646.3,116.5 1630.4,107.6 1613.7,98.8 1617.2,89.1 1623.4,79.4 1639.3,86.5 1655.1,96.2 1670.1,105 1685.1,114.7 1698.3,124.4 
		1712.4,135.8 1738,157 1748.6,165.8 1753.9,172 1761.8,178.2 	"/>
	<polyline class="st4" points="1760.9,807.7 1760.9,807.7 1752.1,814.8 1760.9,807.7 	"/>
	<path class="st3" d="M1667.5,161.4c60.8,44.1,102.3,98.8,134,165.8l-106.7,18.5L1589,365.1l13.2-24.7l13.2-23.8l14.1-24.7
		l11.5-23.8l-21.2,11.5l-22,14.1l-23.8,14.1l-22,13.2l18.5-88.2l10.6-45l9.7-44.1l-27.3,35.3l-27.3,36.2l-29.1,36.2l-29.1,35.3
		L1462,183.5l-10.6,24.7l-19.4,52.9l-11.5,24.7l-54.7-93.5l-26.5-46.7L1313,97.1C1436.5,65.3,1559.9,82.1,1667.5,161.4"/>
	<polyline class="st4" points="1748.6,819.2 1748.6,819.2 1740.6,827.1 1748.6,819.2 	"/>
	<polyline class="st4" points="1736.2,801.5 1736.2,801.5 1741.5,793.6 1738,797.1 1736.2,801.5 	"/>
	<polyline class="st5" points="1736.2,801.5 1736.2,801.5 1727.4,808.6 1731.8,804.2 1736.2,801.5 	"/>
	<polyline class="st4" points="1727.4,808.6 1727.4,808.6 1725.7,811.2 1723,813 1723.9,813.9 1725.7,814.8 1723,813.9 1723,812.1 
		1725.7,811.2 1727.4,808.6 	"/>
	<polyline class="st1" points="1537,455.9 1537,455.9 1911.7,319.2 1723,427.7 1534.3,536.1 1539.6,518.5 1540.5,509.7 
		1542.3,499.1 1543.1,492.9 1542.3,485.9 1542.3,477.1 1539.6,470 1537,455.9 	"/>
	<polyline class="st3" points="1718.6,816.5 1718.6,816.5 1726.5,824.5 1733.6,832.4 1720.4,844.7 1705.4,857.1 1688.6,869.4 
		1672.8,879.1 1655.1,888.8 1639.3,898.5 1619.9,908.2 1601.3,915.3 1598.7,904.7 1596.9,894.1 1614.6,885.3 1631.3,878.2 
		1647.2,869.4 1662.2,858.9 1677.2,849.2 1692.2,838.6 1706.3,828 1718.6,816.5 	"/>
	<polyline class="st1" points="1705.4,526.4 1705.4,526.4 1686,529.1 1666.6,532.6 1646.3,536.1 1626,538.8 1611,527.3 
		1595.2,514.1 1621.6,517.6 1649.8,521.2 1705.4,526.4 	"/>
	<polyline class="st1" points="1737.1,640.2 1737.1,640.2 1641,620.8 1544,599.6 1543.1,585.5 1540.5,574.1 1537.9,561.7 
		1535.2,547.6 1636.6,593.5 1737.1,640.2 	"/>
	<polyline class="st1" points="1625.1,686.9 1626,686.9 1625.1,686.9 	"/>
	<polyline class="st1" points="1625.1,686 1625.1,686.9 1589.9,668.4 1553.7,649 1550.2,630.5 1545.8,612.9 1569.6,633.1 
		1590.8,653.4 1590.8,654.3 1596,658.7 1599.6,662.2 1604,665.8 1608.4,669.3 1616.3,677.2 1625.1,686 	"/>
	<polyline class="st4" points="1613.7,300.7 1613.7,300.7 1620.7,293.7 1621.6,292.8 1621.6,293.7 1619.9,294.6 1619,297.2 
		1616.3,299 1613.7,300.7 	"/>
	<polyline class="st2" points="1616.3,677.2 1616.3,677.2 1625.1,686 1616.3,677.2 	"/>
	<polyline class="st1" points="1613.7,300.7 1613.7,300.7 1616.3,299 1619,297.2 1619.9,294.6 1621.6,293.7 1611,312.2 
		1601.3,329.8 1583.7,366 1564.3,369.5 1545.8,372.1 1545.8,371.3 1559.9,357.2 1569.6,345.7 1573.1,343.9 1575.8,339.5 
		1583.7,331.6 1586.3,329.8 1596.9,318.4 1611,304.3 1613.7,300.7 	"/>
	<polyline class="st4" points="1608.4,669.3 1608.4,669.3 1616.3,677.2 1608.4,669.3 	"/>
	<polyline class="st3" points="1617.2,75 1617.2,75 1611.9,85.6 1609.3,96.2 1573.1,82.1 1554.6,75.9 1534.3,70.6 1514.9,66.2 
		1493.8,61.8 1472.6,59.1 1447.9,56.5 1447.9,54.7 1448.8,53.8 1448.8,35.3 1473.5,38 1497.3,40.6 1518.5,44.2 1540.5,49.4 
		1559.9,54.7 1580.2,60.9 1598.7,68.8 1617.2,75 	"/>
	<polyline class="st4" points="1611,304.3 1611,304.3 1604,312.2 1611,304.3 	"/>
	<polyline class="st4" points="1590.8,653.4 1590.8,653.4 1596,656.9 1599.6,662.2 1596,658.7 1590.8,654.3 1590.8,653.4 	"/>
	<polyline class="st4" points="1596.9,318.4 1596.9,318.4 1586.3,329.8 1591.6,323.7 1596.9,318.4 	"/>
	<polyline class="st4" points="1583.7,331.6 1583.7,331.6 1575.8,339.5 1583.7,331.6 	"/>
	<polyline class="st4" points="1569.6,345.7 1569.6,345.7 1559.9,357.2 1564.3,351.9 1569.6,345.7 	"/>
	<polyline class="st1" points="1574.9,180.8 1574.9,180.8 1554.6,277.8 1544,328.1 1532.6,374.8 1507,380.1 1493.8,381.8 
		1481.4,384.5 1528.2,283.1 1574.9,180.8 	"/>
	<polyline class="st1" points="1553.7,910 1553.7,910 1557.3,914.4 1559,918.8 1564.3,929.4 1537,936.4 1507,943.5 1476.1,948.8 
		1459.4,950.5 1443.5,951.4 1410.9,951.4 1410,945.3 1410,940 1410.9,928.5 1440.9,928.5 1471.7,925.9 1499.9,923.2 1528.2,916.2 
		1553.7,910 	"/>
	<polyline class="st4" points="1557.3,360.7 1557.3,360.7 1549.3,368.6 1557.3,360.7 	"/>
	<polyline class="st2" points="1542.3,485.9 1542.3,485.9 1543.1,492.9 1542.3,499.1 1542.3,485.9 	"/>
	<polyline class="st1" points="1599.6,977 1599.6,977 1384.4,600.5 1401.2,604.9 1410,607.6 1420.6,607.6 1426.8,608.4 
		1432.9,607.6 1441.7,607.6 1448.8,605.8 1462.9,602.3 1599.6,977 	"/>
	<polyline class="st1" points="1507.9,463.8 1507.9,463.8 1509.6,475.3 1512.3,486.8 1512.3,498.2 1509.6,509.7 1507,522 
		1502.6,531.7 1497.3,541.4 1491.1,549.4 1484.1,556.4 1473.5,564.4 1461.1,570.5 1454.1,573.2 1447,574.9 1439.1,577.6 1432,578.5 
		1421.5,578.5 1404.7,574.1 1396.8,572.3 1390.6,568.8 1382.7,565.2 1376.5,562.6 1371.2,557.3 1365,552 1361.5,547.6 1356.2,541.4 
		1352.7,536.1 1349.2,528.2 1346.5,521.2 1344.8,512.3 1343.9,504.4 1341.2,496.5 1341.2,488.5 1343.9,480.6 1344.8,470.9 
		1347.4,463 1350.1,455.9 1352.7,449.7 1357.1,441.8 1362.4,436.5 1367.7,430.3 1373,426.8 1379.1,421.5 1386.2,417.1 1392.4,414.5 
		1401.2,411.8 1410,409.2 1417.9,407.4 1426.8,406.5 1433.8,407.4 1441.7,409.2 1454.1,411.8 1466.4,416.2 1477.9,425 1487.6,432.1 
		1496.4,441.8 1502.6,453.3 1507.9,463.8 	"/>
	<path class="st6" d="M1540.5,887.1L1540.5,887.1c-194.9,48.5-397.7-31.7-489.3-228.4l212.5-37l-13.2,24.7l-13.2,23.8l-14.1,23.8
		l-13.2,25.6l23.8-14.1l22-14.1l22-14.1l22-11.5l-9.7,44.1l-19.4,89.9l-9.7,44.1l55.5-70.5l29.1-36.2l27.3-35.3l7.1,51.1l8.8,50.3
		l11.5-24.7l9.7-25.6l9.7-26.5l10.6-24.7l54.7,92.6l26.5,47.6L1540.5,887.1"/>
	<polyline class="st4" points="1491.1,549.4 1491.1,549.4 1484.1,556.4 1491.1,549.4 	"/>
	<polyline class="st1" points="1472.6,293.7 1472.6,293.7 1467.3,302.5 1461.1,308.7 1454.1,317.5 1448.8,324.5 1454.1,271.6 
		1459.4,216.1 1466.4,254 1472.6,293.7 	"/>
	<polyline class="st1" points="1470.8,385.4 1470.8,385.4 1456.7,381 1447.9,379.2 1439.1,377.4 1418.8,377.4 1411.8,379.2 
		1404.7,380.1 1390.6,383.6 1321,195.8 1253.1,8 1361.5,195.8 1470.8,385.4 	"/>
	<polyline class="st4" points="1439.1,377.4 1418.8,377.4 1439.1,377.4 	"/>
	<polyline class="st4" points="1412.7,903.8 1437.3,903.8 1412.7,903.8 	"/>
	<polyline class="st2" points="1420.6,607.6 1432.9,607.6 1426.8,608.4 1420.6,607.6 	"/>
	<polyline class="st2" points="1421.5,578.5 1432,578.5 1421.5,578.5 	"/>
	<polyline class="st3" points="1404.7,928.5 1404.7,950.5 1380,948.8 1356.2,945.3 1335.1,940.8 1313.9,936.4 1293.6,930.3 
		1273.3,925 1253.9,917.9 1237.2,910 1239.8,898.5 1242.5,894.1 1246.9,889.7 1263.6,897.6 1281.3,902.9 1300.7,910 1320.1,914.4 
		1339.5,919.7 1360.6,924.1 1381.8,925.9 1404.7,928.5 	"/>
	<polyline class="st1" points="1404.7,662.2 1404.7,662.2 1399.4,716 1392.4,770.7 1382.7,712.5 1380.9,701.9 1380,695.7 
		1380.9,691.3 1391.5,676.3 1404.7,662.2 	"/>
	<polyline class="st1" points="1370.3,602.3 1371.2,602.3 1371.2,604 1370.3,607.6 1359.7,630.5 1349.2,655.2 1325.4,701.9 
		1279.5,802.4 1288.3,755.7 1298.9,706.3 1320.1,610.2 1336.8,607.6 1357.1,604 1364.2,602.3 1370.3,602.3 	"/>
	<polyline class="st4" points="1341.2,488.5 1341.2,496.5 1341.2,488.5 	"/>
	<polyline class="st1" points="1319.2,449.7 1319.2,450.6 1315.7,457.7 1313.9,468.3 1313,478 1311.3,488.5 1314.8,521.2 
		1318.3,529.1 1128.7,597.9 942.7,665.8 1130.5,557.3 1224,503.5 1319.2,449.7 	"/>
	<polyline class="st1" points="1308.6,386.3 1308.6,386.3 1313.9,412.7 1319.2,438.3 1216.9,391.5 1166.7,368.6 1115.5,344.8 
		1212.5,364.2 1308.6,386.3 	"/>
	<polyline class="st1" points="1306.8,612.9 1306.8,612.9 1306,614.6 1305.1,616.4 1303.3,619 1300.7,620.8 1294.5,626.1 
		1291,630.5 1286.6,634.9 1281.3,639.3 1279.5,643.7 1269.8,653.4 1265.4,656.1 1263.6,659.6 1253.9,669.3 1252.2,671.9 
		1245.1,677.2 1242.5,681.6 1238.1,686 1233.7,690.4 1232.8,690.4 1270.7,619.9 1306.8,612.9 	"/>
	<polyline class="st1" points="1306.8,372.1 1304.2,372.1 1301.6,369.5 1298.9,366.9 1289.2,357.2 1284.8,354.5 1280.4,350.1 
		1274.2,343.9 1268.9,338.6 1262.8,330.7 1254.8,324.5 1250.4,320.1 1245.1,315.7 1239.8,310.4 1233.7,303.4 1226.6,298.1 
		1299.8,336 1306.8,372.1 	"/>
	<path class="st3" d="M1298.9,328.1h-3.5l-1.8-1.8l-6.2-4.4l-42.3-21.2l-42.3-23.8l25.6,45l14.1,22l13.2,22l-88.2-19.4l-45-8.8
		l-45-8.8l3.5,3.5l4.4,4.4l8.8,7.1l126.1,97.9l-52,7.9l-52,8.8L1142,470l25.6,9.7l26.5,9.7l24.7,9.7l-92.6,54.7l-93.5,54.7
		c-50.3-194,20.3-396.8,229.2-489.3l18.5,104.9L1298.9,328.1"/>
	<polyline class="st4" points="1300.7,620.8 1300.7,620.8 1294.5,626.1 1300.7,620.8 	"/>
	<polyline class="st4" points="1289.2,357.2 1289.2,357.2 1295.4,364.2 1289.2,357.2 	"/>
	<polyline class="st4" points="1291,630.5 1291,630.5 1286.6,634.9 1281.3,639.3 1286.6,634.9 1291,630.5 	"/>
	<polyline class="st4" points="1274.2,343.9 1274.2,343.9 1280.4,350.1 1274.2,343.9 	"/>
	<polyline class="st4" points="1279.5,643.7 1279.5,643.7 1275.1,649 1269.8,653.4 1279.5,643.7 	"/>
	<polyline class="st4" points="1263.6,659.6 1263.6,659.6 1257.5,665.8 1263.6,659.6 	"/>
	<polyline class="st4" points="1254.8,324.5 1254.8,324.5 1262.8,330.7 1268.9,338.6 1261,330.7 1254.8,324.5 	"/>
	<polyline class="st3" points="1252.2,69.7 1252.2,69.7 1253.1,74.1 1253.9,80.3 1255.7,90 1223.1,106.8 1207.2,115.6 1192.2,125.3 
		1162.2,146.4 1148.1,157 1134.9,167.6 1130.5,164.9 1127,161.4 1119.9,152.6 1133.1,140.3 1149,127.9 1164,117.3 1181.6,106.8 
		1197.5,96.2 1214.3,86.5 1232.8,78.5 1252.2,69.7 	"/>
	<polyline class="st4" points="1252.2,671.9 1252.2,671.9 1245.1,677.2 1252.2,671.9 	"/>
	<polyline class="st1" points="1227.5,447.1 1227.5,447.1 1235.4,452.4 1242.5,457.7 1249.5,463.8 1257.5,470 1203.7,465.6 
		1150.8,457.7 1188.7,452.4 1227.5,447.1 	"/>
	<polyline class="st4" points="1239.8,310.4 1239.8,310.4 1245.1,315.7 1250.4,320.1 1245.1,315.7 1239.8,310.4 	"/>
	<polyline class="st4" points="1242.5,681.6 1242.5,681.6 1238.1,686.9 1233.7,690.4 1238.1,686 1242.5,681.6 	"/>
	<polyline class="st1" points="1232.8,690.4 1232.8,691.3 1232.8,690.4 	"/>
	<polyline class="st1" points="1239,887.1 1239,887.1 1235.4,897.6 1230.1,905.6 1211.6,897.6 1194.9,887.9 1161.4,866.8 
		1146.4,854.4 1116.4,828.9 1102.3,816.5 1096.1,809.5 1096.1,808.6 1092.6,806.8 1091.7,805.9 1091.7,803.3 1095.2,800.7 
		1099.6,797.1 1103.2,791.8 1105.8,791 1106.7,789.2 1107.6,789.2 1112,793.6 1118.2,801.5 1121.7,804.2 1126.1,807.7 1137.6,818.3 
		1151.7,829.8 1164,840.3 1179,850 1193.1,859.7 1208.1,869.4 1239,887.1 	"/>
	<polyline class="st4" points="1140.2,198.4 1140.2,198.4 1130.5,207.3 1140.2,198.4 	"/>
	<polyline class="st1" points="1128.7,172.9 1128.7,172.9 1127.9,175.5 1127,176.4 1117.3,185.2 1104.9,198.4 1092.6,212.6 
		1082,226.7 1071.4,241.7 1060,256.6 1050.3,272.5 1041.5,289.3 1031.8,305.1 1013.2,297.2 1021.2,278.7 1030.9,261.9 1041.5,245.2 
		1051.2,229.3 1075,199.3 1086.4,186.1 1100.5,172 1106.7,164.9 1108.5,163.2 1111.1,161.4 1112.9,157.9 1114.6,157 1116.4,157 
		1118.2,159.7 1122.6,164.9 1127,170.2 1128.7,172.9 	"/>
	<polyline class="st4" points="1118.2,801.5 1118.2,801.5 1126.1,807.7 1121.7,804.2 1118.2,801.5 	"/>
	<polyline class="st2" points="1127,176.4 1127,176.4 1117.3,185.2 1127,176.4 	"/>
	<polyline class="st5" points="1118.2,801.5 1118.2,801.5 1112,793.6 1118.2,801.5 	"/>
	<polyline class="st4" points="1112,793.6 1112,793.6 1107.6,789.2 1106.7,789.2 1105.8,791 1103.2,791.8 1105.8,789.2 
		1107.6,788.3 1110.2,791.8 1112,793.6 	"/>
	<polyline class="st5" points="1106.7,164.9 1106.7,164.9 1100.5,172 1106.7,164.9 	"/>
	<polyline class="st3" points="1102.3,783.9 1102.3,783.9 1101.4,787.4 1095.2,792.7 1090.8,796.2 1086.4,800.7 1074.1,786.6 
		1061.7,771.6 1050.3,755.7 1030.9,721.3 1020.3,704.6 1011.5,686 1003.5,666.6 1024.7,662.2 1031.8,679.9 1040.6,696.6 
		1050.3,712.5 1059.1,727.5 1080.2,757.5 1090.8,771.6 1102.3,783.9 	"/>
	<polyline class="st5" points="1096.1,809.5 1096.1,809.5 1102.3,816.5 1096.1,809.5 	"/>
	<polyline class="st4" points="1101.4,787.4 1101.4,787.4 1095.2,792.7 1101.4,787.4 	"/>
	<polyline class="st2" points="1096.1,808.6 1096.1,809.5 1092.6,807.7 1090.8,803.3 1091.7,803.3 1091.7,805.9 1092.6,806.8 
		1096.1,808.6 	"/>
	<polyline class="st4" points="1099.6,797.1 1099.6,797.1 1095.2,800.7 1091.7,803.3 1095.2,800.7 1099.6,797.1 	"/>
	<polyline class="st4" points="1015.9,475.3 1015.9,475.3 1016.8,481.5 1016.8,483.2 1015.9,485.9 1015.9,475.3 	"/>
	<polyline class="st4" points="1015.9,497.3 1015.9,497.3 1016.8,499.1 1016.8,501.8 1015.9,507.9 1015.9,497.3 	"/>
	<polyline class="st3" points="1009.7,302.5 1009.7,302.5 1015,303.4 1020.3,305.1 1030,312.2 1016.8,346.6 1004.4,385.4 
		1000,404.8 995.6,425.9 993,447.1 990.3,470 989.4,470.9 987.7,470 969.2,470 970.9,445.3 978,400.4 983.3,379.2 989.4,358.9 
		994.7,339.5 1002.7,320.1 1009.7,302.5 	"/>
	<polyline class="st1" points="990.3,508.8 990.3,508.8 993,538.8 997.4,567 1009.7,619.9 1000,625.2 989.4,630.5 982.4,603.2 
		975.3,574.1 972.7,543.2 969.2,509.7 969.2,506.2 968.3,503.5 968.3,476.2 980.6,476.2 985.9,477.1 990.3,477.1 990.3,508.8 	"/>
	<polyline class="st2" points="990.3,501.8 990.3,508.8 990.3,501.8 	"/>
	<polyline class="st4" points="990.3,501.8 990.3,496.5 990.3,501.8 	"/>
	<polyline class="st4" points="989.4,470.9 983.3,470.9 980.6,470 987.7,470 989.4,470.9 	"/>
	<polyline class="st2" points="980.6,476.2 975.3,476.2 980.6,476.2 	"/>
	<polyline class="st2" points="968.3,503.5 968.3,503.5 969.2,506.2 969.2,509.7 968.3,509.7 968.3,503.5 	"/>
	<polyline class="st4" points="968.3,492.9 968.3,499.1 968.3,492.9 	"/>
	<polyline class="st2" points="968.3,478.8 968.3,492.9 968.3,478.8 	"/>
</g>
</svg>
