<?xml version="1.0" encoding="utf-8"?>
<!-- Generator: Adobe Illustrator 25.1.0, SVG Export Plug-In . SVG Version: 6.00 Build 0)  -->
<svg version="1.1" id="Layer_1" xmlns="http://www.w3.org/2000/svg" xmlns:xlink="http://www.w3.org/1999/xlink" x="0px" y="0px"
	 viewBox="0 0 1920 25" style="enable-background:new 0 0 1920 25;" xml:space="preserve">
<style type="text/css">
	.st0{fill:#FFFFFF;}
</style>
<g>
	<path class="st0" d="M224.6,1c1.9,0.4,4.6,0.4,7.1,0.2c-1.1-0.1-2.2-0.2-3.4-0.2H224.6z"/>
	<path class="st0" d="M192.7,1.4c-0.3,0-0.5,0-0.8,0c-0.1,0.3,0.1,0.5,0.6,0.6c0.1,0,0.1,0,0.2,0C192.5,1.7,192.5,1.5,192.7,1.4z"/>
	<path class="st0" d="M201.8,1.2c2.4,0.3,5.8,0.3,9.3,0.1h0.1c0.1,0,0.1,0,0.2,0c1.9-0.1,3.8-0.2,5.6-0.3h-7.7
		C206.8,1.1,204.3,1.1,201.8,1.2z"/>
	<path class="st0" d="M296.5,1.7C298,1.9,300,2,302,2.1c0.2,0,0.4-0.1,0.6-0.1C302.8,1.5,299.3,1.5,296.5,1.7z"/>
	<path class="st0" d="M265.5,6c-0.8-0.5,1.2-0.7-1.6-0.9c-3.2-0.1-6.6-0.1-10.1,0l7.4,1.2L260.6,6C262.9,5.7,263.3,6.1,265.5,6z"/>
	<path class="st0" d="M692.8,11.3l0.5-0.4l-1.5-0.2l-0.5,0.4L692.8,11.3z"/>
	<path class="st0" d="M1898.4,1.5c-2.9,0.1-3.3-0.3-4.5-0.5H1879c0,0,0,0.1,0,0.2c-0.7,0-1.4,0-2,0c0-0.1,0-0.1,0-0.2h-4.1
		c0,0.6-0.9,1.1-3.9,1.3c-2.1-0.5-4-1-6.9-1.3h-7.9c-0.3,0.1-0.6,0.2-0.8,0.3c1.5,0,4,0,1.9,0.4c0.3,0-1.2,0-2.4,0
		c-0.3,0.4,0.1,0.9,1,1.3c-5.2,0-5.4-1.1-6.9-2h-8.6c-0.8,0.1-1.7,0.2-3.1,0.3c-1-0.1-1.9-0.2-2.8-0.3H1781c-0.5,0-1.2,0-1.9,0h-13
		c2.4,0.7,6,1.1,6.3,2.2c-11.4,1.9-27.8,3.4-39.7,0.5c-9.1,0.4-17.8,1-26.3,0.9c-0.3-0.8-2.5-1.1-5.3-1.3c-3.6,0.9-7.2,2.5-13.1,1.1
		c-4.1,0.2-5.6,1-7.9,1.6c1.4,0.2,3.8,0.2,4.2,0.7c-1.7,0.7-6.3-0.2-8.1,0.7c-2.8-0.5-1.8-0.9-1.3-1.8c-13.7-0.8-24.7-0.7-35-2.1
		C1629,4.7,1618,4,1607.3,3.8c-2.7,0-5.6,0.3-8.1,0.2c-2.6,0-5.4-0.4-8.2-0.4c-6.1-0.1-12.3,0.3-18.3,0.3c-7.3,0-13.5-0.6-20.5-0.4
		c-7.4,0.2-14.9,0.5-23.4,0.1c-2-0.1-4-0.6-6.2-0.6c-5.8-0.2-11.3,0.4-16.2,0.5c-6,0.1-12.3-0.6-15.3,0.3c-6.7-0.6-13.7,0-19.5-1
		c-13.3-0.1-26.8,1.1-40.7,0.8c-7.3-0.2-17.8-0.7-23.4,0.1c-5.3-1.1-17.9-0.5-25.7-1c-2.7-0.1-0.7,0.9-4,0.7c-2.2,0-4.7-0.1-7.3-0.2
		c-0.1,0-0.2,0.1-0.4,0.2c5.1,0.3,4.1,1.8,1.8,2.5c-2.3-0.1-3.6-0.3-6.7-0.2c-4.6,1.9-22.8,0.4-24.3,3.3c-3.9,0.1-3.8-0.7-8.6-0.4
		c-0.8,0.9-2.6,1.5-6.8,1.7c-1.3-0.6-0.2-0.7,0.1-1.4c-2.8-0.3-14.5,0.1-14.3-1.4c2.1-0.4,9.5,0.6,9.7-0.6c-4.5-0.1-4.3-1.1-9.6-1
		c-1.4-0.5,0.4-0.9-0.9-1c-7,0.1-16.2-0.4-24.3-0.4c-0.8,0-1.7,0-2.5,0c-0.7,0-1.4,0-2,0l0.2-0.1c-2.7-0.2-5-0.6-7.8-0.6h-0.1
		c-0.2,0.1-0.7,0.2-0.9,0.3c0.5,0,1.1,0.2,0,0.2c0.2-0.4-3.4-0.1-4.8-0.2c-3,0.2-5.8,0.5-9.4,0.2c-12.3,1.1-30.1,2.4-44.7,1.2
		c-8.3,1-20.1,1.1-27.5,0.3c-11.8,0.9-27.5-0.3-36.5,1.2c1.5,0.1,2.6,0.3,3.2,0.7l-1.5,0.1c1.1,0,2.1,0.1,3.1,0.2l5.1,0.3
		c-1.8,0-3.4-0.1-5.1-0.3l-3.1-0.2l0.4,0.2c0.1,0,0.2,0,0.3,0c0,0-0.1,0-0.2,0.1h0.1c-0.1,0-0.1,0-0.2,0c-2.2,0.8-9.1,0.9-11.9,0.2
		c-2.7,0-5.3-0.1-8.3-0.2c2,1.3-4.3,1.8-7.9,1.8c-3.2,0-7.7-1-13.4-1.1c-1.8,0-3.9,0.4-5,0.5c-2.5,0.1-4.8-0.1-6.8-0.1
		c0.8,0.4,1,0.9,0.5,1.3c2.4,0,4.9,0,4.8,0.6c-2.3,0.6-8.1,0.5-9.7,1.2c1.3,0.3,2.5,0.7,1.8,1.4c-5.3,0-5.3,1.1-7.8,1.7
		c-3.3-0.3-7.9-0.4-12.5-0.4c-4.4,0.7-8.3,1.6-12.7,2.3c-2.3,0.1-2.1-0.4-4.8-0.2c-4.8,1.1-13.3,1.1-18.4,1.3
		c-0.3-2,6.7-1.1,9.7-1.7c-5.1-0.9-13.9-1-21.1-1.4c1.7-1,3.8-1.8,8.8-2.1c-3.8-0.3-6.9-2.4-16.3-1.4l-1-0.1c0,0.2-0.1,0.3-0.2,0.5
		l0.2-0.5l-1,0.1c-1.1-0.3-1.1-0.5,0-0.8c-2.6-0.3-8.3,0-9.6-0.6c0.7,0,0.7-0.1,0.5-0.3c-1.8-0.1-3.6-0.3-5.6-0.4
		c-2.5,0.5-6.7,0.6-10,0.9c0.6-1-1.6-1.4-4.2-1.7c-6.2,0.2-11.4,0.8-13.4,1.8h-1l2.4,0.1c-0.8,0-1.8,0-2.4-0.1v0.2
		c-0.9-0.5-5.3,0.5-6.7-0.2l0.5-0.3l-1.4-0.1c0.4-0.3,3-0.2,2-0.8c-2.5,0-3.8,0.3-3.9,0.8l-0.5,0.3l1.4,0.1
		c-1.3,0.3-4.5,0.6-6.3,0.5c-4,0.8-8-1.2-13.5-1.3s-9.8,0.2-10.9,1.8c-6,0-12.1-0.4-18.5-0.8c-3.6,0.3-5.8,1.2-10.1,0.7l0.5-0.3
		c-0.7,0.1-1.4,0.1-2.1,0.1l-2.4,0.1c0.7-0.1,1.6-0.1,2.4-0.1l2.1-0.1l-1.5-0.1c0-0.2,0.8-0.3,0.9-0.4c-1.9-0.5-6.2-0.5-9.2-0.2
		c-5.8-0.9-12.8-2-21.6-1c-2.9-0.2-4.3-0.7-8.3-0.6c-3.2,0.1-3.5,0.8-7,0.9c-16.8-0.3-32.1,0-48-0.8c-11.9,1.9-37-0.2-44.4,2.8
		c0.1,0.4,0.1,0.7,0.2,1.1c-7.4-0.5-11.6-1.6-17.7-2.4l0.5-0.3c-1.6,0.1-3.3,0.1-4.1,0h4.1l-1.5-0.1c1.1-0.8,7.4-0.6,5.8-2
		c-4.9,0.1-8.9-0.1-12.7-0.4c0.9,0.2,1.7,0.3,2.2,0.5c-3.2,0.3-6.6,1.6-10.7,2.3c-3.2,0.5-6.6,0.3-3,1c-3.7,0.5-11,1.2-16.4,0.6
		c1.9,0.1,3.2-0.9,1-1c-0.6,0.6-2.4,1-5.8,1c-3.1-0.1-3.4-0.8-6.7-0.8c-3.9,0.3-7.4,0.7-11.6,0.4c-6.4,0.3-13.2,0.9-15.4,0
		c1.3-1,9.1-0.5,14.5-0.6c3.8-0.3,7.8-0.5,10.7-1c-5.5-1.3-15-0.2-21.2,0.4c1.6-1.7,6.5-2.3,1.2-3.3c-3.3,0.5-4.5-0.2-7.7,0.2
		c0.6-0.7,0-1.1,2.1-1.9c-4.2-0.3-6.4-1.2-12.5-0.6c1.1,1-4.1,1.3-5.8,1c0.2-0.9,2.8-1.3,4-2.1c-2.6-0.3-0.3-1-4.7-1.2
		c-0.2-0.6,2.1-0.9,2.5-1.3h-7.4c-0.6,0-1.2,0.1-1.9,0.1c-0.1,0.3-0.8,0.6-2.5,0.6c0.3-0.2,0.4-0.4,0.6-0.6h-23.7
		c-1.6,0-3.2,0-4.8,0h-54c0.4,0.1,0.9,0.3,1.3,0.4c-6.4-0.2-14.8,0-20.5-0.4h0.3h-4.4h0.1C532.7,1.9,520,2,507.7,2.1
		c-12-0.3-23.4-0.1-34.7,0c-0.4,0.2-1.4,0.2-1.8,0.4c-1.7-0.1-3.7-0.2-5.6-0.3c-3.6,0-7.2,0.1-10.8,0.1c-0.3,0.1-0.6,0.1-0.9,0.2
		c-0.4-0.1-0.9-0.2-1.4-0.2c-3.4,0-6.8,0.1-10.1,0.1c-3.3,0.2-6.7,0.3-9.6,0.1c-1.5,0-3,0-4.6,0c-2.4,0.4-5.5,0.9-6.8,0.8
		c-2.4-0.2-5.6-0.4-9.1-0.7c-2.6,0-5.1,0-7.6,0c-7.9,0-15.9,0.4-23.8,0.6c-1.1,0.2-2.2,0.4-3.2,0.6c-0.6-0.1-1.5-0.3-2.5-0.4
		c-4.7,0.1-9.3,0.2-13.8,0.1c-0.4,0-0.8,0-1.2-0.1c-0.3,0.1-0.6,0.3-0.8,0.4c-3-0.2-6-0.5-9.2-0.7c-2.2,0.1-4.4,0.3-7.1,0.3
		c0,0.2,0,0.4,0,0.6c-8.1,0.7-20,0.6-27,1.5C338.4,5.1,361,6,374.9,3.8c11.2-0.2,16.7,0.8,22,1.8c2.9,0.1,8.3-0.3,9.6,0.2L406,6.1
		l1.4,0.1c-3.2,0.6-9.1-0.1-9.7,0.6c3.2-0.1,3.5,0.3,3.8,0.8c-1.4,0.9-7.5,0.7-8.8,1.7c5.1,0.1,6.4,0.2,9.6,1
		c-3.7,0.9-13.2,0.5-13.6,2.1c1.2,0.2,3.5,0.2,4.8,0.4c1.8-0.5,2.7-1.1,4.9-1.4c3.9-0.1,3.8,0.7,8.6,0.4l-0.5,0.3
		c1.9-0.1,3.8-0.2,5.8-0.2l-5.8,0.2l1.4,0.1c-4,0.3-7.4,0.5-6.8,1.2c8.1-0.5,9.8,0,20.2-0.4c0.2,0.9,7.6,0.5,8.6,0.6l-0.5,0.3
		c0.6-0.1,1.3-0.2,1.9-0.2l-1.9,0.2l1.4-0.1c0.1,0.4-0.3,0.6-1,0.8c-12.8,0.3-18.5-0.1-30.8,0.7c-3-0.4-5.7-0.2-9.6-0.2
		c-8.8-0.1-14.9-0.8-22.1-1c-22.1-0.5-39.3-1.3-62.5-1.6c-0.3-0.3-1.3-0.4-0.9-0.8l0.5-0.3c-3.4,0-6.6-0.1-9.8-0.2l-4.6-0.1l0.4,0.4
		c-1.3,0.2-3.6,0.2-4.8,0.4c1.1-0.8-3.6-0.3-2.8-1c1.2-0.2,7.6-0.4,8.7,0l-1.5,0.2c1.5,0,3.1,0,4.6,0.1l9.8,0.2l-0.5-0.3
		c9.4-0.4,16.2-1.4,19.5-3.1c-1.8-0.5-6.4-0.4-10.6-0.4c0,0.1,0.1,0.2,0.2,0.2c-2.2-0.2-4.8-0.3-6.6-0.5c-0.9,0.1-1.8,0.2-2.7,0.2
		l2.6-0.2c-0.7-0.1-1.3-0.3-1.6-0.5c-6.9-0.5-15.3-0.3-23.5-0.3c0.3,0.6-3,0.5-1.9,1.3c-2.4,0.1-3.9,0-5.1-0.2l0.9-0.7
		c0.5-0.2,1.4-0.3,2.6-0.4c-3.1,0-6.2-0.1-9.2-0.2c0.8,0.2,1.9,0.2,2.4,0.4l-1,0.6c-1.1,0.2-0.2,0.8-2.9,0.7
		c0.2-1.2-7.5-0.6-7.4-1.7l1.5-0.1c-2.8,0.1-5.7-0.2-7.6-0.6c-0.2-0.2-0.3-0.3-0.5-0.5c-0.1,0-0.3,0-0.4,0l-0.2,0.2
		c-1,0-2-0.1-3-0.1c-8.8,0.1-17.8,0.3-24.9-0.6c1,0,1.2-0.4,0-0.4c-1.4,0-3.5-0.1-3.9,0.2c1.3,0.3,0.5,1,1.8,1.2
		c-4.1,0.5-14.2-0.3-20.2,0.4c-0.1-0.3-0.5-0.6-1-0.8c-6.1,0.3-10.2,0.7-15.1,0c-3,0.3-4,1-6.9,1.3c-1.4-0.4-4.6-0.5-7.2-0.6
		c-0.8,0.5-5.7,0.3-4.9,1.1c-5.7-0.5-12.7-0.8-15.6-1.9c-7,0.1-15.5,0.1-25.4,0.3c-1,0.5-3.4,0.7-2.8,1.5c-2.4-0.8-2.8,0.2-6.1,0.2
		c-5.2,0-13-0.8-17.4-0.2c1.2,0.3-0.1,0.7-2,0.9C97.9,8,98,8,98.1,8h-0.5c-1.2,0.2-2.6,0.3-3.8,0.4c-0.2-0.6-1.6-0.8-4.2-0.9
		c-1.1,0.4-8,0.8-10.2,0.2c4.2,0.1-0.2-0.3,0.9-0.9l-0.6-0.3c-0.7,0.2-1.8,0.3-2.9,0.3c-1.1-0.1-1.6-0.3-2.3-0.5L74,6.6
		c-0.1,0-0.2,0-0.3,0l-0.2,0.1c1,0,1.6,0.1,1.9,0.2l4.7,0.6c-0.9,0-1.9,0-2.8,0c-1.1-0.1-1.4-0.4-2-0.6l-1.9-0.2l0.5,0.2
		c-0.3,0-0.6,0-1,0c0.4,0.5-1.8,0.4-1,1c-1.3,0-2.6,0-3.9,0c0-0.4-0.3-0.7-0.8-0.9c-0.3,0.1-0.8,0.2-1.4,0.3
		c0.2-0.4-1.2-0.5-1.2-0.9c-1.2,0.1-2.5,0.1-3.5,0.1c-0.6-0.1-1.2-0.3-1.2-0.5l4.3,0.3c-0.5-0.4-2.9-0.4-0.9-0.8
		c0.9,0.1,2,0.1,3.3,0.2c-0.1-0.1-0.1-0.2-0.1-0.3c5.7,0.2,3.8-0.2,5-0.7c0.2,0.3,0.4,0.5,2.1,0.4c1.8-0.4-0.7-0.4-0.2-1.1
		C86.2,3.2,96,3.3,106.7,1.9c3.2-0.1,2.8,0.6,5.2,0.6c-1-0.8,2-0.9,3.9-1.1c8.6,2.3,28.9,1.5,43.6,1.1c2-0.2,4.8-0.2,7.5-0.2
		c0.1-0.3,1.7-0.3,2.4-0.5c1.9,0.2,4.8,0.2,7.5,0.2c0.5-0.1,0.8-0.3,0.8-0.6c-0.7,0-1.1-0.2-0.9-0.4h-5.1c-2.3,0.2-3.9,0.5-6.5,0.6
		c-4.2-0.3-9.2-0.4-13.7-0.6h-23.3c-0.8,0.1-1.6,0.2-2.5,0.2c-3-0.3-8.8-0.3-10.6,0.2c-1.9-0.1-3.9-0.3-6.1-0.5H87.6
		C88.8,1.3,88,1.5,89,1.7c1.2-0.5,4.8-0.3,6.7,0c-3.8,1.5-8.9,1.1-18.3,0.8c0-0.8,3.5-0.8,3.9-1.6h-2.5c-0.1,0-0.2,0.1-0.4,0.1
		c-0.6,0.1-1.1,0-1.6,0h-1.7c-0.8,0-1.7,0.1-3.4,0.1c-0.3,0-0.4-0.1-0.5-0.1h-9.9c-0.2,0.1-0.6,0.3-1.1,0.4C58,1.3,55.9,1.1,53.8,1
		H0v24h1920V1h-23.6C1897.3,1.1,1897.9,1.3,1898.4,1.5z M405.8,6.3c1-0.1,1.9-0.1,2.9-0.1L405.8,6.3z M293.4,9.6c-0.6,0-1.3,0-1.9,0
		c0-0.2-0.8-0.2-0.9-0.4C292.1,9.2,293.9,9.2,293.4,9.6z M288.7,7.4l-1.8-0.1C287.3,7.3,288,7.4,288.7,7.4z M51.2,5.1
		c-2,0.4-1.9-0.2-3.9,0.2C45.8,4.7,51.5,4.7,51.2,5.1z M51.9,7.3c-5.7-0.2-9.4,0.2-15.3-0.2c0.8-0.6,0.8-0.7-0.2-1.3
		c11,0.7,19.8-1.8,23.5,0.4C55,6.1,55.8,7.2,51.9,7.3z M85.3,12.3C80.4,13,77,12.2,75,11.5c4-0.3,7.8-1.6,13.1-0.9
		C89.1,11.6,83.4,11.2,85.3,12.3z M102.2,9.6C101.5,8.9,100,9.2,99,9c0.6,0,1.2,0,1-0.2c0.7,0,1.4,0,2,0
		C100.7,9.3,104.8,9.6,102.2,9.6z M109.1,11.1c1-0.1,2-0.1,3-0.1L109.1,11.1z M181.5,14.7c0.6,0,1.2,0,1-0.2c0.7,0,1.4,0,2,0
		C186.2,15,181.2,15.2,181.5,14.7z M187.7,14.9C191.1,14.4,182.4,14.4,187.7,14.9L187.7,14.9z M381.3,20c4.8-0.3,10-0.4,15.2-0.5
		L381.3,20z M400.5,19.8l0.5-0.4l-1.4-0.2c2.8-0.7,8.8-0.7,10.6,0.2C408,19.7,404.8,19.8,400.5,19.8z M431.8,5.8l6.3-0.1
		C436.1,6,433.9,5.9,431.8,5.8z M480.1,10.8c1.4,0.1,5-0.3,4.8,0.2C483.5,10.9,479.9,11.2,480.1,10.8z M504.6,4.8
		c-9.1,2.3-31.8,1.2-46.3,0.7l1.5-0.1l-4.4,0.1c-1.4,0.1-2.8,0.2-4.3,0.1l4.3-0.1c1.4-0.1,2.9-0.2,4.4-0.1l-0.5-0.3
		c2.2-0.3,5.1-0.4,7.8-0.6c-0.2-0.3-1.6-0.3-1.9-0.6c9-0.3,20.3-1.3,23,0.8c5.5,0,11.1,0,15.4-0.2l-0.5,0.3c1.3-0.1,2.6-0.1,3.9-0.1
		l-3.9,0.1C503.1,4.8,504.6,4.8,504.6,4.8z M538.6,13.6c-1.3-0.7,5.8-0.5,5.8-0.2C542.1,13.4,541.5,13.7,538.6,13.6z M579.8,1.2
		l2.8-0.1C581.7,1.3,580.8,1.2,579.8,1.2l-2.3,0.1C578.2,1.2,579,1.2,579.8,1.2z M585.3,12.5c-4.8-0.1-8.8-0.4-13.4-0.7L585.3,12.5z
		 M568.9,13.3l-12.7,0.2C560.5,13.4,564.6,13.1,568.9,13.3z M568.9,21c1.3-0.3,4.2-0.2,6.8-0.2C576.8,21.4,569.1,21.2,568.9,21z
		 M597.7,21.7C595.6,21.1,591.5,22,597.7,21.7L597.7,21.7z M625.4,11.6l-8.3,0.4l1.4,0.1c-10.9,0.2-25.2,1.6-34.7,0.7l1.5-0.2
		l-0.5-0.4c11.2-0.4,20.7-1.2,32.8-0.5l-0.5,0.3C619.8,11.6,622.6,11.6,625.4,11.6l8.6-0.4C631.4,11.5,628.4,11.5,625.4,11.6z
		 M643.1,18.6c0-0.1,0-0.3,0-0.4c-0.6,0-1.1,0-0.9-0.2c2.3,0.1,7-0.3,7.7,0.2C645.9,17.9,646.1,18.6,643.1,18.6z M658.6,17.7
		c0.6-0.1,3.7-0.5,3.8,0C661.9,17.8,658.7,18.2,658.6,17.7z M852.6,16.1c0-0.2-0.1-0.4-0.1-0.7c2.7-0.2,2,0.5,3.2,0.7
		C854.7,16.1,853.7,16.1,852.6,16.1z M866.8,15.6c0.6,0,1.2,0,1-0.2c0.7,0,1.4,0,2,0C871.5,15.9,866.5,16.1,866.8,15.6z M875.2,10.3
		c2.5,0,3.1-0.4,4.1,0.2c-2,0-1.2,0.6-4,0.5C875.2,10.8,875.2,10.5,875.2,10.3z M876,15.6c1.3-0.3,6-0.4,6.2,0.2
		C880.3,15.7,876.2,16.1,876,15.6z M884.4,10.5c0-0.2-0.1-0.4-0.1-0.7C887.2,9.5,887.4,10.8,884.4,10.5z M971.9,24.9
		c-2.4-0.3-3.3-0.9-2.8-1.8c1.9,0,3.9,0,5.8,0C976.9,23.8,975.1,24.6,971.9,24.9z M1131,9.7c-0.9-0.9,5.3-0.8,5.1,0
		C1134.4,9.7,1132.7,9.7,1131,9.7z M1181,7.3l-0.5,0.4l1.4,0.2c-4,0.2-15.1,0.1-17.3-0.8C1168.8,6.3,1177.2,6.8,1181,7.3z
		 M1162.1,10.4l-5.9,0.1C1158.2,10.4,1160.2,10.4,1162.1,10.4l22.1-0.3C1176.9,10.8,1169.5,10.4,1162.1,10.4z M1180.5,7.7l7.7-0.3
		C1185.7,7.5,1183.2,7.6,1180.5,7.7z M1223.1,11.3c-6-1.2-12.8,0.2-19.2-0.2l0.5-0.4l-1.4-0.2c0.2-0.3,2.3-0.2,3.9-0.2
		c4.2-1.6,20.8-1.5,27-0.5C1228.2,9.9,1226.9,10.9,1223.1,11.3z M1234.8,9c4.1,0.1,11.4-0.4,12.5,0.4
		C1244.3,10.3,1234.7,10.6,1234.8,9z M1259,7.6c-2.6,0-1.9-0.3-3.8,0C1253.7,7,1260.5,6.9,1259,7.6z M1269.9,9.3
		c2.7-0.1,5.4-0.1,8.2-0.1L1269.9,9.3z M1285.3,9.3c0.5-0.1,1.2-0.1,1.9-0.2L1285.3,9.3z M1282.2,5.3c1.8,0,6.4-0.5,7.7,0
		C1287.4,5.1,1283.9,5.9,1282.2,5.3z M1300.3,7.9c0.7-0.6-4.5,0.2-3.8-0.4c2.4,0,3-0.3,4.8-0.4C1301.2,7.4,1301.6,7.9,1300.3,7.9z
		 M1317.3,12.6c1.3-0.3,3.6-0.3,3.8,0.2C1319.7,12.8,1317.6,12.9,1317.3,12.6z M1653.3,8.6c3.5-0.2,5.4-0.9,9.6-0.7L1653.3,8.6z
		 M1773.1,1.9c3.2,0,6.2,0,7.2,0.4C1777.9,2.1,1772.4,2.7,1773.1,1.9z M1781.1,1.6C1784.7,1,1778.2,1,1781.1,1.6L1781.1,1.6z
		 M1802.1,3.9c5.4,1.2-4.8,2.2-7.8,0.8c2.2-0.4,4.2-0.8,4.9-1.4c1.3,0,2.1,0.1,2.9,0.2l-0.5,0.2l4.3-0.2c-1,0-2.7,0.2-4.3,0.2
		L1802.1,3.9z M1810,14.4c0.2-0.2-0.1-0.6,1-0.6c0.1,0.1,0.1,0.2,0.9,0.2C1811.8,14.2,1811.6,14.4,1810,14.4z M1814.8,14.3
		c0-0.1-0.1-0.2-0.9-0.2c0-0.1,0-0.3,0-0.4C1816.3,13.4,1816.7,14.4,1814.8,14.3z M1822.6,13.1c1.3-0.2,3.6-0.2,4.8-0.4
		C1828.3,13.2,1822,13.3,1822.6,13.1z M1828.6,10c1.7,0,2.5,0.2,2.9,0.4C1829.9,10.4,1828.1,10.4,1828.6,10z M1840.1,10.6
		c1.3-0.3,3.6-0.3,3.8,0.2C1842.5,10.8,1840.4,10.9,1840.1,10.6z M1845.2,6.5c-1.2-0.2-2.8-0.2-4.5-0.3c0.4,0.2,1.1,0.3-0.3,0.5
		c-0.1-0.2-1-0.3-0.7-0.5c-3.7-0.1-7.7-0.1-9.9-0.5c-0.1-0.1-0.1-0.1-0.2-0.2c-0.5,0-1.1,0-1.6,0c0-0.1,0-0.3,0-0.4
		c0.6,0,1.1,0,1.7,0c0.4-0.4,1.9-0.6,1.8-1.1c-0.4-0.7-5.8-0.3-6.3-1.1c1.7-0.8,9.9-0.2,13.1-0.7C1842.4,3.2,1846,4.4,1845.2,6.5z
		 M1853,5.4c0.1,0.7,1.8,1.1-1.1,1.4C1852.5,6.5,1850.8,5.5,1853,5.4z M1852.1,11.4C1856.7,11.2,1851.1,10,1852.1,11.4L1852.1,11.4z
		"/>
	<path class="st0" d="M65.7,6.4c-0.2,0-0.5,0-0.7,0C65.3,6.4,65.5,6.4,65.7,6.4z"/>
	<path class="st0" d="M76.2,6.2c0,0.1,0,0.1,0,0.2l2.1,0.1c0-0.1,0-0.2,0-0.3C77.5,6.2,76.8,6.2,76.2,6.2z"/>
	<path class="st0" d="M1179.6,1.4c0.3-0.1,0.7-0.3,1.1-0.4h-10.2C1172.6,1.3,1174.8,1.7,1179.6,1.4z"/>
	<path class="st0" d="M1224.4,1.1c0.2,0,0.4,0,0.7-0.1h-2.5C1223.2,1,1223.8,1,1224.4,1.1z"/>
	<path class="st0" d="M1160.2,1.2c1.8,0.1,2.9-0.1,3.7-0.2h-4.7C1159.5,1.1,1159.9,1.1,1160.2,1.2z"/>
	<path class="st0" d="M343.4,10.2C342.2,9,336.1,10,331,9.8C332.4,10.7,340.7,10.6,343.4,10.2z"/>
	<path class="st0" d="M960,10.1c0.2-0.6,1.6-1.2,3.9-1.6c-2.2,0.2-4,0.6-5.2,1.2C958.8,9.8,959.4,10,960,10.1z"/>
	<path class="st0" d="M730.6,6.5c1.8-0.1,3.8-0.1,5.7,0c-1-0.1-2-0.2-3-0.3C732.4,6.3,731.5,6.4,730.6,6.5z"/>
	<path class="st0" d="M313.9,6.5c0.2,0.4,1.6,0.5,3.8,0.4C318.7,6.3,315.6,6.6,313.9,6.5z"/>
	<path class="st0" d="M974.9,23c-1.9,0-3.9,0-5.8,0c-0.6,0.9,0.4,1.5,2.8,1.8C975.1,24.6,976.9,23.8,974.9,23z"/>
	<path class="st0" d="M597.7,21.7C595.6,21.1,591.5,22,597.7,21.7L597.7,21.7z"/>
	<path class="st0" d="M568.9,21c0.2,0.3,7.9,0.5,6.8-0.2C573.1,20.7,570.1,20.7,568.9,21z"/>
	<path class="st0" d="M399.6,19.1l1.4,0.2l-0.5,0.4c4.2,0.1,7.4-0.1,9.7-0.4C408.4,18.4,402.4,18.4,399.6,19.1z"/>
	<path class="st0" d="M642.2,18c-0.2,0.2,0.4,0.2,0.9,0.2c0,0.1,0,0.3,0,0.4c3,0,2.8-0.7,6.8-0.4C649.2,17.7,644.5,18.1,642.2,18z"
		/>
	<path class="st0" d="M662.4,17.7c-0.5,0.1-3.7,0.5-3.8,0C659.2,17.7,662.4,17.2,662.4,17.7z"/>
	<path class="st0" d="M1811,13.7c-1.1,0-0.8,0.4-1,0.6c1.6,0.1,1.8-0.2,1.9-0.4C1811.1,14,1811.1,13.9,1811,13.7z"/>
	<path class="st0" d="M1813.9,13.7c0,0.1,0,0.3,0,0.4c0.8,0,0.9,0.1,0.9,0.2C1816.7,14.4,1816.3,13.4,1813.9,13.7z"/>
	<path class="st0" d="M1321.1,12.8c-1.4,0-3.5,0.1-3.8-0.2C1318.6,12.4,1320.9,12.4,1321.1,12.8z"/>
	<path class="st0" d="M544.4,13.4c-2.3,0-2.9,0.3-5.8,0.2C537.3,12.9,544.4,13.1,544.4,13.4z"/>
	<path class="st0" d="M1843.9,10.8c-1.4,0-3.5,0.1-3.8-0.2C1841.4,10.3,1843.7,10.3,1843.9,10.8z"/>
	<path class="st0" d="M1206.8,10.3c-1.5,0-3.7-0.1-3.9,0.2l1.4,0.2l-0.5,0.4c6.4,0.4,13.3-1,19.2,0.2c3.8-0.4,5.2-1.4,10.7-1.5
		C1227.6,8.8,1211,8.7,1206.8,10.3z"/>
	<path class="st0" d="M1831.4,10.4c-0.4-0.3-1.2-0.4-2.9-0.4C1828.1,10.4,1829.9,10.4,1831.4,10.4z"/>
	<path class="st0" d="M1234.8,9c-0.1,1.6,9.4,1.3,12.5,0.4C1246.2,8.6,1238.9,9.2,1234.8,9z"/>
	<path class="st0" d="M484.9,11c-1.4-0.1-5,0.2-4.8-0.2C481.5,10.9,485.1,10.5,484.9,11z"/>
	<path class="st0" d="M291.5,9.6c0.6,0,1.3,0,1.9,0c0.5-0.4-1.3-0.4-2.9-0.4C290.7,9.4,291.5,9.4,291.5,9.6z"/>
	<path class="st0" d="M1181.9,7.9l-1.4-0.2l0.5-0.4c-3.9-0.4-12.2-1-16.3-0.2C1166.8,8,1177.9,8.1,1181.9,7.9z"/>
	<path class="st0" d="M1300.3,7.9c1.3-0.1,0.8-0.5,1-0.8c-1.8,0.1-2.4,0.4-4.8,0.4C1295.8,8.1,1301.1,7.4,1300.3,7.9z"/>
	<path class="st0" d="M1851.9,6.9c2.9-0.4,1.1-0.8,1.1-1.4C1850.8,5.5,1852.5,6.5,1851.9,6.9z"/>
	<path class="st0" d="M1255.1,7.6c1.9-0.3,1.2,0,3.8,0C1260.5,6.9,1253.7,7,1255.1,7.6z"/>
	<path class="st0" d="M1799.2,3.3c-0.7,0.7-2.8,1.1-4.9,1.4c2.9,1.4,13.2,0.3,7.8-0.8l-0.5-0.2l0.5-0.2
		C1801.3,3.4,1800.6,3.3,1799.2,3.3z"/>
	<path class="st0" d="M1838.4,2.1c-3.2,0.5-11.5-0.1-13.1,0.7c0.4,0.7,5.9,0.3,6.3,1.1c0.1,0.5-1.4,0.7-1.8,1.1c-0.6,0-1.1,0-1.7,0
		c0,0.1,0,0.3,0,0.4c0.5,0,1.1,0,1.6,0c0,0.1,0.1,0.1,0.2,0.2c2.2,0.4,6.2,0.4,9.9,0.5c-0.3,0.1,0.6,0.3,0.7,0.5
		c1.3-0.1,0.7-0.3,0.3-0.5c1.7,0.1,3.3,0.1,4.5,0.3C1846,4.4,1842.4,3.2,1838.4,2.1z"/>
	<path class="st0" d="M1282.2,5.3c1.7,0.6,5.1-0.1,7.7,0C1288.7,4.7,1284,5.2,1282.2,5.3z"/>
	<path class="st0" d="M503.1,4.7l0.5-0.3c-4.3,0.3-9.9,0.2-15.4,0.2c-2.7-2.1-14-1.1-23-0.8c0.3,0.3,1.7,0.3,1.9,0.6
		c-2.6,0.2-5.5,0.3-7.8,0.6l0.5,0.3l-1.5,0.1c14.5,0.5,37.1,1.6,46.3-0.7H503.1z"/>
	<path class="st0" d="M51.2,5.1c-2,0.4-1.9-0.2-3.9,0.2C45.8,4.7,51.5,4.7,51.2,5.1z"/>
	<path class="st0" d="M1781.1,1.6C1784.7,1,1778.2,1,1781.1,1.6L1781.1,1.6z"/>
	<path class="st0" d="M282.7,11.1c-0.8,0.7,3.9,0.2,2.8,1c1.3-0.2,3.6-0.2,4.8-0.4l-0.4-0.4l1.5-0.2C290.4,10.7,284,10.9,282.7,11.1
		z"/>
	<path class="st0" d="M677.3,11.3c2.2,0.9,9,0.3,15.4,0l-1.4-0.2l0.5-0.4C686.5,10.8,678.7,10.4,677.3,11.3z"/>
	<path class="st0" d="M1827.4,12.7c0.9,0.5-5.4,0.6-4.8,0.4C1823.9,12.9,1826.2,12.9,1827.4,12.7z"/>
	<path class="st0" d="M617.2,11.9l0.5-0.3c-12-0.7-21.6,0-32.8,0.5l0.5,0.4l-1.5,0.2c9.5,0.9,23.8-0.5,34.7-0.7L617.2,11.9z"/>
	<path class="st0" d="M396.5,19.5c-5.2,0.1-10.5,0.1-15.2,0.5L396.5,19.5z"/>
	<path class="st0" d="M568.9,13.3l-12.7,0.2C560.5,13.4,564.6,13.1,568.9,13.3z"/>
	<path class="st0" d="M1156.2,10.5c2-0.1,4-0.1,5.9-0.1L1156.2,10.5z"/>
	<path class="st0" d="M1162.1,10.4l22.1-0.3C1176.9,10.8,1169.5,10.4,1162.1,10.4z"/>
	<path class="st0" d="M1269.9,9.3c2.7-0.1,5.4-0.1,8.2-0.1L1269.9,9.3z"/>
	<path class="st0" d="M1287.3,9.1c-0.8,0.1-1.5,0.1-1.9,0.2L1287.3,9.1z"/>
	<path class="st0" d="M1180.5,7.7l7.7-0.3C1185.7,7.5,1183.2,7.6,1180.5,7.7z"/>
	<path class="st0" d="M1801.6,3.7c1.7,0,3.3-0.2,4.3-0.2L1801.6,3.7z"/>
	<path class="st0" d="M73.7,6.7l1.9,0.2C75.3,6.8,74.7,6.7,73.7,6.7z"/>
	<path class="st0" d="M80.4,7.5l-4.7-0.6c0.6,0.2,0.8,0.5,2,0.6C78.5,7.5,79.4,7.5,80.4,7.5z"/>
	<path class="st0" d="M507,4.6c-1.3,0-2.6,0-3.9,0.1L507,4.6z"/>
	<path class="st0" d="M459.8,5.4l-4.4,0.1C456.8,5.4,458.3,5.2,459.8,5.4z"/>
	<path class="st0" d="M451.1,5.6l4.3-0.1C454,5.6,452.6,5.7,451.1,5.6z"/>
	<path class="st0" d="M431.8,5.8l6.3-0.1C436.1,6,433.9,5.9,431.8,5.8z"/>
	<path class="st0" d="M294.5,11.4c-1.5,0-3-0.1-4.6-0.1L294.5,11.4z"/>
	<path class="st0" d="M304.4,11.6l-9.8-0.2C297.8,11.5,301,11.6,304.4,11.6z"/>
	<path class="st0" d="M429.3,14.1l1.9-0.2C430.6,13.9,430,14,429.3,14.1z"/>
	<path class="st0" d="M406.3,12.2l5.8-0.2C410.2,12.1,408.2,12.1,406.3,12.2z"/>
	<path class="st0" d="M408.7,6.1c-1,0-2,0.1-2.9,0.1L408.7,6.1z"/>
	<path class="st0" d="M975.8,10.3c0.6,0.1,1.5,0.1,2.4,0.1L975.8,10.3z"/>
	<path class="st0" d="M1020,11.3l-0.2,0.5C1019.9,11.7,1020,11.5,1020,11.3z"/>
	<path class="st0" d="M617.2,11.9l8.3-0.4C622.6,11.6,619.8,11.6,617.2,11.9z"/>
	<path class="st0" d="M634.1,11.2l-8.6,0.4C628.4,11.5,631.4,11.5,634.1,11.2z"/>
	<path class="st0" d="M571.9,11.8c4.6,0.3,8.7,0.6,13.4,0.7L571.9,11.8z"/>
	<path class="st0" d="M852.5,15.4c0,0.2,0.1,0.4,0.1,0.7c1,0,2,0,3.1,0C854.6,15.9,855.3,15.3,852.5,15.4z"/>
	<path class="st0" d="M867.8,15.4c0.2,0.2-0.4,0.2-1,0.2c-0.3,0.4,4.7,0.3,3-0.2C869.2,15.4,868.5,15.4,867.8,15.4z"/>
	<path class="st0" d="M882.2,15.8c-1.9-0.1-6,0.3-6.2-0.2C877.3,15.3,882,15.2,882.2,15.8z"/>
	<path class="st0" d="M1852.1,11.4C1856.7,11.2,1851.1,10,1852.1,11.4L1852.1,11.4z"/>
	<path class="st0" d="M182.5,14.5c0.2,0.2-0.4,0.2-1,0.2c-0.3,0.4,4.7,0.3,3-0.2C183.9,14.5,183.2,14.5,182.5,14.5z"/>
	<path class="st0" d="M187.7,14.9C191.1,14.4,182.4,14.4,187.7,14.9L187.7,14.9z"/>
	<path class="st0" d="M879.3,10.5c-1-0.6-1.6-0.2-4.1-0.2c0,0.2,0.1,0.4,0.1,0.7C878.1,11.1,877.2,10.5,879.3,10.5z"/>
	<path class="st0" d="M75,11.5c2,0.7,5.4,1.5,10.3,0.9c-1.9-1.2,3.8-0.8,2.8-1.8C82.8,9.9,78.9,11.2,75,11.5z"/>
	<path class="st0" d="M884.3,9.9c0,0.2,0.1,0.4,0.1,0.7C887.4,10.8,887.2,9.5,884.3,9.9z"/>
	<path class="st0" d="M1136.1,9.7c-1.7,0-3.4,0-5.1,0C1130,8.7,1136.3,8.9,1136.1,9.7z"/>
	<path class="st0" d="M36.3,5.8c1,0.6,1,0.7,0.2,1.3c5.9,0.4,9.6-0.1,15.3,0.2c3.9-0.1,3.1-1.2,8-1.1C56.2,4,47.4,6.5,36.3,5.8z"/>
	<path class="st0" d="M1773.1,1.9c-0.7,0.8,4.9,0.3,7.2,0.4C1779.2,1.8,1776.3,1.8,1773.1,1.9z"/>
	<path class="st0" d="M102.1,8.8c-0.7,0-1.4,0-2,0C100.2,9,99.7,9,99,9c1,0.2,2.5-0.1,3.2,0.7C104.8,9.6,100.7,9.3,102.1,8.8z"/>
	<path class="st0" d="M1662.9,7.9l-9.6,0.7C1656.8,8.3,1658.7,7.6,1662.9,7.9z"/>
	<path class="st0" d="M112.1,10.9c-1,0-2,0-3,0.1L112.1,10.9z"/>
	<path class="st0" d="M288.7,7.4l-1.8-0.1C287.3,7.3,288,7.4,288.7,7.4z"/>
	<path class="st0" d="M579.8,1.2l-2.3,0.1C578.2,1.2,579,1.2,579.8,1.2z"/>
	<path class="st0" d="M579.8,1.2l2.8-0.1C581.7,1.3,580.8,1.2,579.8,1.2z"/>
	<path class="st0" d="M752.2,9.6h-4.1C748.9,9.8,750.6,9.8,752.2,9.6z"/>
	<path class="st0" d="M908.4,10.8l-2.1,0.1C907,10.9,907.7,10.9,908.4,10.8z"/>
	<path class="st0" d="M903.8,10.9l2.4-0.1C905.4,10.8,904.5,10.8,903.8,10.9z"/>
	<path class="st0" d="M1151.5,7.3l3.1,0.2C1153.6,7.4,1152.6,7.3,1151.5,7.3z"/>
	<path class="st0" d="M1154.6,7.5c1.7,0.1,3.3,0.3,5.1,0.3L1154.6,7.5z"/>
</g>
</svg>
