<?xml version="1.0" encoding="utf-8"?>
<!-- Generator: Adobe Illustrator 25.1.0, SVG Export Plug-In . SVG Version: 6.00 Build 0)  -->
<svg version="1.1" id="Local_Experts" xmlns="http://www.w3.org/2000/svg" xmlns:xlink="http://www.w3.org/1999/xlink" x="0px"
	 y="0px" viewBox="0 0 500 500" style="enable-background:new 0 0 500 500;" xml:space="preserve">
<style type="text/css">
	.st0{fill:#C43426;}
</style>
<g>
	<path class="st0" d="M465.2,422.8c0,17.1-0.1,34.2,0,51.3c0.1,7.4-2.6,13.3-9.3,16.7c-6.4,3.3-12.7,2.3-18.6-1.7
		c-11.9-8.1-23.9-16.1-35.7-24.3c-2.8-1.9-4.7-2.4-7.8-0.2c-11.6,8.2-23.5,16-35.2,24c-6.2,4.3-12.7,5.6-19.5,2.1
		c-6.9-3.6-9.1-9.9-9.1-17.4c0.1-33.5,0-66.9,0.1-100.4c0-4.1-0.9-7.5-3.2-10.9c-18.8-28.6-18.4-65.7,0.9-93.9s54.1-42.2,87.3-35.2
		c33.5,7.1,59.8,34,65.8,67.8c3.9,22.1-0.4,42.8-12.7,61.6c-2.2,3.3-3.1,6.5-3.1,10.4C465.3,389.4,465.2,406.1,465.2,422.8z
		 M347.4,315.9c0.1,27.5,22.7,50.1,50.2,50.3c27.4,0.1,50.6-23,50.5-50.5c-0.1-27.7-22.5-50-50.3-50.2
		C369.8,265.4,347.3,287.8,347.4,315.9z M364.5,443.2c7-4.7,13.5-9,19.9-13.3c10.8-7.3,15.9-7.3,26.6,0c6.5,4.4,13,8.7,19.9,13.4
		c0-16.9,0-32.9,0-49.4c-10.8,4.1-21.7,6.6-33.2,6.6s-22.3-2.5-33.2-6.5C364.5,410.4,364.5,426.3,364.5,443.2z"/>
	<path class="st0" d="M376.6,127.1C376.5,193,322.9,246.5,257,246.5c-66.1,0-119.8-53.9-119.7-119.9C137.4,60.6,191.4,7,257.5,7.2
		C323.4,7.5,376.7,61.1,376.6,127.1z M342.4,127.1c0.1-47.3-38.1-85.7-85.3-85.7c-47,0-85.4,38.1-85.6,85c-0.2,47.2,38,85.8,85.1,86
		C303.9,212.5,342.3,174.3,342.4,127.1z"/>
	<path class="st0" d="M139.1,485.9c-33.8,0-67.6,0-101.5,0c-13.4,0-20.1-6.6-19.9-20c0.2-20.6-0.9-41.2,3-61.7
		c11.5-61,64.1-112,125.4-121.3c9.5-1.4,19.1-2.2,28.7-2.1c22.2,0.1,44.5,0,66.7,0c10.8,0,18.6,7.1,18.6,17s-7.7,17.1-18.5,17.1
		c-22.8,0-45.6,0-68.4,0c-61,0.1-110,41.5-120.1,101.6c-1.8,10.8-1.4,21.6-1.4,32.5c0,2.2,0.8,2.8,2.8,2.6c1.2-0.1,2.5,0,3.7,0
		c61.1,0,122.1,0,183.2,0c13.4,0,22,11.6,17.4,23.3c-2.7,6.9-9,10.9-17.3,10.9C207.4,485.9,173.2,485.9,139.1,485.9z"/>
</g>
</svg>
