<?xml version="1.0" encoding="utf-8"?>
<!-- Generator: Adobe Illustrator 25.1.0, SVG Export Plug-In . SVG Version: 6.00 Build 0)  -->
<svg version="1.1" id="reliability" xmlns="http://www.w3.org/2000/svg" xmlns:xlink="http://www.w3.org/1999/xlink" x="0px"
	 y="0px" viewBox="0 0 500 500" style="enable-background:new 0 0 500 500;" xml:space="preserve">
<style type="text/css">
	.st0{fill:#C43426;}
	.st1{fill:#FDFDFD;}
	.st2{fill:#6F6F6F;}
</style>
<g>
	<path class="st0" d="M13.3,239.8c0-1.5,0-3.1,0-4.6c1.5-0.9,1.1-1.8,0-2.8c0-9.9,0-19.7,0-29.6c1-0.2,0.9-1.1,1-1.8
		c1-7,1.8-14.1,3.2-21c10-47.8,33.9-87.4,71.3-118.6c27.9-23.3,59.9-38.1,95.8-44.7c6.7-1.2,13.6-1.2,20.1-3.4c11.4,0,22.8,0,34.2,0
		c0.2,0.7,0.7,0.9,1.3,0.9c6.9,0.4,13.8,1.3,20.6,2.7C326.2,30.3,375.4,66.1,407,124.8c25.8,48,30.5,98.9,16.6,151.6
		c-0.7,2.7-0.5,3.9,2.3,5c13.7,5.5,27.9,8.9,42.6,9c8.4,0,14.5,2.7,18,10.4c0,17.3,0,34.5,0,51.8c-1.5,0.5-0.9,1.8-1,2.7
		c-5.2,40.3-22.1,74.7-51.4,102.9c-12.1,11.7-26,20.7-40.9,28.4c-2.5,0-4.9,0-7.4,0c-0.1-0.1-0.1-0.4-0.2-0.4
		c-32.8-15.9-57.3-40.4-74.1-72.6c-1.6-3.1-3.1-2.7-5.6-1.6c-41.1,17.5-83.6,21.8-127.3,12.6c-39.8-8.4-74.3-27-103.2-55.6
		c-30.9-30.6-50.5-67.3-58.7-110.1C15.6,252.6,15.8,245.9,13.3,239.8z M292.5,328.2c0-9.1,0-15.5,0-22c0-9.9,5.5-15.4,15.3-15.6
		c9-0.1,17.8-1.2,26.5-3.2c16.7-3.8,31.8-11.1,45.8-21c4.6-3.3,9.5-4.8,14.7-2.3c3,1.5,3.4,0.5,4-2.1c5.2-23.4,6.1-46.9,2-70.6
		C381.8,83.5,273.3,16.8,169.1,49C84.3,75.2,31.4,157,42.8,245.1c6.2,47.5,28.7,86.2,65.7,116.3c29,23.5,62.3,36.6,99.6,39.5
		c30.7,2.4,60-2.7,88.2-14.9c2-0.9,3.4-1.5,2.6-4.3C293.5,363.4,291.9,344.6,292.5,328.2z M320.4,332.6
		C320.4,332.6,320.4,332.6,320.4,332.6c0,4.2-0.2,8.3,0.1,12.5c0.3,4.6,0.8,9.2,1.6,13.7c7.5,41.6,28.7,74,64.6,96.6
		c2.2,1.4,3.6,1.3,5.7,0c13.5-8.3,25.3-18.6,35.2-30.9c24.7-30.6,33.2-65.9,31.3-104.4c-0.1-2.1-0.9-2.4-2.8-2.6
		c-23-2.5-44.3-9.9-63.8-22.3c-2.5-1.6-4-1-6.1,0.3c-16.2,10.2-33.7,16.9-52.5,20.4c-4.5,0.8-10.9-0.4-12.9,2.7
		C318.7,321.9,320.4,327.8,320.4,332.6z"/>
	<path class="st1" d="M393.2,486.6c14.9-7.7,28.8-16.8,40.9-28.4c29.3-28.2,46.2-62.6,51.4-102.9c0.1-0.9-0.4-2.2,1-2.7
		c0,43.6,0,87.2,0.1,130.8c0,2.8-0.6,3.3-3.3,3.3C453.3,486.6,423.3,486.6,393.2,486.6z"/>
	<path class="st2" d="M13.3,232.4c1.1,0.9,1.5,1.8,0,2.8C13.3,234.2,13.3,233.3,13.3,232.4z"/>
	<path class="st0" d="M236.1,171.2c0,10.8,0.2,21.6-0.1,32.3c-0.1,3.4,1,4,4.1,3.9c12.3-0.2,24.6-0.1,37-0.1c9,0,15.3,5.6,15.4,13.6
		c0.1,8.3-6.2,14.1-15.4,14.1c-12.5,0-25,0.1-37.4-0.1c-2.8,0-3.8,0.6-3.6,3.5c0.3,3.2,0.1,6.5,0.1,9.7c-0.1,8.5-6.1,14.7-14,14.6
		c-7.7-0.1-13.6-6.2-13.7-14.4c-0.1-3.2-0.3-6.5,0.1-9.7c0.3-3.2-1-3.9-3.9-3.7c-3.4,0.2-6.8,0.1-10.2,0
		c-7.8-0.3-13.8-6.3-13.8-13.9c0-7.5,6-13.5,13.8-13.8c0.3,0,0.6,0,0.9,0c4.2-0.3,10.1,1.9,12.3-0.9c2.1-2.6,0.6-8.2,0.6-12.5
		c0-18,0-36,0-54.1c0-9.4,5.5-15.7,13.8-15.7c8.2-0.1,13.9,6.3,13.9,15.6C236.1,150.3,236.1,160.8,236.1,171.2z"/>
	<path class="st0" d="M236.1,82.5c0.1,7.5-6.1,13.9-13.6,14c-7.7,0.2-14.2-6.3-14.1-13.9c0-7.5,6.3-13.8,13.8-13.8
		C229.7,68.8,236,75,236.1,82.5z"/>
	<path class="st0" d="M123.4,137.1c-7.5,0.1-13.9-6.1-14-13.6c-0.1-7.6,5.9-13.9,13.4-14.1c7.7-0.2,14.3,6.1,14.3,13.8
		C137.2,130.7,130.9,137,123.4,137.1z"/>
	<path class="st0" d="M335,123c0.1,7.5-6,13.9-13.5,14.1c-7.6,0.2-14.2-6.3-14.2-13.9c0-7.5,6.3-13.8,13.8-13.8
		C328.7,109.4,334.9,115.5,335,123z"/>
	<path class="st0" d="M96.5,221.4c-0.1,7.5-6.4,13.7-13.9,13.7c-7.7,0-14-6.5-13.8-14.2c0.2-7.5,6.6-13.6,14.1-13.5
		C90.4,207.6,96.6,213.9,96.5,221.4z"/>
	<path class="st0" d="M362,207.4c7.5,0.1,13.7,6.4,13.7,13.9c0,7.7-6.6,14-14.3,13.8c-7.5-0.2-13.6-6.6-13.5-14.2
		C348.1,213.5,354.5,207.3,362,207.4z"/>
	<path class="st0" d="M137.1,319.1c0.1,7.6-6,13.9-13.5,14c-7.7,0.2-13.9-5.8-14.1-13.4c-0.2-7.8,5.9-14.3,13.7-14.3
		C130.7,305.4,137,311.6,137.1,319.1z"/>
	<path class="st0" d="M222.2,346.1c7.5,0,13.8,6.2,13.9,13.7c0.1,7.7-6.4,14.1-14.1,14c-7.5-0.1-13.7-6.5-13.6-14
		C208.4,352.4,214.7,346.1,222.2,346.1z"/>
</g>
</svg>
