<?xml version="1.0" encoding="utf-8"?>
<!-- Generator: Adobe Illustrator 25.1.0, SVG Export Plug-In . SVG Version: 6.00 Build 0)  -->
<svg version="1.1" id="Responsible" xmlns="http://www.w3.org/2000/svg" xmlns:xlink="http://www.w3.org/1999/xlink" x="0px"
	 y="0px" viewBox="0 0 500 500" style="enable-background:new 0 0 500 500;" xml:space="preserve">
<style type="text/css">
	.st0{fill:#C43426;}
</style>
<path class="st0" d="M151.8,434c25.4,6.6,50.4,8.6,75.6,6.7c50.9-3.9,96.4-21.9,135.7-54.5c41.8-34.6,69.3-78.5,81-131.3
	c5.9-26.5,6.2-54,6.1-81.2c-0.1-24.7-2.2-49.1-5.6-73.5c-1.2-8.6-1.8-9.1-10.7-8.9C304,93.5,184.5,174,130.2,296.3
	c-12.4,27.9-20.7,57.1-24.8,87.3c-0.2,1.5-0.5,3-0.9,4.4c-1.7,6.5-6.8,10.1-12.9,9.1s-10.2-6.8-9.2-13.5c1.9-12.8,3.8-25.6,7.3-38.1
	c1-3.7,0.3-6.2-2.3-9.2C43.1,286.5,23.2,228.1,28,161.9c3.9-54.1,25.2-101.2,62.2-141c9.3-10,22.7-11.8,34.8-4.3
	c43.1,26.6,70.3,64.7,81.4,114.1c1.5,6.7,2.3,13.5,3.5,20.5c2.2,0.3,3.3-1.5,4.7-2.6C266.3,107.3,324.9,82,390.2,72
	c15.6-2.4,31.3-3.4,47.1-3.7c14.8-0.3,26.1,9.1,28.5,23.8c8.1,50,9.1,100.1,2.7,150.4c-12.8,100.4-93.9,192.1-202.9,215.3
	c-45.5,9.7-90.5,7.8-134.8-6.4c-4.1-1.3-7.2-0.7-10.8,1.4c-22.2,12.9-45.4,23.8-69.2,33.4c-3.9,1.6-7.8,2.7-11.8,0.6
	c-4.3-2.2-6.4-5.7-6.2-10.5c0.1-5.1,3.1-8.5,7.6-10.3c12-4.8,23.9-9.9,35.5-15.5c95.9-46.7,171.4-115.6,226.7-206.8
	c1.1-1.8,2.2-3.7,3.4-5.5c4.4-6.9,10.4-8.8,16.3-5.2c5.7,3.5,6.9,10,2.9,17c-3.8,6.5-7.7,13-11.7,19.3
	c-40.7,63.8-92.3,117.1-154.8,159.8C156.5,430.6,154.5,432.1,151.8,434z M98.4,314.7c5.2-15,10.8-28.7,17.3-42.1
	c0.7-1.5,1.2-3.2,1.3-4.9c1.1-24,1.4-47.9-0.8-71.8c-2.1-23.2-6.5-46.1-11-69c-1.4-7.2,2-12.5,8.2-13.9c6.7-1.5,12.3,2.1,13.8,9.4
	c4.5,21.3,8.5,42.7,10.8,64.4c1.4,13.6,2.1,27.3,2.7,42.3c14-20.4,28.7-38.4,45.3-54.8c2-2,1.8-4.3,1.7-6.6
	c-1.2-55.6-24.9-98.9-71.2-129.8c-5.4-3.6-8.7-3.3-13,1.7C54.3,96.8,38.5,161.9,56.7,235C64,264.4,78.3,290.6,98.4,314.7z"/>
</svg>
