<?xml version="1.0" encoding="utf-8"?>
<!-- Generator: Adobe Illustrator 25.1.0, SVG Export Plug-In . SVG Version: 6.00 Build 0)  -->
<svg version="1.1" id="safety" xmlns="http://www.w3.org/2000/svg" xmlns:xlink="http://www.w3.org/1999/xlink" x="0px" y="0px"
	 viewBox="0 0 500 500" style="enable-background:new 0 0 500 500;" xml:space="preserve">
<style type="text/css">
	.st0{fill:#C43426;}
</style>
<g>
	<path class="st0" d="M441.6,169.9c0,24.1,0.1,48.2,0,72.3c-0.3,73.6-30.2,132.1-89.6,175.5c-32.7,23.9-65.6,47.6-98.3,71.6
		c-2.7,2-4.3,2.3-7.2,0.1c-34.7-25.4-69.9-50.2-104.2-76.1c-49.7-37.6-77.1-87.9-83.1-150c-0.6-6.5-0.8-12.9-0.8-19.4
		c0-53.7,0-107.4-0.1-161.1c0-3.8,1.1-5.4,4.6-6.7c60.9-22,121.8-44.1,182.7-66.3c3.2-1.2,5.8-1.1,9,0
		C315.3,32.1,376,54.2,436.8,76.1c3.8,1.4,4.9,3.1,4.9,7C441.5,112.1,441.6,141,441.6,169.9z M90.4,179.8c0,21.9-0.3,43.9,0.1,65.8
		c0.8,59.1,24.6,107,71.7,142.8c27.9,21.2,56.6,41.3,84.9,62c2.2,1.6,3.6,1.8,5.9,0.1c28.4-20.8,57.3-41,85.3-62.3
		c46.7-35.6,70.6-83.3,71.3-142c0.6-47.2,0.1-94.4,0.2-141.7c0-3.1-0.7-4.5-3.8-5.7c-51-18.4-101.9-37-152.8-55.6
		c-2.2-0.8-4-0.8-6.2,0C196.1,61.9,145.2,80.5,94.2,98.9c-3,1.1-3.9,2.4-3.9,5.6C90.4,129.6,90.4,154.7,90.4,179.8z"/>
	<path class="st0" d="M182.2,209.2c0.7,1.1,1.3,2.4,2.2,3.3c14.2,14.3,28.5,28.4,42.6,42.7c2.5,2.6,3.7,2.3,6.1-0.1
		c27.3-27.5,54.7-54.8,82-82.3c2.7-2.8,4.2-2.8,6.8,0c5.4,5.9,11.1,11.4,16.9,16.9c1.8,1.7,2,2.7,0.1,4.6
		c-35.6,35.4-71,70.9-106.5,106.4c-1.8,1.8-2.8,2-4.7,0.1c-22.1-22.3-44.4-44.5-66.6-66.7c-1.1-1.1-2.7-1.9-0.7-3.9
		c6.6-6.4,13-12.9,19.4-19.3C180.3,210.7,180.9,210.3,182.2,209.2z"/>
</g>
</svg>
